%TF.GenerationSoftware,KiCad,Pcbnew,9.0.6*%
%TF.CreationDate,2025-11-01T18:17:41-06:00*%
%TF.ProjectId,STM32Nucleo_L476RG_Baseboard,53544d33-324e-4756-936c-656f5f4c3437,rev?*%
%TF.SameCoordinates,Original*%
%TF.FileFunction,Legend,Top*%
%TF.FilePolarity,Positive*%
%FSLAX46Y46*%
G04 Gerber Fmt 4.6, Leading zero omitted, Abs format (unit mm)*
G04 Created by KiCad (PCBNEW 9.0.6) date 2025-11-01 18:17:41*
%MOMM*%
%LPD*%
G01*
G04 APERTURE LIST*
%ADD10C,0.250000*%
%ADD11C,0.687500*%
%ADD12C,0.150000*%
%ADD13C,0.120000*%
%ADD14C,0.127000*%
%ADD15C,0.200000*%
G04 APERTURE END LIST*
D10*
X119652568Y-164364619D02*
X119652568Y-163364619D01*
X119652568Y-163364619D02*
X119985901Y-164078904D01*
X119985901Y-164078904D02*
X120319234Y-163364619D01*
X120319234Y-163364619D02*
X120319234Y-164364619D01*
X120700187Y-163364619D02*
X121319234Y-163364619D01*
X121319234Y-163364619D02*
X120985901Y-163745571D01*
X120985901Y-163745571D02*
X121128758Y-163745571D01*
X121128758Y-163745571D02*
X121223996Y-163793190D01*
X121223996Y-163793190D02*
X121271615Y-163840809D01*
X121271615Y-163840809D02*
X121319234Y-163936047D01*
X121319234Y-163936047D02*
X121319234Y-164174142D01*
X121319234Y-164174142D02*
X121271615Y-164269380D01*
X121271615Y-164269380D02*
X121223996Y-164317000D01*
X121223996Y-164317000D02*
X121128758Y-164364619D01*
X121128758Y-164364619D02*
X120843044Y-164364619D01*
X120843044Y-164364619D02*
X120747806Y-164317000D01*
X120747806Y-164317000D02*
X120700187Y-164269380D01*
X122462092Y-164317000D02*
X122604949Y-164364619D01*
X122604949Y-164364619D02*
X122843044Y-164364619D01*
X122843044Y-164364619D02*
X122938282Y-164317000D01*
X122938282Y-164317000D02*
X122985901Y-164269380D01*
X122985901Y-164269380D02*
X123033520Y-164174142D01*
X123033520Y-164174142D02*
X123033520Y-164078904D01*
X123033520Y-164078904D02*
X122985901Y-163983666D01*
X122985901Y-163983666D02*
X122938282Y-163936047D01*
X122938282Y-163936047D02*
X122843044Y-163888428D01*
X122843044Y-163888428D02*
X122652568Y-163840809D01*
X122652568Y-163840809D02*
X122557330Y-163793190D01*
X122557330Y-163793190D02*
X122509711Y-163745571D01*
X122509711Y-163745571D02*
X122462092Y-163650333D01*
X122462092Y-163650333D02*
X122462092Y-163555095D01*
X122462092Y-163555095D02*
X122509711Y-163459857D01*
X122509711Y-163459857D02*
X122557330Y-163412238D01*
X122557330Y-163412238D02*
X122652568Y-163364619D01*
X122652568Y-163364619D02*
X122890663Y-163364619D01*
X122890663Y-163364619D02*
X123033520Y-163412238D01*
X123890663Y-164317000D02*
X123795425Y-164364619D01*
X123795425Y-164364619D02*
X123604949Y-164364619D01*
X123604949Y-164364619D02*
X123509711Y-164317000D01*
X123509711Y-164317000D02*
X123462092Y-164269380D01*
X123462092Y-164269380D02*
X123414473Y-164174142D01*
X123414473Y-164174142D02*
X123414473Y-163888428D01*
X123414473Y-163888428D02*
X123462092Y-163793190D01*
X123462092Y-163793190D02*
X123509711Y-163745571D01*
X123509711Y-163745571D02*
X123604949Y-163697952D01*
X123604949Y-163697952D02*
X123795425Y-163697952D01*
X123795425Y-163697952D02*
X123890663Y-163745571D01*
X124319235Y-164364619D02*
X124319235Y-163697952D01*
X124319235Y-163888428D02*
X124366854Y-163793190D01*
X124366854Y-163793190D02*
X124414473Y-163745571D01*
X124414473Y-163745571D02*
X124509711Y-163697952D01*
X124509711Y-163697952D02*
X124604949Y-163697952D01*
X125319235Y-164317000D02*
X125223997Y-164364619D01*
X125223997Y-164364619D02*
X125033521Y-164364619D01*
X125033521Y-164364619D02*
X124938283Y-164317000D01*
X124938283Y-164317000D02*
X124890664Y-164221761D01*
X124890664Y-164221761D02*
X124890664Y-163840809D01*
X124890664Y-163840809D02*
X124938283Y-163745571D01*
X124938283Y-163745571D02*
X125033521Y-163697952D01*
X125033521Y-163697952D02*
X125223997Y-163697952D01*
X125223997Y-163697952D02*
X125319235Y-163745571D01*
X125319235Y-163745571D02*
X125366854Y-163840809D01*
X125366854Y-163840809D02*
X125366854Y-163936047D01*
X125366854Y-163936047D02*
X124890664Y-164031285D01*
X125700188Y-163697952D02*
X125890664Y-164364619D01*
X125890664Y-164364619D02*
X126081140Y-163888428D01*
X126081140Y-163888428D02*
X126271616Y-164364619D01*
X126271616Y-164364619D02*
X126462092Y-163697952D01*
X52402568Y-164614619D02*
X52402568Y-163614619D01*
X52402568Y-163614619D02*
X52735901Y-164328904D01*
X52735901Y-164328904D02*
X53069234Y-163614619D01*
X53069234Y-163614619D02*
X53069234Y-164614619D01*
X53450187Y-163614619D02*
X54069234Y-163614619D01*
X54069234Y-163614619D02*
X53735901Y-163995571D01*
X53735901Y-163995571D02*
X53878758Y-163995571D01*
X53878758Y-163995571D02*
X53973996Y-164043190D01*
X53973996Y-164043190D02*
X54021615Y-164090809D01*
X54021615Y-164090809D02*
X54069234Y-164186047D01*
X54069234Y-164186047D02*
X54069234Y-164424142D01*
X54069234Y-164424142D02*
X54021615Y-164519380D01*
X54021615Y-164519380D02*
X53973996Y-164567000D01*
X53973996Y-164567000D02*
X53878758Y-164614619D01*
X53878758Y-164614619D02*
X53593044Y-164614619D01*
X53593044Y-164614619D02*
X53497806Y-164567000D01*
X53497806Y-164567000D02*
X53450187Y-164519380D01*
X55212092Y-164567000D02*
X55354949Y-164614619D01*
X55354949Y-164614619D02*
X55593044Y-164614619D01*
X55593044Y-164614619D02*
X55688282Y-164567000D01*
X55688282Y-164567000D02*
X55735901Y-164519380D01*
X55735901Y-164519380D02*
X55783520Y-164424142D01*
X55783520Y-164424142D02*
X55783520Y-164328904D01*
X55783520Y-164328904D02*
X55735901Y-164233666D01*
X55735901Y-164233666D02*
X55688282Y-164186047D01*
X55688282Y-164186047D02*
X55593044Y-164138428D01*
X55593044Y-164138428D02*
X55402568Y-164090809D01*
X55402568Y-164090809D02*
X55307330Y-164043190D01*
X55307330Y-164043190D02*
X55259711Y-163995571D01*
X55259711Y-163995571D02*
X55212092Y-163900333D01*
X55212092Y-163900333D02*
X55212092Y-163805095D01*
X55212092Y-163805095D02*
X55259711Y-163709857D01*
X55259711Y-163709857D02*
X55307330Y-163662238D01*
X55307330Y-163662238D02*
X55402568Y-163614619D01*
X55402568Y-163614619D02*
X55640663Y-163614619D01*
X55640663Y-163614619D02*
X55783520Y-163662238D01*
X56640663Y-164567000D02*
X56545425Y-164614619D01*
X56545425Y-164614619D02*
X56354949Y-164614619D01*
X56354949Y-164614619D02*
X56259711Y-164567000D01*
X56259711Y-164567000D02*
X56212092Y-164519380D01*
X56212092Y-164519380D02*
X56164473Y-164424142D01*
X56164473Y-164424142D02*
X56164473Y-164138428D01*
X56164473Y-164138428D02*
X56212092Y-164043190D01*
X56212092Y-164043190D02*
X56259711Y-163995571D01*
X56259711Y-163995571D02*
X56354949Y-163947952D01*
X56354949Y-163947952D02*
X56545425Y-163947952D01*
X56545425Y-163947952D02*
X56640663Y-163995571D01*
X57069235Y-164614619D02*
X57069235Y-163947952D01*
X57069235Y-164138428D02*
X57116854Y-164043190D01*
X57116854Y-164043190D02*
X57164473Y-163995571D01*
X57164473Y-163995571D02*
X57259711Y-163947952D01*
X57259711Y-163947952D02*
X57354949Y-163947952D01*
X58069235Y-164567000D02*
X57973997Y-164614619D01*
X57973997Y-164614619D02*
X57783521Y-164614619D01*
X57783521Y-164614619D02*
X57688283Y-164567000D01*
X57688283Y-164567000D02*
X57640664Y-164471761D01*
X57640664Y-164471761D02*
X57640664Y-164090809D01*
X57640664Y-164090809D02*
X57688283Y-163995571D01*
X57688283Y-163995571D02*
X57783521Y-163947952D01*
X57783521Y-163947952D02*
X57973997Y-163947952D01*
X57973997Y-163947952D02*
X58069235Y-163995571D01*
X58069235Y-163995571D02*
X58116854Y-164090809D01*
X58116854Y-164090809D02*
X58116854Y-164186047D01*
X58116854Y-164186047D02*
X57640664Y-164281285D01*
X58450188Y-163947952D02*
X58640664Y-164614619D01*
X58640664Y-164614619D02*
X58831140Y-164138428D01*
X58831140Y-164138428D02*
X59021616Y-164614619D01*
X59021616Y-164614619D02*
X59212092Y-163947952D01*
D11*
X141901113Y-114642936D02*
X138401113Y-114642936D01*
X138401113Y-114642936D02*
X138401113Y-113988174D01*
X138401113Y-113988174D02*
X138567780Y-113595317D01*
X138567780Y-113595317D02*
X138901113Y-113333412D01*
X138901113Y-113333412D02*
X139234447Y-113202459D01*
X139234447Y-113202459D02*
X139901113Y-113071507D01*
X139901113Y-113071507D02*
X140401113Y-113071507D01*
X140401113Y-113071507D02*
X141067780Y-113202459D01*
X141067780Y-113202459D02*
X141401113Y-113333412D01*
X141401113Y-113333412D02*
X141734447Y-113595317D01*
X141734447Y-113595317D02*
X141901113Y-113988174D01*
X141901113Y-113988174D02*
X141901113Y-114642936D01*
X141734447Y-110845317D02*
X141901113Y-111107221D01*
X141901113Y-111107221D02*
X141901113Y-111631031D01*
X141901113Y-111631031D02*
X141734447Y-111892936D01*
X141734447Y-111892936D02*
X141401113Y-112023888D01*
X141401113Y-112023888D02*
X140067780Y-112023888D01*
X140067780Y-112023888D02*
X139734447Y-111892936D01*
X139734447Y-111892936D02*
X139567780Y-111631031D01*
X139567780Y-111631031D02*
X139567780Y-111107221D01*
X139567780Y-111107221D02*
X139734447Y-110845317D01*
X139734447Y-110845317D02*
X140067780Y-110714364D01*
X140067780Y-110714364D02*
X140401113Y-110714364D01*
X140401113Y-110714364D02*
X140734447Y-112023888D01*
X141734447Y-109666745D02*
X141901113Y-109404840D01*
X141901113Y-109404840D02*
X141901113Y-108881031D01*
X141901113Y-108881031D02*
X141734447Y-108619126D01*
X141734447Y-108619126D02*
X141401113Y-108488174D01*
X141401113Y-108488174D02*
X141234447Y-108488174D01*
X141234447Y-108488174D02*
X140901113Y-108619126D01*
X140901113Y-108619126D02*
X140734447Y-108881031D01*
X140734447Y-108881031D02*
X140734447Y-109273888D01*
X140734447Y-109273888D02*
X140567780Y-109535793D01*
X140567780Y-109535793D02*
X140234447Y-109666745D01*
X140234447Y-109666745D02*
X140067780Y-109666745D01*
X140067780Y-109666745D02*
X139734447Y-109535793D01*
X139734447Y-109535793D02*
X139567780Y-109273888D01*
X139567780Y-109273888D02*
X139567780Y-108881031D01*
X139567780Y-108881031D02*
X139734447Y-108619126D01*
X141901113Y-107309603D02*
X139567780Y-107309603D01*
X138401113Y-107309603D02*
X138567780Y-107440555D01*
X138567780Y-107440555D02*
X138734447Y-107309603D01*
X138734447Y-107309603D02*
X138567780Y-107178650D01*
X138567780Y-107178650D02*
X138401113Y-107309603D01*
X138401113Y-107309603D02*
X138734447Y-107309603D01*
X139567780Y-104821507D02*
X142401113Y-104821507D01*
X142401113Y-104821507D02*
X142734447Y-104952460D01*
X142734447Y-104952460D02*
X142901113Y-105083412D01*
X142901113Y-105083412D02*
X143067780Y-105345317D01*
X143067780Y-105345317D02*
X143067780Y-105738174D01*
X143067780Y-105738174D02*
X142901113Y-106000079D01*
X141734447Y-104821507D02*
X141901113Y-105083412D01*
X141901113Y-105083412D02*
X141901113Y-105607221D01*
X141901113Y-105607221D02*
X141734447Y-105869126D01*
X141734447Y-105869126D02*
X141567780Y-106000079D01*
X141567780Y-106000079D02*
X141234447Y-106131031D01*
X141234447Y-106131031D02*
X140234447Y-106131031D01*
X140234447Y-106131031D02*
X139901113Y-106000079D01*
X139901113Y-106000079D02*
X139734447Y-105869126D01*
X139734447Y-105869126D02*
X139567780Y-105607221D01*
X139567780Y-105607221D02*
X139567780Y-105083412D01*
X139567780Y-105083412D02*
X139734447Y-104821507D01*
X139567780Y-103511984D02*
X141901113Y-103511984D01*
X139901113Y-103511984D02*
X139734447Y-103381031D01*
X139734447Y-103381031D02*
X139567780Y-103119126D01*
X139567780Y-103119126D02*
X139567780Y-102726269D01*
X139567780Y-102726269D02*
X139734447Y-102464365D01*
X139734447Y-102464365D02*
X140067780Y-102333412D01*
X140067780Y-102333412D02*
X141901113Y-102333412D01*
X141734447Y-99976270D02*
X141901113Y-100238174D01*
X141901113Y-100238174D02*
X141901113Y-100761984D01*
X141901113Y-100761984D02*
X141734447Y-101023889D01*
X141734447Y-101023889D02*
X141401113Y-101154841D01*
X141401113Y-101154841D02*
X140067780Y-101154841D01*
X140067780Y-101154841D02*
X139734447Y-101023889D01*
X139734447Y-101023889D02*
X139567780Y-100761984D01*
X139567780Y-100761984D02*
X139567780Y-100238174D01*
X139567780Y-100238174D02*
X139734447Y-99976270D01*
X139734447Y-99976270D02*
X140067780Y-99845317D01*
X140067780Y-99845317D02*
X140401113Y-99845317D01*
X140401113Y-99845317D02*
X140734447Y-101154841D01*
X141901113Y-97488174D02*
X138401113Y-97488174D01*
X141734447Y-97488174D02*
X141901113Y-97750079D01*
X141901113Y-97750079D02*
X141901113Y-98273888D01*
X141901113Y-98273888D02*
X141734447Y-98535793D01*
X141734447Y-98535793D02*
X141567780Y-98666746D01*
X141567780Y-98666746D02*
X141234447Y-98797698D01*
X141234447Y-98797698D02*
X140234447Y-98797698D01*
X140234447Y-98797698D02*
X139901113Y-98666746D01*
X139901113Y-98666746D02*
X139734447Y-98535793D01*
X139734447Y-98535793D02*
X139567780Y-98273888D01*
X139567780Y-98273888D02*
X139567780Y-97750079D01*
X139567780Y-97750079D02*
X139734447Y-97488174D01*
X141901113Y-94083413D02*
X138401113Y-94083413D01*
X139734447Y-94083413D02*
X139567780Y-93821508D01*
X139567780Y-93821508D02*
X139567780Y-93297698D01*
X139567780Y-93297698D02*
X139734447Y-93035794D01*
X139734447Y-93035794D02*
X139901113Y-92904841D01*
X139901113Y-92904841D02*
X140234447Y-92773889D01*
X140234447Y-92773889D02*
X141234447Y-92773889D01*
X141234447Y-92773889D02*
X141567780Y-92904841D01*
X141567780Y-92904841D02*
X141734447Y-93035794D01*
X141734447Y-93035794D02*
X141901113Y-93297698D01*
X141901113Y-93297698D02*
X141901113Y-93821508D01*
X141901113Y-93821508D02*
X141734447Y-94083413D01*
X139567780Y-91857222D02*
X141901113Y-91202460D01*
X139567780Y-90547699D02*
X141901113Y-91202460D01*
X141901113Y-91202460D02*
X142734447Y-91464365D01*
X142734447Y-91464365D02*
X142901113Y-91595318D01*
X142901113Y-91595318D02*
X143067780Y-91857222D01*
X140067780Y-86488175D02*
X140234447Y-86095318D01*
X140234447Y-86095318D02*
X140401113Y-85964365D01*
X140401113Y-85964365D02*
X140734447Y-85833413D01*
X140734447Y-85833413D02*
X141234447Y-85833413D01*
X141234447Y-85833413D02*
X141567780Y-85964365D01*
X141567780Y-85964365D02*
X141734447Y-86095318D01*
X141734447Y-86095318D02*
X141901113Y-86357223D01*
X141901113Y-86357223D02*
X141901113Y-87404842D01*
X141901113Y-87404842D02*
X138401113Y-87404842D01*
X138401113Y-87404842D02*
X138401113Y-86488175D01*
X138401113Y-86488175D02*
X138567780Y-86226270D01*
X138567780Y-86226270D02*
X138734447Y-86095318D01*
X138734447Y-86095318D02*
X139067780Y-85964365D01*
X139067780Y-85964365D02*
X139401113Y-85964365D01*
X139401113Y-85964365D02*
X139734447Y-86095318D01*
X139734447Y-86095318D02*
X139901113Y-86226270D01*
X139901113Y-86226270D02*
X140067780Y-86488175D01*
X140067780Y-86488175D02*
X140067780Y-87404842D01*
X141901113Y-84654842D02*
X139567780Y-84654842D01*
X140234447Y-84654842D02*
X139901113Y-84523889D01*
X139901113Y-84523889D02*
X139734447Y-84392937D01*
X139734447Y-84392937D02*
X139567780Y-84131032D01*
X139567780Y-84131032D02*
X139567780Y-83869127D01*
X141901113Y-82559603D02*
X141734447Y-82821508D01*
X141734447Y-82821508D02*
X141567780Y-82952461D01*
X141567780Y-82952461D02*
X141234447Y-83083413D01*
X141234447Y-83083413D02*
X140234447Y-83083413D01*
X140234447Y-83083413D02*
X139901113Y-82952461D01*
X139901113Y-82952461D02*
X139734447Y-82821508D01*
X139734447Y-82821508D02*
X139567780Y-82559603D01*
X139567780Y-82559603D02*
X139567780Y-82166746D01*
X139567780Y-82166746D02*
X139734447Y-81904842D01*
X139734447Y-81904842D02*
X139901113Y-81773889D01*
X139901113Y-81773889D02*
X140234447Y-81642937D01*
X140234447Y-81642937D02*
X141234447Y-81642937D01*
X141234447Y-81642937D02*
X141567780Y-81773889D01*
X141567780Y-81773889D02*
X141734447Y-81904842D01*
X141734447Y-81904842D02*
X141901113Y-82166746D01*
X141901113Y-82166746D02*
X141901113Y-82559603D01*
X141901113Y-79285794D02*
X138401113Y-79285794D01*
X141734447Y-79285794D02*
X141901113Y-79547699D01*
X141901113Y-79547699D02*
X141901113Y-80071508D01*
X141901113Y-80071508D02*
X141734447Y-80333413D01*
X141734447Y-80333413D02*
X141567780Y-80464366D01*
X141567780Y-80464366D02*
X141234447Y-80595318D01*
X141234447Y-80595318D02*
X140234447Y-80595318D01*
X140234447Y-80595318D02*
X139901113Y-80464366D01*
X139901113Y-80464366D02*
X139734447Y-80333413D01*
X139734447Y-80333413D02*
X139567780Y-80071508D01*
X139567780Y-80071508D02*
X139567780Y-79547699D01*
X139567780Y-79547699D02*
X139734447Y-79285794D01*
X141901113Y-77976271D02*
X139567780Y-77976271D01*
X140234447Y-77976271D02*
X139901113Y-77845318D01*
X139901113Y-77845318D02*
X139734447Y-77714366D01*
X139734447Y-77714366D02*
X139567780Y-77452461D01*
X139567780Y-77452461D02*
X139567780Y-77190556D01*
X141901113Y-76273890D02*
X139567780Y-76273890D01*
X138401113Y-76273890D02*
X138567780Y-76404842D01*
X138567780Y-76404842D02*
X138734447Y-76273890D01*
X138734447Y-76273890D02*
X138567780Y-76142937D01*
X138567780Y-76142937D02*
X138401113Y-76273890D01*
X138401113Y-76273890D02*
X138734447Y-76273890D01*
X141734447Y-73785794D02*
X141901113Y-74047699D01*
X141901113Y-74047699D02*
X141901113Y-74571508D01*
X141901113Y-74571508D02*
X141734447Y-74833413D01*
X141734447Y-74833413D02*
X141567780Y-74964366D01*
X141567780Y-74964366D02*
X141234447Y-75095318D01*
X141234447Y-75095318D02*
X140234447Y-75095318D01*
X140234447Y-75095318D02*
X139901113Y-74964366D01*
X139901113Y-74964366D02*
X139734447Y-74833413D01*
X139734447Y-74833413D02*
X139567780Y-74571508D01*
X139567780Y-74571508D02*
X139567780Y-74047699D01*
X139567780Y-74047699D02*
X139734447Y-73785794D01*
X140234447Y-69988175D02*
X141901113Y-69988175D01*
X138401113Y-70904842D02*
X140234447Y-69988175D01*
X140234447Y-69988175D02*
X138401113Y-69071508D01*
X141901113Y-67761984D02*
X141734447Y-68023889D01*
X141734447Y-68023889D02*
X141567780Y-68154842D01*
X141567780Y-68154842D02*
X141234447Y-68285794D01*
X141234447Y-68285794D02*
X140234447Y-68285794D01*
X140234447Y-68285794D02*
X139901113Y-68154842D01*
X139901113Y-68154842D02*
X139734447Y-68023889D01*
X139734447Y-68023889D02*
X139567780Y-67761984D01*
X139567780Y-67761984D02*
X139567780Y-67369127D01*
X139567780Y-67369127D02*
X139734447Y-67107223D01*
X139734447Y-67107223D02*
X139901113Y-66976270D01*
X139901113Y-66976270D02*
X140234447Y-66845318D01*
X140234447Y-66845318D02*
X141234447Y-66845318D01*
X141234447Y-66845318D02*
X141567780Y-66976270D01*
X141567780Y-66976270D02*
X141734447Y-67107223D01*
X141734447Y-67107223D02*
X141901113Y-67369127D01*
X141901113Y-67369127D02*
X141901113Y-67761984D01*
X139567780Y-64488175D02*
X141901113Y-64488175D01*
X139567780Y-65666747D02*
X141401113Y-65666747D01*
X141401113Y-65666747D02*
X141734447Y-65535794D01*
X141734447Y-65535794D02*
X141901113Y-65273889D01*
X141901113Y-65273889D02*
X141901113Y-64881032D01*
X141901113Y-64881032D02*
X141734447Y-64619128D01*
X141734447Y-64619128D02*
X141567780Y-64488175D01*
X139567780Y-63178652D02*
X141901113Y-63178652D01*
X139901113Y-63178652D02*
X139734447Y-63047699D01*
X139734447Y-63047699D02*
X139567780Y-62785794D01*
X139567780Y-62785794D02*
X139567780Y-62392937D01*
X139567780Y-62392937D02*
X139734447Y-62131033D01*
X139734447Y-62131033D02*
X140067780Y-62000080D01*
X140067780Y-62000080D02*
X141901113Y-62000080D01*
X139567780Y-59511985D02*
X142401113Y-59511985D01*
X142401113Y-59511985D02*
X142734447Y-59642938D01*
X142734447Y-59642938D02*
X142901113Y-59773890D01*
X142901113Y-59773890D02*
X143067780Y-60035795D01*
X143067780Y-60035795D02*
X143067780Y-60428652D01*
X143067780Y-60428652D02*
X142901113Y-60690557D01*
X141734447Y-59511985D02*
X141901113Y-59773890D01*
X141901113Y-59773890D02*
X141901113Y-60297699D01*
X141901113Y-60297699D02*
X141734447Y-60559604D01*
X141734447Y-60559604D02*
X141567780Y-60690557D01*
X141567780Y-60690557D02*
X141234447Y-60821509D01*
X141234447Y-60821509D02*
X140234447Y-60821509D01*
X140234447Y-60821509D02*
X139901113Y-60690557D01*
X139901113Y-60690557D02*
X139734447Y-60559604D01*
X139734447Y-60559604D02*
X139567780Y-60297699D01*
X139567780Y-60297699D02*
X139567780Y-59773890D01*
X139567780Y-59773890D02*
X139734447Y-59511985D01*
X140567780Y-56107224D02*
X140567780Y-54011986D01*
X141901113Y-50607224D02*
X138401113Y-50607224D01*
X138401113Y-50607224D02*
X141901113Y-49035795D01*
X141901113Y-49035795D02*
X138401113Y-49035795D01*
X141901113Y-47333414D02*
X141734447Y-47595319D01*
X141734447Y-47595319D02*
X141567780Y-47726272D01*
X141567780Y-47726272D02*
X141234447Y-47857224D01*
X141234447Y-47857224D02*
X140234447Y-47857224D01*
X140234447Y-47857224D02*
X139901113Y-47726272D01*
X139901113Y-47726272D02*
X139734447Y-47595319D01*
X139734447Y-47595319D02*
X139567780Y-47333414D01*
X139567780Y-47333414D02*
X139567780Y-46940557D01*
X139567780Y-46940557D02*
X139734447Y-46678653D01*
X139734447Y-46678653D02*
X139901113Y-46547700D01*
X139901113Y-46547700D02*
X140234447Y-46416748D01*
X140234447Y-46416748D02*
X141234447Y-46416748D01*
X141234447Y-46416748D02*
X141567780Y-46547700D01*
X141567780Y-46547700D02*
X141734447Y-46678653D01*
X141734447Y-46678653D02*
X141901113Y-46940557D01*
X141901113Y-46940557D02*
X141901113Y-47333414D01*
X139567780Y-45500081D02*
X141901113Y-44845319D01*
X141901113Y-44845319D02*
X139567780Y-44190558D01*
X141901113Y-39607224D02*
X141901113Y-41178653D01*
X141901113Y-40392939D02*
X138401113Y-40392939D01*
X138401113Y-40392939D02*
X138901113Y-40654843D01*
X138901113Y-40654843D02*
X139234447Y-40916748D01*
X139234447Y-40916748D02*
X139401113Y-41178653D01*
X141734447Y-38297700D02*
X141901113Y-38297700D01*
X141901113Y-38297700D02*
X142234447Y-38428653D01*
X142234447Y-38428653D02*
X142401113Y-38559605D01*
X138734447Y-35154843D02*
X138567780Y-35023891D01*
X138567780Y-35023891D02*
X138401113Y-34761986D01*
X138401113Y-34761986D02*
X138401113Y-34107224D01*
X138401113Y-34107224D02*
X138567780Y-33845319D01*
X138567780Y-33845319D02*
X138734447Y-33714367D01*
X138734447Y-33714367D02*
X139067780Y-33583414D01*
X139067780Y-33583414D02*
X139401113Y-33583414D01*
X139401113Y-33583414D02*
X139901113Y-33714367D01*
X139901113Y-33714367D02*
X141901113Y-35285795D01*
X141901113Y-35285795D02*
X141901113Y-33583414D01*
X138401113Y-31881033D02*
X138401113Y-31619128D01*
X138401113Y-31619128D02*
X138567780Y-31357224D01*
X138567780Y-31357224D02*
X138734447Y-31226271D01*
X138734447Y-31226271D02*
X139067780Y-31095319D01*
X139067780Y-31095319D02*
X139734447Y-30964366D01*
X139734447Y-30964366D02*
X140567780Y-30964366D01*
X140567780Y-30964366D02*
X141234447Y-31095319D01*
X141234447Y-31095319D02*
X141567780Y-31226271D01*
X141567780Y-31226271D02*
X141734447Y-31357224D01*
X141734447Y-31357224D02*
X141901113Y-31619128D01*
X141901113Y-31619128D02*
X141901113Y-31881033D01*
X141901113Y-31881033D02*
X141734447Y-32142938D01*
X141734447Y-32142938D02*
X141567780Y-32273890D01*
X141567780Y-32273890D02*
X141234447Y-32404843D01*
X141234447Y-32404843D02*
X140567780Y-32535795D01*
X140567780Y-32535795D02*
X139734447Y-32535795D01*
X139734447Y-32535795D02*
X139067780Y-32404843D01*
X139067780Y-32404843D02*
X138734447Y-32273890D01*
X138734447Y-32273890D02*
X138567780Y-32142938D01*
X138567780Y-32142938D02*
X138401113Y-31881033D01*
X138734447Y-29916747D02*
X138567780Y-29785795D01*
X138567780Y-29785795D02*
X138401113Y-29523890D01*
X138401113Y-29523890D02*
X138401113Y-28869128D01*
X138401113Y-28869128D02*
X138567780Y-28607223D01*
X138567780Y-28607223D02*
X138734447Y-28476271D01*
X138734447Y-28476271D02*
X139067780Y-28345318D01*
X139067780Y-28345318D02*
X139401113Y-28345318D01*
X139401113Y-28345318D02*
X139901113Y-28476271D01*
X139901113Y-28476271D02*
X141901113Y-30047699D01*
X141901113Y-30047699D02*
X141901113Y-28345318D01*
X138401113Y-25857223D02*
X138401113Y-27166747D01*
X138401113Y-27166747D02*
X140067780Y-27297699D01*
X140067780Y-27297699D02*
X139901113Y-27166747D01*
X139901113Y-27166747D02*
X139734447Y-26904842D01*
X139734447Y-26904842D02*
X139734447Y-26250080D01*
X139734447Y-26250080D02*
X139901113Y-25988175D01*
X139901113Y-25988175D02*
X140067780Y-25857223D01*
X140067780Y-25857223D02*
X140401113Y-25726270D01*
X140401113Y-25726270D02*
X141234447Y-25726270D01*
X141234447Y-25726270D02*
X141567780Y-25857223D01*
X141567780Y-25857223D02*
X141734447Y-25988175D01*
X141734447Y-25988175D02*
X141901113Y-26250080D01*
X141901113Y-26250080D02*
X141901113Y-26904842D01*
X141901113Y-26904842D02*
X141734447Y-27166747D01*
X141734447Y-27166747D02*
X141567780Y-27297699D01*
X147369251Y-114773888D02*
X147535917Y-114381031D01*
X147535917Y-114381031D02*
X147535917Y-113726269D01*
X147535917Y-113726269D02*
X147369251Y-113464364D01*
X147369251Y-113464364D02*
X147202584Y-113333412D01*
X147202584Y-113333412D02*
X146869251Y-113202459D01*
X146869251Y-113202459D02*
X146535917Y-113202459D01*
X146535917Y-113202459D02*
X146202584Y-113333412D01*
X146202584Y-113333412D02*
X146035917Y-113464364D01*
X146035917Y-113464364D02*
X145869251Y-113726269D01*
X145869251Y-113726269D02*
X145702584Y-114250078D01*
X145702584Y-114250078D02*
X145535917Y-114511983D01*
X145535917Y-114511983D02*
X145369251Y-114642936D01*
X145369251Y-114642936D02*
X145035917Y-114773888D01*
X145035917Y-114773888D02*
X144702584Y-114773888D01*
X144702584Y-114773888D02*
X144369251Y-114642936D01*
X144369251Y-114642936D02*
X144202584Y-114511983D01*
X144202584Y-114511983D02*
X144035917Y-114250078D01*
X144035917Y-114250078D02*
X144035917Y-113595317D01*
X144035917Y-113595317D02*
X144202584Y-113202459D01*
X144035917Y-112416745D02*
X144035917Y-110845316D01*
X147535917Y-111631030D02*
X144035917Y-111631030D01*
X147535917Y-109928650D02*
X144035917Y-109928650D01*
X144035917Y-109928650D02*
X146535917Y-109011983D01*
X146535917Y-109011983D02*
X144035917Y-108095316D01*
X144035917Y-108095316D02*
X147535917Y-108095316D01*
X144035917Y-107047697D02*
X144035917Y-105345316D01*
X144035917Y-105345316D02*
X145369251Y-106261983D01*
X145369251Y-106261983D02*
X145369251Y-105869126D01*
X145369251Y-105869126D02*
X145535917Y-105607221D01*
X145535917Y-105607221D02*
X145702584Y-105476269D01*
X145702584Y-105476269D02*
X146035917Y-105345316D01*
X146035917Y-105345316D02*
X146869251Y-105345316D01*
X146869251Y-105345316D02*
X147202584Y-105476269D01*
X147202584Y-105476269D02*
X147369251Y-105607221D01*
X147369251Y-105607221D02*
X147535917Y-105869126D01*
X147535917Y-105869126D02*
X147535917Y-106654840D01*
X147535917Y-106654840D02*
X147369251Y-106916745D01*
X147369251Y-106916745D02*
X147202584Y-107047697D01*
X144369251Y-104297697D02*
X144202584Y-104166745D01*
X144202584Y-104166745D02*
X144035917Y-103904840D01*
X144035917Y-103904840D02*
X144035917Y-103250078D01*
X144035917Y-103250078D02*
X144202584Y-102988173D01*
X144202584Y-102988173D02*
X144369251Y-102857221D01*
X144369251Y-102857221D02*
X144702584Y-102726268D01*
X144702584Y-102726268D02*
X145035917Y-102726268D01*
X145035917Y-102726268D02*
X145535917Y-102857221D01*
X145535917Y-102857221D02*
X147535917Y-104428649D01*
X147535917Y-104428649D02*
X147535917Y-102726268D01*
X147535917Y-99452459D02*
X144035917Y-99452459D01*
X144035917Y-99452459D02*
X147535917Y-97881030D01*
X147535917Y-97881030D02*
X144035917Y-97881030D01*
X145202584Y-95392935D02*
X147535917Y-95392935D01*
X145202584Y-96571507D02*
X147035917Y-96571507D01*
X147035917Y-96571507D02*
X147369251Y-96440554D01*
X147369251Y-96440554D02*
X147535917Y-96178649D01*
X147535917Y-96178649D02*
X147535917Y-95785792D01*
X147535917Y-95785792D02*
X147369251Y-95523888D01*
X147369251Y-95523888D02*
X147202584Y-95392935D01*
X147369251Y-92904840D02*
X147535917Y-93166745D01*
X147535917Y-93166745D02*
X147535917Y-93690554D01*
X147535917Y-93690554D02*
X147369251Y-93952459D01*
X147369251Y-93952459D02*
X147202584Y-94083412D01*
X147202584Y-94083412D02*
X146869251Y-94214364D01*
X146869251Y-94214364D02*
X145869251Y-94214364D01*
X145869251Y-94214364D02*
X145535917Y-94083412D01*
X145535917Y-94083412D02*
X145369251Y-93952459D01*
X145369251Y-93952459D02*
X145202584Y-93690554D01*
X145202584Y-93690554D02*
X145202584Y-93166745D01*
X145202584Y-93166745D02*
X145369251Y-92904840D01*
X147535917Y-91333411D02*
X147369251Y-91595316D01*
X147369251Y-91595316D02*
X147035917Y-91726269D01*
X147035917Y-91726269D02*
X144035917Y-91726269D01*
X147369251Y-89238174D02*
X147535917Y-89500078D01*
X147535917Y-89500078D02*
X147535917Y-90023888D01*
X147535917Y-90023888D02*
X147369251Y-90285793D01*
X147369251Y-90285793D02*
X147035917Y-90416745D01*
X147035917Y-90416745D02*
X145702584Y-90416745D01*
X145702584Y-90416745D02*
X145369251Y-90285793D01*
X145369251Y-90285793D02*
X145202584Y-90023888D01*
X145202584Y-90023888D02*
X145202584Y-89500078D01*
X145202584Y-89500078D02*
X145369251Y-89238174D01*
X145369251Y-89238174D02*
X145702584Y-89107221D01*
X145702584Y-89107221D02*
X146035917Y-89107221D01*
X146035917Y-89107221D02*
X146369251Y-90416745D01*
X147535917Y-87535792D02*
X147369251Y-87797697D01*
X147369251Y-87797697D02*
X147202584Y-87928650D01*
X147202584Y-87928650D02*
X146869251Y-88059602D01*
X146869251Y-88059602D02*
X145869251Y-88059602D01*
X145869251Y-88059602D02*
X145535917Y-87928650D01*
X145535917Y-87928650D02*
X145369251Y-87797697D01*
X145369251Y-87797697D02*
X145202584Y-87535792D01*
X145202584Y-87535792D02*
X145202584Y-87142935D01*
X145202584Y-87142935D02*
X145369251Y-86881031D01*
X145369251Y-86881031D02*
X145535917Y-86750078D01*
X145535917Y-86750078D02*
X145869251Y-86619126D01*
X145869251Y-86619126D02*
X146869251Y-86619126D01*
X146869251Y-86619126D02*
X147202584Y-86750078D01*
X147202584Y-86750078D02*
X147369251Y-86881031D01*
X147369251Y-86881031D02*
X147535917Y-87142935D01*
X147535917Y-87142935D02*
X147535917Y-87535792D01*
X147535917Y-82035793D02*
X147535917Y-83345317D01*
X147535917Y-83345317D02*
X144035917Y-83345317D01*
X145202584Y-79940555D02*
X147535917Y-79940555D01*
X143869251Y-80595317D02*
X146369251Y-81250079D01*
X146369251Y-81250079D02*
X146369251Y-79547698D01*
X144035917Y-78761983D02*
X144035917Y-76928650D01*
X144035917Y-76928650D02*
X147535917Y-78107221D01*
X144035917Y-74702459D02*
X144035917Y-75226269D01*
X144035917Y-75226269D02*
X144202584Y-75488173D01*
X144202584Y-75488173D02*
X144369251Y-75619126D01*
X144369251Y-75619126D02*
X144869251Y-75881031D01*
X144869251Y-75881031D02*
X145535917Y-76011983D01*
X145535917Y-76011983D02*
X146869251Y-76011983D01*
X146869251Y-76011983D02*
X147202584Y-75881031D01*
X147202584Y-75881031D02*
X147369251Y-75750078D01*
X147369251Y-75750078D02*
X147535917Y-75488173D01*
X147535917Y-75488173D02*
X147535917Y-74964364D01*
X147535917Y-74964364D02*
X147369251Y-74702459D01*
X147369251Y-74702459D02*
X147202584Y-74571507D01*
X147202584Y-74571507D02*
X146869251Y-74440554D01*
X146869251Y-74440554D02*
X146035917Y-74440554D01*
X146035917Y-74440554D02*
X145702584Y-74571507D01*
X145702584Y-74571507D02*
X145535917Y-74702459D01*
X145535917Y-74702459D02*
X145369251Y-74964364D01*
X145369251Y-74964364D02*
X145369251Y-75488173D01*
X145369251Y-75488173D02*
X145535917Y-75750078D01*
X145535917Y-75750078D02*
X145702584Y-75881031D01*
X145702584Y-75881031D02*
X146035917Y-76011983D01*
X147535917Y-71690554D02*
X145869251Y-72607221D01*
X147535917Y-73261983D02*
X144035917Y-73261983D01*
X144035917Y-73261983D02*
X144035917Y-72214364D01*
X144035917Y-72214364D02*
X144202584Y-71952459D01*
X144202584Y-71952459D02*
X144369251Y-71821506D01*
X144369251Y-71821506D02*
X144702584Y-71690554D01*
X144702584Y-71690554D02*
X145202584Y-71690554D01*
X145202584Y-71690554D02*
X145535917Y-71821506D01*
X145535917Y-71821506D02*
X145702584Y-71952459D01*
X145702584Y-71952459D02*
X145869251Y-72214364D01*
X145869251Y-72214364D02*
X145869251Y-73261983D01*
X144202584Y-69071506D02*
X144035917Y-69333411D01*
X144035917Y-69333411D02*
X144035917Y-69726268D01*
X144035917Y-69726268D02*
X144202584Y-70119125D01*
X144202584Y-70119125D02*
X144535917Y-70381030D01*
X144535917Y-70381030D02*
X144869251Y-70511983D01*
X144869251Y-70511983D02*
X145535917Y-70642935D01*
X145535917Y-70642935D02*
X146035917Y-70642935D01*
X146035917Y-70642935D02*
X146702584Y-70511983D01*
X146702584Y-70511983D02*
X147035917Y-70381030D01*
X147035917Y-70381030D02*
X147369251Y-70119125D01*
X147369251Y-70119125D02*
X147535917Y-69726268D01*
X147535917Y-69726268D02*
X147535917Y-69464364D01*
X147535917Y-69464364D02*
X147369251Y-69071506D01*
X147369251Y-69071506D02*
X147202584Y-68940554D01*
X147202584Y-68940554D02*
X146035917Y-68940554D01*
X146035917Y-68940554D02*
X146035917Y-69464364D01*
X145702584Y-64750078D02*
X145869251Y-64357221D01*
X145869251Y-64357221D02*
X146035917Y-64226268D01*
X146035917Y-64226268D02*
X146369251Y-64095316D01*
X146369251Y-64095316D02*
X146869251Y-64095316D01*
X146869251Y-64095316D02*
X147202584Y-64226268D01*
X147202584Y-64226268D02*
X147369251Y-64357221D01*
X147369251Y-64357221D02*
X147535917Y-64619126D01*
X147535917Y-64619126D02*
X147535917Y-65666745D01*
X147535917Y-65666745D02*
X144035917Y-65666745D01*
X144035917Y-65666745D02*
X144035917Y-64750078D01*
X144035917Y-64750078D02*
X144202584Y-64488173D01*
X144202584Y-64488173D02*
X144369251Y-64357221D01*
X144369251Y-64357221D02*
X144702584Y-64226268D01*
X144702584Y-64226268D02*
X145035917Y-64226268D01*
X145035917Y-64226268D02*
X145369251Y-64357221D01*
X145369251Y-64357221D02*
X145535917Y-64488173D01*
X145535917Y-64488173D02*
X145702584Y-64750078D01*
X145702584Y-64750078D02*
X145702584Y-65666745D01*
X147535917Y-62916745D02*
X145202584Y-62916745D01*
X145869251Y-62916745D02*
X145535917Y-62785792D01*
X145535917Y-62785792D02*
X145369251Y-62654840D01*
X145369251Y-62654840D02*
X145202584Y-62392935D01*
X145202584Y-62392935D02*
X145202584Y-62131030D01*
X147369251Y-60166745D02*
X147535917Y-60428649D01*
X147535917Y-60428649D02*
X147535917Y-60952459D01*
X147535917Y-60952459D02*
X147369251Y-61214364D01*
X147369251Y-61214364D02*
X147035917Y-61345316D01*
X147035917Y-61345316D02*
X145702584Y-61345316D01*
X145702584Y-61345316D02*
X145369251Y-61214364D01*
X145369251Y-61214364D02*
X145202584Y-60952459D01*
X145202584Y-60952459D02*
X145202584Y-60428649D01*
X145202584Y-60428649D02*
X145369251Y-60166745D01*
X145369251Y-60166745D02*
X145702584Y-60035792D01*
X145702584Y-60035792D02*
X146035917Y-60035792D01*
X146035917Y-60035792D02*
X146369251Y-61345316D01*
X147535917Y-57678649D02*
X145702584Y-57678649D01*
X145702584Y-57678649D02*
X145369251Y-57809602D01*
X145369251Y-57809602D02*
X145202584Y-58071506D01*
X145202584Y-58071506D02*
X145202584Y-58595316D01*
X145202584Y-58595316D02*
X145369251Y-58857221D01*
X147369251Y-57678649D02*
X147535917Y-57940554D01*
X147535917Y-57940554D02*
X147535917Y-58595316D01*
X147535917Y-58595316D02*
X147369251Y-58857221D01*
X147369251Y-58857221D02*
X147035917Y-58988173D01*
X147035917Y-58988173D02*
X146702584Y-58988173D01*
X146702584Y-58988173D02*
X146369251Y-58857221D01*
X146369251Y-58857221D02*
X146202584Y-58595316D01*
X146202584Y-58595316D02*
X146202584Y-57940554D01*
X146202584Y-57940554D02*
X146035917Y-57678649D01*
X147535917Y-56369126D02*
X144035917Y-56369126D01*
X146202584Y-56107221D02*
X147535917Y-55321507D01*
X145202584Y-55321507D02*
X146535917Y-56369126D01*
X147535917Y-53750078D02*
X147369251Y-54011983D01*
X147369251Y-54011983D02*
X147202584Y-54142936D01*
X147202584Y-54142936D02*
X146869251Y-54273888D01*
X146869251Y-54273888D02*
X145869251Y-54273888D01*
X145869251Y-54273888D02*
X145535917Y-54142936D01*
X145535917Y-54142936D02*
X145369251Y-54011983D01*
X145369251Y-54011983D02*
X145202584Y-53750078D01*
X145202584Y-53750078D02*
X145202584Y-53357221D01*
X145202584Y-53357221D02*
X145369251Y-53095317D01*
X145369251Y-53095317D02*
X145535917Y-52964364D01*
X145535917Y-52964364D02*
X145869251Y-52833412D01*
X145869251Y-52833412D02*
X146869251Y-52833412D01*
X146869251Y-52833412D02*
X147202584Y-52964364D01*
X147202584Y-52964364D02*
X147369251Y-53095317D01*
X147369251Y-53095317D02*
X147535917Y-53357221D01*
X147535917Y-53357221D02*
X147535917Y-53750078D01*
X145202584Y-50476269D02*
X147535917Y-50476269D01*
X145202584Y-51654841D02*
X147035917Y-51654841D01*
X147035917Y-51654841D02*
X147369251Y-51523888D01*
X147369251Y-51523888D02*
X147535917Y-51261983D01*
X147535917Y-51261983D02*
X147535917Y-50869126D01*
X147535917Y-50869126D02*
X147369251Y-50607222D01*
X147369251Y-50607222D02*
X147202584Y-50476269D01*
X145202584Y-49559603D02*
X145202584Y-48511984D01*
X144035917Y-49166746D02*
X147035917Y-49166746D01*
X147035917Y-49166746D02*
X147369251Y-49035793D01*
X147369251Y-49035793D02*
X147535917Y-48773888D01*
X147535917Y-48773888D02*
X147535917Y-48511984D01*
X145202584Y-45761983D02*
X147535917Y-45107221D01*
X147535917Y-45107221D02*
X145202584Y-44452460D01*
X147535917Y-41964364D02*
X147535917Y-43535793D01*
X147535917Y-42750079D02*
X144035917Y-42750079D01*
X144035917Y-42750079D02*
X144535917Y-43011983D01*
X144535917Y-43011983D02*
X144869251Y-43273888D01*
X144869251Y-43273888D02*
X145035917Y-43535793D01*
X147202584Y-40785793D02*
X147369251Y-40654840D01*
X147369251Y-40654840D02*
X147535917Y-40785793D01*
X147535917Y-40785793D02*
X147369251Y-40916745D01*
X147369251Y-40916745D02*
X147202584Y-40785793D01*
X147202584Y-40785793D02*
X147535917Y-40785793D01*
X144035917Y-38952459D02*
X144035917Y-38690554D01*
X144035917Y-38690554D02*
X144202584Y-38428650D01*
X144202584Y-38428650D02*
X144369251Y-38297697D01*
X144369251Y-38297697D02*
X144702584Y-38166745D01*
X144702584Y-38166745D02*
X145369251Y-38035792D01*
X145369251Y-38035792D02*
X146202584Y-38035792D01*
X146202584Y-38035792D02*
X146869251Y-38166745D01*
X146869251Y-38166745D02*
X147202584Y-38297697D01*
X147202584Y-38297697D02*
X147369251Y-38428650D01*
X147369251Y-38428650D02*
X147535917Y-38690554D01*
X147535917Y-38690554D02*
X147535917Y-38952459D01*
X147535917Y-38952459D02*
X147369251Y-39214364D01*
X147369251Y-39214364D02*
X147202584Y-39345316D01*
X147202584Y-39345316D02*
X146869251Y-39476269D01*
X146869251Y-39476269D02*
X146202584Y-39607221D01*
X146202584Y-39607221D02*
X145369251Y-39607221D01*
X145369251Y-39607221D02*
X144702584Y-39476269D01*
X144702584Y-39476269D02*
X144369251Y-39345316D01*
X144369251Y-39345316D02*
X144202584Y-39214364D01*
X144202584Y-39214364D02*
X144035917Y-38952459D01*
D10*
X128152568Y-36114619D02*
X128152568Y-35114619D01*
X128152568Y-35114619D02*
X128485901Y-35828904D01*
X128485901Y-35828904D02*
X128819234Y-35114619D01*
X128819234Y-35114619D02*
X128819234Y-36114619D01*
X129200187Y-35114619D02*
X129819234Y-35114619D01*
X129819234Y-35114619D02*
X129485901Y-35495571D01*
X129485901Y-35495571D02*
X129628758Y-35495571D01*
X129628758Y-35495571D02*
X129723996Y-35543190D01*
X129723996Y-35543190D02*
X129771615Y-35590809D01*
X129771615Y-35590809D02*
X129819234Y-35686047D01*
X129819234Y-35686047D02*
X129819234Y-35924142D01*
X129819234Y-35924142D02*
X129771615Y-36019380D01*
X129771615Y-36019380D02*
X129723996Y-36067000D01*
X129723996Y-36067000D02*
X129628758Y-36114619D01*
X129628758Y-36114619D02*
X129343044Y-36114619D01*
X129343044Y-36114619D02*
X129247806Y-36067000D01*
X129247806Y-36067000D02*
X129200187Y-36019380D01*
X130962092Y-36067000D02*
X131104949Y-36114619D01*
X131104949Y-36114619D02*
X131343044Y-36114619D01*
X131343044Y-36114619D02*
X131438282Y-36067000D01*
X131438282Y-36067000D02*
X131485901Y-36019380D01*
X131485901Y-36019380D02*
X131533520Y-35924142D01*
X131533520Y-35924142D02*
X131533520Y-35828904D01*
X131533520Y-35828904D02*
X131485901Y-35733666D01*
X131485901Y-35733666D02*
X131438282Y-35686047D01*
X131438282Y-35686047D02*
X131343044Y-35638428D01*
X131343044Y-35638428D02*
X131152568Y-35590809D01*
X131152568Y-35590809D02*
X131057330Y-35543190D01*
X131057330Y-35543190D02*
X131009711Y-35495571D01*
X131009711Y-35495571D02*
X130962092Y-35400333D01*
X130962092Y-35400333D02*
X130962092Y-35305095D01*
X130962092Y-35305095D02*
X131009711Y-35209857D01*
X131009711Y-35209857D02*
X131057330Y-35162238D01*
X131057330Y-35162238D02*
X131152568Y-35114619D01*
X131152568Y-35114619D02*
X131390663Y-35114619D01*
X131390663Y-35114619D02*
X131533520Y-35162238D01*
X132390663Y-36067000D02*
X132295425Y-36114619D01*
X132295425Y-36114619D02*
X132104949Y-36114619D01*
X132104949Y-36114619D02*
X132009711Y-36067000D01*
X132009711Y-36067000D02*
X131962092Y-36019380D01*
X131962092Y-36019380D02*
X131914473Y-35924142D01*
X131914473Y-35924142D02*
X131914473Y-35638428D01*
X131914473Y-35638428D02*
X131962092Y-35543190D01*
X131962092Y-35543190D02*
X132009711Y-35495571D01*
X132009711Y-35495571D02*
X132104949Y-35447952D01*
X132104949Y-35447952D02*
X132295425Y-35447952D01*
X132295425Y-35447952D02*
X132390663Y-35495571D01*
X132819235Y-36114619D02*
X132819235Y-35447952D01*
X132819235Y-35638428D02*
X132866854Y-35543190D01*
X132866854Y-35543190D02*
X132914473Y-35495571D01*
X132914473Y-35495571D02*
X133009711Y-35447952D01*
X133009711Y-35447952D02*
X133104949Y-35447952D01*
X133819235Y-36067000D02*
X133723997Y-36114619D01*
X133723997Y-36114619D02*
X133533521Y-36114619D01*
X133533521Y-36114619D02*
X133438283Y-36067000D01*
X133438283Y-36067000D02*
X133390664Y-35971761D01*
X133390664Y-35971761D02*
X133390664Y-35590809D01*
X133390664Y-35590809D02*
X133438283Y-35495571D01*
X133438283Y-35495571D02*
X133533521Y-35447952D01*
X133533521Y-35447952D02*
X133723997Y-35447952D01*
X133723997Y-35447952D02*
X133819235Y-35495571D01*
X133819235Y-35495571D02*
X133866854Y-35590809D01*
X133866854Y-35590809D02*
X133866854Y-35686047D01*
X133866854Y-35686047D02*
X133390664Y-35781285D01*
X134200188Y-35447952D02*
X134390664Y-36114619D01*
X134390664Y-36114619D02*
X134581140Y-35638428D01*
X134581140Y-35638428D02*
X134771616Y-36114619D01*
X134771616Y-36114619D02*
X134962092Y-35447952D01*
X43152568Y-35614619D02*
X43152568Y-34614619D01*
X43152568Y-34614619D02*
X43485901Y-35328904D01*
X43485901Y-35328904D02*
X43819234Y-34614619D01*
X43819234Y-34614619D02*
X43819234Y-35614619D01*
X44200187Y-34614619D02*
X44819234Y-34614619D01*
X44819234Y-34614619D02*
X44485901Y-34995571D01*
X44485901Y-34995571D02*
X44628758Y-34995571D01*
X44628758Y-34995571D02*
X44723996Y-35043190D01*
X44723996Y-35043190D02*
X44771615Y-35090809D01*
X44771615Y-35090809D02*
X44819234Y-35186047D01*
X44819234Y-35186047D02*
X44819234Y-35424142D01*
X44819234Y-35424142D02*
X44771615Y-35519380D01*
X44771615Y-35519380D02*
X44723996Y-35567000D01*
X44723996Y-35567000D02*
X44628758Y-35614619D01*
X44628758Y-35614619D02*
X44343044Y-35614619D01*
X44343044Y-35614619D02*
X44247806Y-35567000D01*
X44247806Y-35567000D02*
X44200187Y-35519380D01*
X45962092Y-35567000D02*
X46104949Y-35614619D01*
X46104949Y-35614619D02*
X46343044Y-35614619D01*
X46343044Y-35614619D02*
X46438282Y-35567000D01*
X46438282Y-35567000D02*
X46485901Y-35519380D01*
X46485901Y-35519380D02*
X46533520Y-35424142D01*
X46533520Y-35424142D02*
X46533520Y-35328904D01*
X46533520Y-35328904D02*
X46485901Y-35233666D01*
X46485901Y-35233666D02*
X46438282Y-35186047D01*
X46438282Y-35186047D02*
X46343044Y-35138428D01*
X46343044Y-35138428D02*
X46152568Y-35090809D01*
X46152568Y-35090809D02*
X46057330Y-35043190D01*
X46057330Y-35043190D02*
X46009711Y-34995571D01*
X46009711Y-34995571D02*
X45962092Y-34900333D01*
X45962092Y-34900333D02*
X45962092Y-34805095D01*
X45962092Y-34805095D02*
X46009711Y-34709857D01*
X46009711Y-34709857D02*
X46057330Y-34662238D01*
X46057330Y-34662238D02*
X46152568Y-34614619D01*
X46152568Y-34614619D02*
X46390663Y-34614619D01*
X46390663Y-34614619D02*
X46533520Y-34662238D01*
X47390663Y-35567000D02*
X47295425Y-35614619D01*
X47295425Y-35614619D02*
X47104949Y-35614619D01*
X47104949Y-35614619D02*
X47009711Y-35567000D01*
X47009711Y-35567000D02*
X46962092Y-35519380D01*
X46962092Y-35519380D02*
X46914473Y-35424142D01*
X46914473Y-35424142D02*
X46914473Y-35138428D01*
X46914473Y-35138428D02*
X46962092Y-35043190D01*
X46962092Y-35043190D02*
X47009711Y-34995571D01*
X47009711Y-34995571D02*
X47104949Y-34947952D01*
X47104949Y-34947952D02*
X47295425Y-34947952D01*
X47295425Y-34947952D02*
X47390663Y-34995571D01*
X47819235Y-35614619D02*
X47819235Y-34947952D01*
X47819235Y-35138428D02*
X47866854Y-35043190D01*
X47866854Y-35043190D02*
X47914473Y-34995571D01*
X47914473Y-34995571D02*
X48009711Y-34947952D01*
X48009711Y-34947952D02*
X48104949Y-34947952D01*
X48819235Y-35567000D02*
X48723997Y-35614619D01*
X48723997Y-35614619D02*
X48533521Y-35614619D01*
X48533521Y-35614619D02*
X48438283Y-35567000D01*
X48438283Y-35567000D02*
X48390664Y-35471761D01*
X48390664Y-35471761D02*
X48390664Y-35090809D01*
X48390664Y-35090809D02*
X48438283Y-34995571D01*
X48438283Y-34995571D02*
X48533521Y-34947952D01*
X48533521Y-34947952D02*
X48723997Y-34947952D01*
X48723997Y-34947952D02*
X48819235Y-34995571D01*
X48819235Y-34995571D02*
X48866854Y-35090809D01*
X48866854Y-35090809D02*
X48866854Y-35186047D01*
X48866854Y-35186047D02*
X48390664Y-35281285D01*
X49200188Y-34947952D02*
X49390664Y-35614619D01*
X49390664Y-35614619D02*
X49581140Y-35138428D01*
X49581140Y-35138428D02*
X49771616Y-35614619D01*
X49771616Y-35614619D02*
X49962092Y-34947952D01*
X62321240Y-145871234D02*
X61987907Y-145118853D01*
X61749812Y-145871234D02*
X61749812Y-144291234D01*
X61749812Y-144291234D02*
X62130764Y-144291234D01*
X62130764Y-144291234D02*
X62226002Y-144366472D01*
X62226002Y-144366472D02*
X62273621Y-144441710D01*
X62273621Y-144441710D02*
X62321240Y-144592186D01*
X62321240Y-144592186D02*
X62321240Y-144817900D01*
X62321240Y-144817900D02*
X62273621Y-144968376D01*
X62273621Y-144968376D02*
X62226002Y-145043615D01*
X62226002Y-145043615D02*
X62130764Y-145118853D01*
X62130764Y-145118853D02*
X61749812Y-145118853D01*
X62749812Y-145043615D02*
X63083145Y-145043615D01*
X63226002Y-145871234D02*
X62749812Y-145871234D01*
X62749812Y-145871234D02*
X62749812Y-144291234D01*
X62749812Y-144291234D02*
X63226002Y-144291234D01*
X63606955Y-145795996D02*
X63749812Y-145871234D01*
X63749812Y-145871234D02*
X63987907Y-145871234D01*
X63987907Y-145871234D02*
X64083145Y-145795996D01*
X64083145Y-145795996D02*
X64130764Y-145720757D01*
X64130764Y-145720757D02*
X64178383Y-145570281D01*
X64178383Y-145570281D02*
X64178383Y-145419805D01*
X64178383Y-145419805D02*
X64130764Y-145269329D01*
X64130764Y-145269329D02*
X64083145Y-145194091D01*
X64083145Y-145194091D02*
X63987907Y-145118853D01*
X63987907Y-145118853D02*
X63797431Y-145043615D01*
X63797431Y-145043615D02*
X63702193Y-144968376D01*
X63702193Y-144968376D02*
X63654574Y-144893138D01*
X63654574Y-144893138D02*
X63606955Y-144742662D01*
X63606955Y-144742662D02*
X63606955Y-144592186D01*
X63606955Y-144592186D02*
X63654574Y-144441710D01*
X63654574Y-144441710D02*
X63702193Y-144366472D01*
X63702193Y-144366472D02*
X63797431Y-144291234D01*
X63797431Y-144291234D02*
X64035526Y-144291234D01*
X64035526Y-144291234D02*
X64178383Y-144366472D01*
X64606955Y-145043615D02*
X64940288Y-145043615D01*
X65083145Y-145871234D02*
X64606955Y-145871234D01*
X64606955Y-145871234D02*
X64606955Y-144291234D01*
X64606955Y-144291234D02*
X65083145Y-144291234D01*
X65368860Y-144291234D02*
X65940288Y-144291234D01*
X65654574Y-145871234D02*
X65654574Y-144291234D01*
X61987908Y-148414946D02*
X61987908Y-146834946D01*
X62654574Y-146834946D02*
X62845050Y-146834946D01*
X62845050Y-146834946D02*
X62940288Y-146910184D01*
X62940288Y-146910184D02*
X63035526Y-147060660D01*
X63035526Y-147060660D02*
X63083145Y-147361612D01*
X63083145Y-147361612D02*
X63083145Y-147888279D01*
X63083145Y-147888279D02*
X63035526Y-148189231D01*
X63035526Y-148189231D02*
X62940288Y-148339708D01*
X62940288Y-148339708D02*
X62845050Y-148414946D01*
X62845050Y-148414946D02*
X62654574Y-148414946D01*
X62654574Y-148414946D02*
X62559336Y-148339708D01*
X62559336Y-148339708D02*
X62464098Y-148189231D01*
X62464098Y-148189231D02*
X62416479Y-147888279D01*
X62416479Y-147888279D02*
X62416479Y-147361612D01*
X62416479Y-147361612D02*
X62464098Y-147060660D01*
X62464098Y-147060660D02*
X62559336Y-146910184D01*
X62559336Y-146910184D02*
X62654574Y-146834946D01*
X64083145Y-148414946D02*
X63749812Y-147662565D01*
X63511717Y-148414946D02*
X63511717Y-146834946D01*
X63511717Y-146834946D02*
X63892669Y-146834946D01*
X63892669Y-146834946D02*
X63987907Y-146910184D01*
X63987907Y-146910184D02*
X64035526Y-146985422D01*
X64035526Y-146985422D02*
X64083145Y-147135898D01*
X64083145Y-147135898D02*
X64083145Y-147361612D01*
X64083145Y-147361612D02*
X64035526Y-147512088D01*
X64035526Y-147512088D02*
X63987907Y-147587327D01*
X63987907Y-147587327D02*
X63892669Y-147662565D01*
X63892669Y-147662565D02*
X63511717Y-147662565D01*
X64511717Y-147587327D02*
X64845050Y-147587327D01*
X64987907Y-148414946D02*
X64511717Y-148414946D01*
X64511717Y-148414946D02*
X64511717Y-146834946D01*
X64511717Y-146834946D02*
X64987907Y-146834946D01*
X65749812Y-147587327D02*
X65416479Y-147587327D01*
X65416479Y-148414946D02*
X65416479Y-146834946D01*
X65416479Y-146834946D02*
X65892669Y-146834946D01*
X63559336Y-150131039D02*
X63892669Y-150131039D01*
X64035526Y-150958658D02*
X63559336Y-150958658D01*
X63559336Y-150958658D02*
X63559336Y-149378658D01*
X63559336Y-149378658D02*
X64035526Y-149378658D01*
X64940288Y-149378658D02*
X64464098Y-149378658D01*
X64464098Y-149378658D02*
X64416479Y-150131039D01*
X64416479Y-150131039D02*
X64464098Y-150055800D01*
X64464098Y-150055800D02*
X64559336Y-149980562D01*
X64559336Y-149980562D02*
X64797431Y-149980562D01*
X64797431Y-149980562D02*
X64892669Y-150055800D01*
X64892669Y-150055800D02*
X64940288Y-150131039D01*
X64940288Y-150131039D02*
X64987907Y-150281515D01*
X64987907Y-150281515D02*
X64987907Y-150657705D01*
X64987907Y-150657705D02*
X64940288Y-150808181D01*
X64940288Y-150808181D02*
X64892669Y-150883420D01*
X64892669Y-150883420D02*
X64797431Y-150958658D01*
X64797431Y-150958658D02*
X64559336Y-150958658D01*
X64559336Y-150958658D02*
X64464098Y-150883420D01*
X64464098Y-150883420D02*
X64416479Y-150808181D01*
X65273622Y-149378658D02*
X65606955Y-150958658D01*
X65606955Y-150958658D02*
X65940288Y-149378658D01*
X63321241Y-153502370D02*
X63321241Y-151922370D01*
X63321241Y-151922370D02*
X63702193Y-151922370D01*
X63702193Y-151922370D02*
X63797431Y-151997608D01*
X63797431Y-151997608D02*
X63845050Y-152072846D01*
X63845050Y-152072846D02*
X63892669Y-152223322D01*
X63892669Y-152223322D02*
X63892669Y-152449036D01*
X63892669Y-152449036D02*
X63845050Y-152599512D01*
X63845050Y-152599512D02*
X63797431Y-152674751D01*
X63797431Y-152674751D02*
X63702193Y-152749989D01*
X63702193Y-152749989D02*
X63321241Y-152749989D01*
X64321241Y-153502370D02*
X64321241Y-151922370D01*
X64321241Y-151922370D02*
X64559336Y-151922370D01*
X64559336Y-151922370D02*
X64702193Y-151997608D01*
X64702193Y-151997608D02*
X64797431Y-152148084D01*
X64797431Y-152148084D02*
X64845050Y-152298560D01*
X64845050Y-152298560D02*
X64892669Y-152599512D01*
X64892669Y-152599512D02*
X64892669Y-152825227D01*
X64892669Y-152825227D02*
X64845050Y-153126179D01*
X64845050Y-153126179D02*
X64797431Y-153276655D01*
X64797431Y-153276655D02*
X64702193Y-153427132D01*
X64702193Y-153427132D02*
X64559336Y-153502370D01*
X64559336Y-153502370D02*
X64321241Y-153502370D01*
X65273622Y-152072846D02*
X65321241Y-151997608D01*
X65321241Y-151997608D02*
X65416479Y-151922370D01*
X65416479Y-151922370D02*
X65654574Y-151922370D01*
X65654574Y-151922370D02*
X65749812Y-151997608D01*
X65749812Y-151997608D02*
X65797431Y-152072846D01*
X65797431Y-152072846D02*
X65845050Y-152223322D01*
X65845050Y-152223322D02*
X65845050Y-152373798D01*
X65845050Y-152373798D02*
X65797431Y-152599512D01*
X65797431Y-152599512D02*
X65226003Y-153502370D01*
X65226003Y-153502370D02*
X65845050Y-153502370D01*
X62368860Y-156046082D02*
X62368860Y-154466082D01*
X62368860Y-154466082D02*
X62749812Y-154466082D01*
X62749812Y-154466082D02*
X62845050Y-154541320D01*
X62845050Y-154541320D02*
X62892669Y-154616558D01*
X62892669Y-154616558D02*
X62940288Y-154767034D01*
X62940288Y-154767034D02*
X62940288Y-154992748D01*
X62940288Y-154992748D02*
X62892669Y-155143224D01*
X62892669Y-155143224D02*
X62845050Y-155218463D01*
X62845050Y-155218463D02*
X62749812Y-155293701D01*
X62749812Y-155293701D02*
X62368860Y-155293701D01*
X63940288Y-155895605D02*
X63892669Y-155970844D01*
X63892669Y-155970844D02*
X63749812Y-156046082D01*
X63749812Y-156046082D02*
X63654574Y-156046082D01*
X63654574Y-156046082D02*
X63511717Y-155970844D01*
X63511717Y-155970844D02*
X63416479Y-155820367D01*
X63416479Y-155820367D02*
X63368860Y-155669891D01*
X63368860Y-155669891D02*
X63321241Y-155368939D01*
X63321241Y-155368939D02*
X63321241Y-155143224D01*
X63321241Y-155143224D02*
X63368860Y-154842272D01*
X63368860Y-154842272D02*
X63416479Y-154691796D01*
X63416479Y-154691796D02*
X63511717Y-154541320D01*
X63511717Y-154541320D02*
X63654574Y-154466082D01*
X63654574Y-154466082D02*
X63749812Y-154466082D01*
X63749812Y-154466082D02*
X63892669Y-154541320D01*
X63892669Y-154541320D02*
X63940288Y-154616558D01*
X64892669Y-156046082D02*
X64321241Y-156046082D01*
X64606955Y-156046082D02*
X64606955Y-154466082D01*
X64606955Y-154466082D02*
X64511717Y-154691796D01*
X64511717Y-154691796D02*
X64416479Y-154842272D01*
X64416479Y-154842272D02*
X64321241Y-154917510D01*
X65845050Y-156046082D02*
X65273622Y-156046082D01*
X65559336Y-156046082D02*
X65559336Y-154466082D01*
X65559336Y-154466082D02*
X65464098Y-154691796D01*
X65464098Y-154691796D02*
X65368860Y-154842272D01*
X65368860Y-154842272D02*
X65273622Y-154917510D01*
X63226003Y-157987889D02*
X63987908Y-157987889D01*
X63606955Y-158589794D02*
X63606955Y-157385984D01*
X64940288Y-157009794D02*
X64464098Y-157009794D01*
X64464098Y-157009794D02*
X64416479Y-157762175D01*
X64416479Y-157762175D02*
X64464098Y-157686936D01*
X64464098Y-157686936D02*
X64559336Y-157611698D01*
X64559336Y-157611698D02*
X64797431Y-157611698D01*
X64797431Y-157611698D02*
X64892669Y-157686936D01*
X64892669Y-157686936D02*
X64940288Y-157762175D01*
X64940288Y-157762175D02*
X64987907Y-157912651D01*
X64987907Y-157912651D02*
X64987907Y-158288841D01*
X64987907Y-158288841D02*
X64940288Y-158439317D01*
X64940288Y-158439317D02*
X64892669Y-158514556D01*
X64892669Y-158514556D02*
X64797431Y-158589794D01*
X64797431Y-158589794D02*
X64559336Y-158589794D01*
X64559336Y-158589794D02*
X64464098Y-158514556D01*
X64464098Y-158514556D02*
X64416479Y-158439317D01*
X65273622Y-157009794D02*
X65606955Y-158589794D01*
X65606955Y-158589794D02*
X65940288Y-157009794D01*
X62273622Y-160531601D02*
X63035527Y-160531601D01*
X62654574Y-161133506D02*
X62654574Y-159929696D01*
X63416479Y-159553506D02*
X64035526Y-159553506D01*
X64035526Y-159553506D02*
X63702193Y-160155410D01*
X63702193Y-160155410D02*
X63845050Y-160155410D01*
X63845050Y-160155410D02*
X63940288Y-160230648D01*
X63940288Y-160230648D02*
X63987907Y-160305887D01*
X63987907Y-160305887D02*
X64035526Y-160456363D01*
X64035526Y-160456363D02*
X64035526Y-160832553D01*
X64035526Y-160832553D02*
X63987907Y-160983029D01*
X63987907Y-160983029D02*
X63940288Y-161058268D01*
X63940288Y-161058268D02*
X63845050Y-161133506D01*
X63845050Y-161133506D02*
X63559336Y-161133506D01*
X63559336Y-161133506D02*
X63464098Y-161058268D01*
X63464098Y-161058268D02*
X63416479Y-160983029D01*
X64321241Y-159553506D02*
X64654574Y-161133506D01*
X64654574Y-161133506D02*
X64987907Y-159553506D01*
X65226003Y-159553506D02*
X65845050Y-159553506D01*
X65845050Y-159553506D02*
X65511717Y-160155410D01*
X65511717Y-160155410D02*
X65654574Y-160155410D01*
X65654574Y-160155410D02*
X65749812Y-160230648D01*
X65749812Y-160230648D02*
X65797431Y-160305887D01*
X65797431Y-160305887D02*
X65845050Y-160456363D01*
X65845050Y-160456363D02*
X65845050Y-160832553D01*
X65845050Y-160832553D02*
X65797431Y-160983029D01*
X65797431Y-160983029D02*
X65749812Y-161058268D01*
X65749812Y-161058268D02*
X65654574Y-161133506D01*
X65654574Y-161133506D02*
X65368860Y-161133506D01*
X65368860Y-161133506D02*
X65273622Y-161058268D01*
X65273622Y-161058268D02*
X65226003Y-160983029D01*
X63749812Y-162172456D02*
X63654574Y-162097218D01*
X63654574Y-162097218D02*
X63511717Y-162097218D01*
X63511717Y-162097218D02*
X63368860Y-162172456D01*
X63368860Y-162172456D02*
X63273622Y-162322932D01*
X63273622Y-162322932D02*
X63226003Y-162473408D01*
X63226003Y-162473408D02*
X63178384Y-162774360D01*
X63178384Y-162774360D02*
X63178384Y-163000075D01*
X63178384Y-163000075D02*
X63226003Y-163301027D01*
X63226003Y-163301027D02*
X63273622Y-163451503D01*
X63273622Y-163451503D02*
X63368860Y-163601980D01*
X63368860Y-163601980D02*
X63511717Y-163677218D01*
X63511717Y-163677218D02*
X63606955Y-163677218D01*
X63606955Y-163677218D02*
X63749812Y-163601980D01*
X63749812Y-163601980D02*
X63797431Y-163526741D01*
X63797431Y-163526741D02*
X63797431Y-163000075D01*
X63797431Y-163000075D02*
X63606955Y-163000075D01*
X64226003Y-163677218D02*
X64226003Y-162097218D01*
X64226003Y-162097218D02*
X64797431Y-163677218D01*
X64797431Y-163677218D02*
X64797431Y-162097218D01*
X65273622Y-163677218D02*
X65273622Y-162097218D01*
X65273622Y-162097218D02*
X65511717Y-162097218D01*
X65511717Y-162097218D02*
X65654574Y-162172456D01*
X65654574Y-162172456D02*
X65749812Y-162322932D01*
X65749812Y-162322932D02*
X65797431Y-162473408D01*
X65797431Y-162473408D02*
X65845050Y-162774360D01*
X65845050Y-162774360D02*
X65845050Y-163000075D01*
X65845050Y-163000075D02*
X65797431Y-163301027D01*
X65797431Y-163301027D02*
X65749812Y-163451503D01*
X65749812Y-163451503D02*
X65654574Y-163601980D01*
X65654574Y-163601980D02*
X65511717Y-163677218D01*
X65511717Y-163677218D02*
X65273622Y-163677218D01*
X63749812Y-164716168D02*
X63654574Y-164640930D01*
X63654574Y-164640930D02*
X63511717Y-164640930D01*
X63511717Y-164640930D02*
X63368860Y-164716168D01*
X63368860Y-164716168D02*
X63273622Y-164866644D01*
X63273622Y-164866644D02*
X63226003Y-165017120D01*
X63226003Y-165017120D02*
X63178384Y-165318072D01*
X63178384Y-165318072D02*
X63178384Y-165543787D01*
X63178384Y-165543787D02*
X63226003Y-165844739D01*
X63226003Y-165844739D02*
X63273622Y-165995215D01*
X63273622Y-165995215D02*
X63368860Y-166145692D01*
X63368860Y-166145692D02*
X63511717Y-166220930D01*
X63511717Y-166220930D02*
X63606955Y-166220930D01*
X63606955Y-166220930D02*
X63749812Y-166145692D01*
X63749812Y-166145692D02*
X63797431Y-166070453D01*
X63797431Y-166070453D02*
X63797431Y-165543787D01*
X63797431Y-165543787D02*
X63606955Y-165543787D01*
X64226003Y-166220930D02*
X64226003Y-164640930D01*
X64226003Y-164640930D02*
X64797431Y-166220930D01*
X64797431Y-166220930D02*
X64797431Y-164640930D01*
X65273622Y-166220930D02*
X65273622Y-164640930D01*
X65273622Y-164640930D02*
X65511717Y-164640930D01*
X65511717Y-164640930D02*
X65654574Y-164716168D01*
X65654574Y-164716168D02*
X65749812Y-164866644D01*
X65749812Y-164866644D02*
X65797431Y-165017120D01*
X65797431Y-165017120D02*
X65845050Y-165318072D01*
X65845050Y-165318072D02*
X65845050Y-165543787D01*
X65845050Y-165543787D02*
X65797431Y-165844739D01*
X65797431Y-165844739D02*
X65749812Y-165995215D01*
X65749812Y-165995215D02*
X65654574Y-166145692D01*
X65654574Y-166145692D02*
X65511717Y-166220930D01*
X65511717Y-166220930D02*
X65273622Y-166220930D01*
X63749812Y-167259880D02*
X63654574Y-167184642D01*
X63654574Y-167184642D02*
X63511717Y-167184642D01*
X63511717Y-167184642D02*
X63368860Y-167259880D01*
X63368860Y-167259880D02*
X63273622Y-167410356D01*
X63273622Y-167410356D02*
X63226003Y-167560832D01*
X63226003Y-167560832D02*
X63178384Y-167861784D01*
X63178384Y-167861784D02*
X63178384Y-168087499D01*
X63178384Y-168087499D02*
X63226003Y-168388451D01*
X63226003Y-168388451D02*
X63273622Y-168538927D01*
X63273622Y-168538927D02*
X63368860Y-168689404D01*
X63368860Y-168689404D02*
X63511717Y-168764642D01*
X63511717Y-168764642D02*
X63606955Y-168764642D01*
X63606955Y-168764642D02*
X63749812Y-168689404D01*
X63749812Y-168689404D02*
X63797431Y-168614165D01*
X63797431Y-168614165D02*
X63797431Y-168087499D01*
X63797431Y-168087499D02*
X63606955Y-168087499D01*
X64226003Y-168764642D02*
X64226003Y-167184642D01*
X64226003Y-167184642D02*
X64797431Y-168764642D01*
X64797431Y-168764642D02*
X64797431Y-167184642D01*
X65273622Y-168764642D02*
X65273622Y-167184642D01*
X65273622Y-167184642D02*
X65511717Y-167184642D01*
X65511717Y-167184642D02*
X65654574Y-167259880D01*
X65654574Y-167259880D02*
X65749812Y-167410356D01*
X65749812Y-167410356D02*
X65797431Y-167560832D01*
X65797431Y-167560832D02*
X65845050Y-167861784D01*
X65845050Y-167861784D02*
X65845050Y-168087499D01*
X65845050Y-168087499D02*
X65797431Y-168388451D01*
X65797431Y-168388451D02*
X65749812Y-168538927D01*
X65749812Y-168538927D02*
X65654574Y-168689404D01*
X65654574Y-168689404D02*
X65511717Y-168764642D01*
X65511717Y-168764642D02*
X65273622Y-168764642D01*
X144602568Y-122744530D02*
X144602568Y-121164530D01*
X144602568Y-121164530D02*
X144983520Y-121164530D01*
X144983520Y-121164530D02*
X145078758Y-121239768D01*
X145078758Y-121239768D02*
X145126377Y-121315006D01*
X145126377Y-121315006D02*
X145173996Y-121465482D01*
X145173996Y-121465482D02*
X145173996Y-121691196D01*
X145173996Y-121691196D02*
X145126377Y-121841672D01*
X145126377Y-121841672D02*
X145078758Y-121916911D01*
X145078758Y-121916911D02*
X144983520Y-121992149D01*
X144983520Y-121992149D02*
X144602568Y-121992149D01*
X146173996Y-122594053D02*
X146126377Y-122669292D01*
X146126377Y-122669292D02*
X145983520Y-122744530D01*
X145983520Y-122744530D02*
X145888282Y-122744530D01*
X145888282Y-122744530D02*
X145745425Y-122669292D01*
X145745425Y-122669292D02*
X145650187Y-122518815D01*
X145650187Y-122518815D02*
X145602568Y-122368339D01*
X145602568Y-122368339D02*
X145554949Y-122067387D01*
X145554949Y-122067387D02*
X145554949Y-121841672D01*
X145554949Y-121841672D02*
X145602568Y-121540720D01*
X145602568Y-121540720D02*
X145650187Y-121390244D01*
X145650187Y-121390244D02*
X145745425Y-121239768D01*
X145745425Y-121239768D02*
X145888282Y-121164530D01*
X145888282Y-121164530D02*
X145983520Y-121164530D01*
X145983520Y-121164530D02*
X146126377Y-121239768D01*
X146126377Y-121239768D02*
X146173996Y-121315006D01*
X146745425Y-121841672D02*
X146650187Y-121766434D01*
X146650187Y-121766434D02*
X146602568Y-121691196D01*
X146602568Y-121691196D02*
X146554949Y-121540720D01*
X146554949Y-121540720D02*
X146554949Y-121465482D01*
X146554949Y-121465482D02*
X146602568Y-121315006D01*
X146602568Y-121315006D02*
X146650187Y-121239768D01*
X146650187Y-121239768D02*
X146745425Y-121164530D01*
X146745425Y-121164530D02*
X146935901Y-121164530D01*
X146935901Y-121164530D02*
X147031139Y-121239768D01*
X147031139Y-121239768D02*
X147078758Y-121315006D01*
X147078758Y-121315006D02*
X147126377Y-121465482D01*
X147126377Y-121465482D02*
X147126377Y-121540720D01*
X147126377Y-121540720D02*
X147078758Y-121691196D01*
X147078758Y-121691196D02*
X147031139Y-121766434D01*
X147031139Y-121766434D02*
X146935901Y-121841672D01*
X146935901Y-121841672D02*
X146745425Y-121841672D01*
X146745425Y-121841672D02*
X146650187Y-121916911D01*
X146650187Y-121916911D02*
X146602568Y-121992149D01*
X146602568Y-121992149D02*
X146554949Y-122142625D01*
X146554949Y-122142625D02*
X146554949Y-122443577D01*
X146554949Y-122443577D02*
X146602568Y-122594053D01*
X146602568Y-122594053D02*
X146650187Y-122669292D01*
X146650187Y-122669292D02*
X146745425Y-122744530D01*
X146745425Y-122744530D02*
X146935901Y-122744530D01*
X146935901Y-122744530D02*
X147031139Y-122669292D01*
X147031139Y-122669292D02*
X147078758Y-122594053D01*
X147078758Y-122594053D02*
X147126377Y-122443577D01*
X147126377Y-122443577D02*
X147126377Y-122142625D01*
X147126377Y-122142625D02*
X147078758Y-121992149D01*
X147078758Y-121992149D02*
X147031139Y-121916911D01*
X147031139Y-121916911D02*
X146935901Y-121841672D01*
X144602568Y-125288242D02*
X144602568Y-123708242D01*
X144602568Y-123708242D02*
X144983520Y-123708242D01*
X144983520Y-123708242D02*
X145078758Y-123783480D01*
X145078758Y-123783480D02*
X145126377Y-123858718D01*
X145126377Y-123858718D02*
X145173996Y-124009194D01*
X145173996Y-124009194D02*
X145173996Y-124234908D01*
X145173996Y-124234908D02*
X145126377Y-124385384D01*
X145126377Y-124385384D02*
X145078758Y-124460623D01*
X145078758Y-124460623D02*
X144983520Y-124535861D01*
X144983520Y-124535861D02*
X144602568Y-124535861D01*
X146173996Y-125137765D02*
X146126377Y-125213004D01*
X146126377Y-125213004D02*
X145983520Y-125288242D01*
X145983520Y-125288242D02*
X145888282Y-125288242D01*
X145888282Y-125288242D02*
X145745425Y-125213004D01*
X145745425Y-125213004D02*
X145650187Y-125062527D01*
X145650187Y-125062527D02*
X145602568Y-124912051D01*
X145602568Y-124912051D02*
X145554949Y-124611099D01*
X145554949Y-124611099D02*
X145554949Y-124385384D01*
X145554949Y-124385384D02*
X145602568Y-124084432D01*
X145602568Y-124084432D02*
X145650187Y-123933956D01*
X145650187Y-123933956D02*
X145745425Y-123783480D01*
X145745425Y-123783480D02*
X145888282Y-123708242D01*
X145888282Y-123708242D02*
X145983520Y-123708242D01*
X145983520Y-123708242D02*
X146126377Y-123783480D01*
X146126377Y-123783480D02*
X146173996Y-123858718D01*
X147031139Y-123708242D02*
X146840663Y-123708242D01*
X146840663Y-123708242D02*
X146745425Y-123783480D01*
X146745425Y-123783480D02*
X146697806Y-123858718D01*
X146697806Y-123858718D02*
X146602568Y-124084432D01*
X146602568Y-124084432D02*
X146554949Y-124385384D01*
X146554949Y-124385384D02*
X146554949Y-124987289D01*
X146554949Y-124987289D02*
X146602568Y-125137765D01*
X146602568Y-125137765D02*
X146650187Y-125213004D01*
X146650187Y-125213004D02*
X146745425Y-125288242D01*
X146745425Y-125288242D02*
X146935901Y-125288242D01*
X146935901Y-125288242D02*
X147031139Y-125213004D01*
X147031139Y-125213004D02*
X147078758Y-125137765D01*
X147078758Y-125137765D02*
X147126377Y-124987289D01*
X147126377Y-124987289D02*
X147126377Y-124611099D01*
X147126377Y-124611099D02*
X147078758Y-124460623D01*
X147078758Y-124460623D02*
X147031139Y-124385384D01*
X147031139Y-124385384D02*
X146935901Y-124310146D01*
X146935901Y-124310146D02*
X146745425Y-124310146D01*
X146745425Y-124310146D02*
X146650187Y-124385384D01*
X146650187Y-124385384D02*
X146602568Y-124460623D01*
X146602568Y-124460623D02*
X146554949Y-124611099D01*
X144602568Y-127831954D02*
X144602568Y-126251954D01*
X144602568Y-126251954D02*
X144983520Y-126251954D01*
X144983520Y-126251954D02*
X145078758Y-126327192D01*
X145078758Y-126327192D02*
X145126377Y-126402430D01*
X145126377Y-126402430D02*
X145173996Y-126552906D01*
X145173996Y-126552906D02*
X145173996Y-126778620D01*
X145173996Y-126778620D02*
X145126377Y-126929096D01*
X145126377Y-126929096D02*
X145078758Y-127004335D01*
X145078758Y-127004335D02*
X144983520Y-127079573D01*
X144983520Y-127079573D02*
X144602568Y-127079573D01*
X146173996Y-127681477D02*
X146126377Y-127756716D01*
X146126377Y-127756716D02*
X145983520Y-127831954D01*
X145983520Y-127831954D02*
X145888282Y-127831954D01*
X145888282Y-127831954D02*
X145745425Y-127756716D01*
X145745425Y-127756716D02*
X145650187Y-127606239D01*
X145650187Y-127606239D02*
X145602568Y-127455763D01*
X145602568Y-127455763D02*
X145554949Y-127154811D01*
X145554949Y-127154811D02*
X145554949Y-126929096D01*
X145554949Y-126929096D02*
X145602568Y-126628144D01*
X145602568Y-126628144D02*
X145650187Y-126477668D01*
X145650187Y-126477668D02*
X145745425Y-126327192D01*
X145745425Y-126327192D02*
X145888282Y-126251954D01*
X145888282Y-126251954D02*
X145983520Y-126251954D01*
X145983520Y-126251954D02*
X146126377Y-126327192D01*
X146126377Y-126327192D02*
X146173996Y-126402430D01*
X147078758Y-126251954D02*
X146602568Y-126251954D01*
X146602568Y-126251954D02*
X146554949Y-127004335D01*
X146554949Y-127004335D02*
X146602568Y-126929096D01*
X146602568Y-126929096D02*
X146697806Y-126853858D01*
X146697806Y-126853858D02*
X146935901Y-126853858D01*
X146935901Y-126853858D02*
X147031139Y-126929096D01*
X147031139Y-126929096D02*
X147078758Y-127004335D01*
X147078758Y-127004335D02*
X147126377Y-127154811D01*
X147126377Y-127154811D02*
X147126377Y-127531001D01*
X147126377Y-127531001D02*
X147078758Y-127681477D01*
X147078758Y-127681477D02*
X147031139Y-127756716D01*
X147031139Y-127756716D02*
X146935901Y-127831954D01*
X146935901Y-127831954D02*
X146697806Y-127831954D01*
X146697806Y-127831954D02*
X146602568Y-127756716D01*
X146602568Y-127756716D02*
X146554949Y-127681477D01*
X144602568Y-130375666D02*
X144602568Y-128795666D01*
X144602568Y-128795666D02*
X144983520Y-128795666D01*
X144983520Y-128795666D02*
X145078758Y-128870904D01*
X145078758Y-128870904D02*
X145126377Y-128946142D01*
X145126377Y-128946142D02*
X145173996Y-129096618D01*
X145173996Y-129096618D02*
X145173996Y-129322332D01*
X145173996Y-129322332D02*
X145126377Y-129472808D01*
X145126377Y-129472808D02*
X145078758Y-129548047D01*
X145078758Y-129548047D02*
X144983520Y-129623285D01*
X144983520Y-129623285D02*
X144602568Y-129623285D01*
X145554949Y-129924237D02*
X146031139Y-129924237D01*
X145459711Y-130375666D02*
X145793044Y-128795666D01*
X145793044Y-128795666D02*
X146126377Y-130375666D01*
X146983520Y-130375666D02*
X146412092Y-130375666D01*
X146697806Y-130375666D02*
X146697806Y-128795666D01*
X146697806Y-128795666D02*
X146602568Y-129021380D01*
X146602568Y-129021380D02*
X146507330Y-129171856D01*
X146507330Y-129171856D02*
X146412092Y-129247094D01*
X147364473Y-128946142D02*
X147412092Y-128870904D01*
X147412092Y-128870904D02*
X147507330Y-128795666D01*
X147507330Y-128795666D02*
X147745425Y-128795666D01*
X147745425Y-128795666D02*
X147840663Y-128870904D01*
X147840663Y-128870904D02*
X147888282Y-128946142D01*
X147888282Y-128946142D02*
X147935901Y-129096618D01*
X147935901Y-129096618D02*
X147935901Y-129247094D01*
X147935901Y-129247094D02*
X147888282Y-129472808D01*
X147888282Y-129472808D02*
X147316854Y-130375666D01*
X147316854Y-130375666D02*
X147935901Y-130375666D01*
X144602568Y-132919378D02*
X144602568Y-131339378D01*
X144602568Y-131339378D02*
X144983520Y-131339378D01*
X144983520Y-131339378D02*
X145078758Y-131414616D01*
X145078758Y-131414616D02*
X145126377Y-131489854D01*
X145126377Y-131489854D02*
X145173996Y-131640330D01*
X145173996Y-131640330D02*
X145173996Y-131866044D01*
X145173996Y-131866044D02*
X145126377Y-132016520D01*
X145126377Y-132016520D02*
X145078758Y-132091759D01*
X145078758Y-132091759D02*
X144983520Y-132166997D01*
X144983520Y-132166997D02*
X144602568Y-132166997D01*
X145554949Y-132467949D02*
X146031139Y-132467949D01*
X145459711Y-132919378D02*
X145793044Y-131339378D01*
X145793044Y-131339378D02*
X146126377Y-132919378D01*
X146983520Y-132919378D02*
X146412092Y-132919378D01*
X146697806Y-132919378D02*
X146697806Y-131339378D01*
X146697806Y-131339378D02*
X146602568Y-131565092D01*
X146602568Y-131565092D02*
X146507330Y-131715568D01*
X146507330Y-131715568D02*
X146412092Y-131790806D01*
X147935901Y-132919378D02*
X147364473Y-132919378D01*
X147650187Y-132919378D02*
X147650187Y-131339378D01*
X147650187Y-131339378D02*
X147554949Y-131565092D01*
X147554949Y-131565092D02*
X147459711Y-131715568D01*
X147459711Y-131715568D02*
X147364473Y-131790806D01*
X144602568Y-135463090D02*
X144602568Y-133883090D01*
X144602568Y-133883090D02*
X144983520Y-133883090D01*
X144983520Y-133883090D02*
X145078758Y-133958328D01*
X145078758Y-133958328D02*
X145126377Y-134033566D01*
X145126377Y-134033566D02*
X145173996Y-134184042D01*
X145173996Y-134184042D02*
X145173996Y-134409756D01*
X145173996Y-134409756D02*
X145126377Y-134560232D01*
X145126377Y-134560232D02*
X145078758Y-134635471D01*
X145078758Y-134635471D02*
X144983520Y-134710709D01*
X144983520Y-134710709D02*
X144602568Y-134710709D01*
X145935901Y-134635471D02*
X146078758Y-134710709D01*
X146078758Y-134710709D02*
X146126377Y-134785947D01*
X146126377Y-134785947D02*
X146173996Y-134936423D01*
X146173996Y-134936423D02*
X146173996Y-135162137D01*
X146173996Y-135162137D02*
X146126377Y-135312613D01*
X146126377Y-135312613D02*
X146078758Y-135387852D01*
X146078758Y-135387852D02*
X145983520Y-135463090D01*
X145983520Y-135463090D02*
X145602568Y-135463090D01*
X145602568Y-135463090D02*
X145602568Y-133883090D01*
X145602568Y-133883090D02*
X145935901Y-133883090D01*
X145935901Y-133883090D02*
X146031139Y-133958328D01*
X146031139Y-133958328D02*
X146078758Y-134033566D01*
X146078758Y-134033566D02*
X146126377Y-134184042D01*
X146126377Y-134184042D02*
X146126377Y-134334518D01*
X146126377Y-134334518D02*
X146078758Y-134484994D01*
X146078758Y-134484994D02*
X146031139Y-134560232D01*
X146031139Y-134560232D02*
X145935901Y-134635471D01*
X145935901Y-134635471D02*
X145602568Y-134635471D01*
X147126377Y-135463090D02*
X146554949Y-135463090D01*
X146840663Y-135463090D02*
X146840663Y-133883090D01*
X146840663Y-133883090D02*
X146745425Y-134108804D01*
X146745425Y-134108804D02*
X146650187Y-134259280D01*
X146650187Y-134259280D02*
X146554949Y-134334518D01*
X147507330Y-134033566D02*
X147554949Y-133958328D01*
X147554949Y-133958328D02*
X147650187Y-133883090D01*
X147650187Y-133883090D02*
X147888282Y-133883090D01*
X147888282Y-133883090D02*
X147983520Y-133958328D01*
X147983520Y-133958328D02*
X148031139Y-134033566D01*
X148031139Y-134033566D02*
X148078758Y-134184042D01*
X148078758Y-134184042D02*
X148078758Y-134334518D01*
X148078758Y-134334518D02*
X148031139Y-134560232D01*
X148031139Y-134560232D02*
X147459711Y-135463090D01*
X147459711Y-135463090D02*
X148078758Y-135463090D01*
X144602568Y-138006802D02*
X144602568Y-136426802D01*
X144602568Y-136426802D02*
X144983520Y-136426802D01*
X144983520Y-136426802D02*
X145078758Y-136502040D01*
X145078758Y-136502040D02*
X145126377Y-136577278D01*
X145126377Y-136577278D02*
X145173996Y-136727754D01*
X145173996Y-136727754D02*
X145173996Y-136953468D01*
X145173996Y-136953468D02*
X145126377Y-137103944D01*
X145126377Y-137103944D02*
X145078758Y-137179183D01*
X145078758Y-137179183D02*
X144983520Y-137254421D01*
X144983520Y-137254421D02*
X144602568Y-137254421D01*
X145935901Y-137179183D02*
X146078758Y-137254421D01*
X146078758Y-137254421D02*
X146126377Y-137329659D01*
X146126377Y-137329659D02*
X146173996Y-137480135D01*
X146173996Y-137480135D02*
X146173996Y-137705849D01*
X146173996Y-137705849D02*
X146126377Y-137856325D01*
X146126377Y-137856325D02*
X146078758Y-137931564D01*
X146078758Y-137931564D02*
X145983520Y-138006802D01*
X145983520Y-138006802D02*
X145602568Y-138006802D01*
X145602568Y-138006802D02*
X145602568Y-136426802D01*
X145602568Y-136426802D02*
X145935901Y-136426802D01*
X145935901Y-136426802D02*
X146031139Y-136502040D01*
X146031139Y-136502040D02*
X146078758Y-136577278D01*
X146078758Y-136577278D02*
X146126377Y-136727754D01*
X146126377Y-136727754D02*
X146126377Y-136878230D01*
X146126377Y-136878230D02*
X146078758Y-137028706D01*
X146078758Y-137028706D02*
X146031139Y-137103944D01*
X146031139Y-137103944D02*
X145935901Y-137179183D01*
X145935901Y-137179183D02*
X145602568Y-137179183D01*
X147126377Y-138006802D02*
X146554949Y-138006802D01*
X146840663Y-138006802D02*
X146840663Y-136426802D01*
X146840663Y-136426802D02*
X146745425Y-136652516D01*
X146745425Y-136652516D02*
X146650187Y-136802992D01*
X146650187Y-136802992D02*
X146554949Y-136878230D01*
X148078758Y-138006802D02*
X147507330Y-138006802D01*
X147793044Y-138006802D02*
X147793044Y-136426802D01*
X147793044Y-136426802D02*
X147697806Y-136652516D01*
X147697806Y-136652516D02*
X147602568Y-136802992D01*
X147602568Y-136802992D02*
X147507330Y-136878230D01*
X144602568Y-140550514D02*
X144602568Y-138970514D01*
X144602568Y-138970514D02*
X144983520Y-138970514D01*
X144983520Y-138970514D02*
X145078758Y-139045752D01*
X145078758Y-139045752D02*
X145126377Y-139120990D01*
X145126377Y-139120990D02*
X145173996Y-139271466D01*
X145173996Y-139271466D02*
X145173996Y-139497180D01*
X145173996Y-139497180D02*
X145126377Y-139647656D01*
X145126377Y-139647656D02*
X145078758Y-139722895D01*
X145078758Y-139722895D02*
X144983520Y-139798133D01*
X144983520Y-139798133D02*
X144602568Y-139798133D01*
X145935901Y-139722895D02*
X146078758Y-139798133D01*
X146078758Y-139798133D02*
X146126377Y-139873371D01*
X146126377Y-139873371D02*
X146173996Y-140023847D01*
X146173996Y-140023847D02*
X146173996Y-140249561D01*
X146173996Y-140249561D02*
X146126377Y-140400037D01*
X146126377Y-140400037D02*
X146078758Y-140475276D01*
X146078758Y-140475276D02*
X145983520Y-140550514D01*
X145983520Y-140550514D02*
X145602568Y-140550514D01*
X145602568Y-140550514D02*
X145602568Y-138970514D01*
X145602568Y-138970514D02*
X145935901Y-138970514D01*
X145935901Y-138970514D02*
X146031139Y-139045752D01*
X146031139Y-139045752D02*
X146078758Y-139120990D01*
X146078758Y-139120990D02*
X146126377Y-139271466D01*
X146126377Y-139271466D02*
X146126377Y-139421942D01*
X146126377Y-139421942D02*
X146078758Y-139572418D01*
X146078758Y-139572418D02*
X146031139Y-139647656D01*
X146031139Y-139647656D02*
X145935901Y-139722895D01*
X145935901Y-139722895D02*
X145602568Y-139722895D01*
X146554949Y-139120990D02*
X146602568Y-139045752D01*
X146602568Y-139045752D02*
X146697806Y-138970514D01*
X146697806Y-138970514D02*
X146935901Y-138970514D01*
X146935901Y-138970514D02*
X147031139Y-139045752D01*
X147031139Y-139045752D02*
X147078758Y-139120990D01*
X147078758Y-139120990D02*
X147126377Y-139271466D01*
X147126377Y-139271466D02*
X147126377Y-139421942D01*
X147126377Y-139421942D02*
X147078758Y-139647656D01*
X147078758Y-139647656D02*
X146507330Y-140550514D01*
X146507330Y-140550514D02*
X147126377Y-140550514D01*
X144602568Y-143094226D02*
X144602568Y-141514226D01*
X144602568Y-141514226D02*
X144983520Y-141514226D01*
X144983520Y-141514226D02*
X145078758Y-141589464D01*
X145078758Y-141589464D02*
X145126377Y-141664702D01*
X145126377Y-141664702D02*
X145173996Y-141815178D01*
X145173996Y-141815178D02*
X145173996Y-142040892D01*
X145173996Y-142040892D02*
X145126377Y-142191368D01*
X145126377Y-142191368D02*
X145078758Y-142266607D01*
X145078758Y-142266607D02*
X144983520Y-142341845D01*
X144983520Y-142341845D02*
X144602568Y-142341845D01*
X145935901Y-142266607D02*
X146078758Y-142341845D01*
X146078758Y-142341845D02*
X146126377Y-142417083D01*
X146126377Y-142417083D02*
X146173996Y-142567559D01*
X146173996Y-142567559D02*
X146173996Y-142793273D01*
X146173996Y-142793273D02*
X146126377Y-142943749D01*
X146126377Y-142943749D02*
X146078758Y-143018988D01*
X146078758Y-143018988D02*
X145983520Y-143094226D01*
X145983520Y-143094226D02*
X145602568Y-143094226D01*
X145602568Y-143094226D02*
X145602568Y-141514226D01*
X145602568Y-141514226D02*
X145935901Y-141514226D01*
X145935901Y-141514226D02*
X146031139Y-141589464D01*
X146031139Y-141589464D02*
X146078758Y-141664702D01*
X146078758Y-141664702D02*
X146126377Y-141815178D01*
X146126377Y-141815178D02*
X146126377Y-141965654D01*
X146126377Y-141965654D02*
X146078758Y-142116130D01*
X146078758Y-142116130D02*
X146031139Y-142191368D01*
X146031139Y-142191368D02*
X145935901Y-142266607D01*
X145935901Y-142266607D02*
X145602568Y-142266607D01*
X147126377Y-143094226D02*
X146554949Y-143094226D01*
X146840663Y-143094226D02*
X146840663Y-141514226D01*
X146840663Y-141514226D02*
X146745425Y-141739940D01*
X146745425Y-141739940D02*
X146650187Y-141890416D01*
X146650187Y-141890416D02*
X146554949Y-141965654D01*
X144602568Y-145637938D02*
X144602568Y-144057938D01*
X144602568Y-144057938D02*
X144983520Y-144057938D01*
X144983520Y-144057938D02*
X145078758Y-144133176D01*
X145078758Y-144133176D02*
X145126377Y-144208414D01*
X145126377Y-144208414D02*
X145173996Y-144358890D01*
X145173996Y-144358890D02*
X145173996Y-144584604D01*
X145173996Y-144584604D02*
X145126377Y-144735080D01*
X145126377Y-144735080D02*
X145078758Y-144810319D01*
X145078758Y-144810319D02*
X144983520Y-144885557D01*
X144983520Y-144885557D02*
X144602568Y-144885557D01*
X145935901Y-144810319D02*
X146078758Y-144885557D01*
X146078758Y-144885557D02*
X146126377Y-144960795D01*
X146126377Y-144960795D02*
X146173996Y-145111271D01*
X146173996Y-145111271D02*
X146173996Y-145336985D01*
X146173996Y-145336985D02*
X146126377Y-145487461D01*
X146126377Y-145487461D02*
X146078758Y-145562700D01*
X146078758Y-145562700D02*
X145983520Y-145637938D01*
X145983520Y-145637938D02*
X145602568Y-145637938D01*
X145602568Y-145637938D02*
X145602568Y-144057938D01*
X145602568Y-144057938D02*
X145935901Y-144057938D01*
X145935901Y-144057938D02*
X146031139Y-144133176D01*
X146031139Y-144133176D02*
X146078758Y-144208414D01*
X146078758Y-144208414D02*
X146126377Y-144358890D01*
X146126377Y-144358890D02*
X146126377Y-144509366D01*
X146126377Y-144509366D02*
X146078758Y-144659842D01*
X146078758Y-144659842D02*
X146031139Y-144735080D01*
X146031139Y-144735080D02*
X145935901Y-144810319D01*
X145935901Y-144810319D02*
X145602568Y-144810319D01*
X147126377Y-145637938D02*
X146554949Y-145637938D01*
X146840663Y-145637938D02*
X146840663Y-144057938D01*
X146840663Y-144057938D02*
X146745425Y-144283652D01*
X146745425Y-144283652D02*
X146650187Y-144434128D01*
X146650187Y-144434128D02*
X146554949Y-144509366D01*
X148031139Y-144057938D02*
X147554949Y-144057938D01*
X147554949Y-144057938D02*
X147507330Y-144810319D01*
X147507330Y-144810319D02*
X147554949Y-144735080D01*
X147554949Y-144735080D02*
X147650187Y-144659842D01*
X147650187Y-144659842D02*
X147888282Y-144659842D01*
X147888282Y-144659842D02*
X147983520Y-144735080D01*
X147983520Y-144735080D02*
X148031139Y-144810319D01*
X148031139Y-144810319D02*
X148078758Y-144960795D01*
X148078758Y-144960795D02*
X148078758Y-145336985D01*
X148078758Y-145336985D02*
X148031139Y-145487461D01*
X148031139Y-145487461D02*
X147983520Y-145562700D01*
X147983520Y-145562700D02*
X147888282Y-145637938D01*
X147888282Y-145637938D02*
X147650187Y-145637938D01*
X147650187Y-145637938D02*
X147554949Y-145562700D01*
X147554949Y-145562700D02*
X147507330Y-145487461D01*
X144602568Y-148181650D02*
X144602568Y-146601650D01*
X144602568Y-146601650D02*
X144983520Y-146601650D01*
X144983520Y-146601650D02*
X145078758Y-146676888D01*
X145078758Y-146676888D02*
X145126377Y-146752126D01*
X145126377Y-146752126D02*
X145173996Y-146902602D01*
X145173996Y-146902602D02*
X145173996Y-147128316D01*
X145173996Y-147128316D02*
X145126377Y-147278792D01*
X145126377Y-147278792D02*
X145078758Y-147354031D01*
X145078758Y-147354031D02*
X144983520Y-147429269D01*
X144983520Y-147429269D02*
X144602568Y-147429269D01*
X145935901Y-147354031D02*
X146078758Y-147429269D01*
X146078758Y-147429269D02*
X146126377Y-147504507D01*
X146126377Y-147504507D02*
X146173996Y-147654983D01*
X146173996Y-147654983D02*
X146173996Y-147880697D01*
X146173996Y-147880697D02*
X146126377Y-148031173D01*
X146126377Y-148031173D02*
X146078758Y-148106412D01*
X146078758Y-148106412D02*
X145983520Y-148181650D01*
X145983520Y-148181650D02*
X145602568Y-148181650D01*
X145602568Y-148181650D02*
X145602568Y-146601650D01*
X145602568Y-146601650D02*
X145935901Y-146601650D01*
X145935901Y-146601650D02*
X146031139Y-146676888D01*
X146031139Y-146676888D02*
X146078758Y-146752126D01*
X146078758Y-146752126D02*
X146126377Y-146902602D01*
X146126377Y-146902602D02*
X146126377Y-147053078D01*
X146126377Y-147053078D02*
X146078758Y-147203554D01*
X146078758Y-147203554D02*
X146031139Y-147278792D01*
X146031139Y-147278792D02*
X145935901Y-147354031D01*
X145935901Y-147354031D02*
X145602568Y-147354031D01*
X147126377Y-148181650D02*
X146554949Y-148181650D01*
X146840663Y-148181650D02*
X146840663Y-146601650D01*
X146840663Y-146601650D02*
X146745425Y-146827364D01*
X146745425Y-146827364D02*
X146650187Y-146977840D01*
X146650187Y-146977840D02*
X146554949Y-147053078D01*
X147983520Y-147128316D02*
X147983520Y-148181650D01*
X147745425Y-146526412D02*
X147507330Y-147654983D01*
X147507330Y-147654983D02*
X148126377Y-147654983D01*
X144602568Y-150725362D02*
X144602568Y-149145362D01*
X144602568Y-149145362D02*
X144983520Y-149145362D01*
X144983520Y-149145362D02*
X145078758Y-149220600D01*
X145078758Y-149220600D02*
X145126377Y-149295838D01*
X145126377Y-149295838D02*
X145173996Y-149446314D01*
X145173996Y-149446314D02*
X145173996Y-149672028D01*
X145173996Y-149672028D02*
X145126377Y-149822504D01*
X145126377Y-149822504D02*
X145078758Y-149897743D01*
X145078758Y-149897743D02*
X144983520Y-149972981D01*
X144983520Y-149972981D02*
X144602568Y-149972981D01*
X145935901Y-149897743D02*
X146078758Y-149972981D01*
X146078758Y-149972981D02*
X146126377Y-150048219D01*
X146126377Y-150048219D02*
X146173996Y-150198695D01*
X146173996Y-150198695D02*
X146173996Y-150424409D01*
X146173996Y-150424409D02*
X146126377Y-150574885D01*
X146126377Y-150574885D02*
X146078758Y-150650124D01*
X146078758Y-150650124D02*
X145983520Y-150725362D01*
X145983520Y-150725362D02*
X145602568Y-150725362D01*
X145602568Y-150725362D02*
X145602568Y-149145362D01*
X145602568Y-149145362D02*
X145935901Y-149145362D01*
X145935901Y-149145362D02*
X146031139Y-149220600D01*
X146031139Y-149220600D02*
X146078758Y-149295838D01*
X146078758Y-149295838D02*
X146126377Y-149446314D01*
X146126377Y-149446314D02*
X146126377Y-149596790D01*
X146126377Y-149596790D02*
X146078758Y-149747266D01*
X146078758Y-149747266D02*
X146031139Y-149822504D01*
X146031139Y-149822504D02*
X145935901Y-149897743D01*
X145935901Y-149897743D02*
X145602568Y-149897743D01*
X147126377Y-150725362D02*
X146554949Y-150725362D01*
X146840663Y-150725362D02*
X146840663Y-149145362D01*
X146840663Y-149145362D02*
X146745425Y-149371076D01*
X146745425Y-149371076D02*
X146650187Y-149521552D01*
X146650187Y-149521552D02*
X146554949Y-149596790D01*
X147459711Y-149145362D02*
X148078758Y-149145362D01*
X148078758Y-149145362D02*
X147745425Y-149747266D01*
X147745425Y-149747266D02*
X147888282Y-149747266D01*
X147888282Y-149747266D02*
X147983520Y-149822504D01*
X147983520Y-149822504D02*
X148031139Y-149897743D01*
X148031139Y-149897743D02*
X148078758Y-150048219D01*
X148078758Y-150048219D02*
X148078758Y-150424409D01*
X148078758Y-150424409D02*
X148031139Y-150574885D01*
X148031139Y-150574885D02*
X147983520Y-150650124D01*
X147983520Y-150650124D02*
X147888282Y-150725362D01*
X147888282Y-150725362D02*
X147602568Y-150725362D01*
X147602568Y-150725362D02*
X147507330Y-150650124D01*
X147507330Y-150650124D02*
X147459711Y-150574885D01*
X144554949Y-152817645D02*
X145031139Y-152817645D01*
X144459711Y-153269074D02*
X144793044Y-151689074D01*
X144793044Y-151689074D02*
X145126377Y-153269074D01*
X145983520Y-151764312D02*
X145888282Y-151689074D01*
X145888282Y-151689074D02*
X145745425Y-151689074D01*
X145745425Y-151689074D02*
X145602568Y-151764312D01*
X145602568Y-151764312D02*
X145507330Y-151914788D01*
X145507330Y-151914788D02*
X145459711Y-152065264D01*
X145459711Y-152065264D02*
X145412092Y-152366216D01*
X145412092Y-152366216D02*
X145412092Y-152591931D01*
X145412092Y-152591931D02*
X145459711Y-152892883D01*
X145459711Y-152892883D02*
X145507330Y-153043359D01*
X145507330Y-153043359D02*
X145602568Y-153193836D01*
X145602568Y-153193836D02*
X145745425Y-153269074D01*
X145745425Y-153269074D02*
X145840663Y-153269074D01*
X145840663Y-153269074D02*
X145983520Y-153193836D01*
X145983520Y-153193836D02*
X146031139Y-153118597D01*
X146031139Y-153118597D02*
X146031139Y-152591931D01*
X146031139Y-152591931D02*
X145840663Y-152591931D01*
X146459711Y-153269074D02*
X146459711Y-151689074D01*
X146459711Y-151689074D02*
X147031139Y-153269074D01*
X147031139Y-153269074D02*
X147031139Y-151689074D01*
X147507330Y-153269074D02*
X147507330Y-151689074D01*
X147507330Y-151689074D02*
X147745425Y-151689074D01*
X147745425Y-151689074D02*
X147888282Y-151764312D01*
X147888282Y-151764312D02*
X147983520Y-151914788D01*
X147983520Y-151914788D02*
X148031139Y-152065264D01*
X148031139Y-152065264D02*
X148078758Y-152366216D01*
X148078758Y-152366216D02*
X148078758Y-152591931D01*
X148078758Y-152591931D02*
X148031139Y-152892883D01*
X148031139Y-152892883D02*
X147983520Y-153043359D01*
X147983520Y-153043359D02*
X147888282Y-153193836D01*
X147888282Y-153193836D02*
X147745425Y-153269074D01*
X147745425Y-153269074D02*
X147507330Y-153269074D01*
X144602568Y-155812786D02*
X144602568Y-154232786D01*
X144602568Y-154232786D02*
X144983520Y-154232786D01*
X144983520Y-154232786D02*
X145078758Y-154308024D01*
X145078758Y-154308024D02*
X145126377Y-154383262D01*
X145126377Y-154383262D02*
X145173996Y-154533738D01*
X145173996Y-154533738D02*
X145173996Y-154759452D01*
X145173996Y-154759452D02*
X145126377Y-154909928D01*
X145126377Y-154909928D02*
X145078758Y-154985167D01*
X145078758Y-154985167D02*
X144983520Y-155060405D01*
X144983520Y-155060405D02*
X144602568Y-155060405D01*
X146173996Y-155662309D02*
X146126377Y-155737548D01*
X146126377Y-155737548D02*
X145983520Y-155812786D01*
X145983520Y-155812786D02*
X145888282Y-155812786D01*
X145888282Y-155812786D02*
X145745425Y-155737548D01*
X145745425Y-155737548D02*
X145650187Y-155587071D01*
X145650187Y-155587071D02*
X145602568Y-155436595D01*
X145602568Y-155436595D02*
X145554949Y-155135643D01*
X145554949Y-155135643D02*
X145554949Y-154909928D01*
X145554949Y-154909928D02*
X145602568Y-154608976D01*
X145602568Y-154608976D02*
X145650187Y-154458500D01*
X145650187Y-154458500D02*
X145745425Y-154308024D01*
X145745425Y-154308024D02*
X145888282Y-154232786D01*
X145888282Y-154232786D02*
X145983520Y-154232786D01*
X145983520Y-154232786D02*
X146126377Y-154308024D01*
X146126377Y-154308024D02*
X146173996Y-154383262D01*
X147031139Y-154759452D02*
X147031139Y-155812786D01*
X146793044Y-154157548D02*
X146554949Y-155286119D01*
X146554949Y-155286119D02*
X147173996Y-155286119D01*
X144602568Y-157754593D02*
X145364473Y-157754593D01*
X144983520Y-158356498D02*
X144983520Y-157152688D01*
X146316853Y-156776498D02*
X145840663Y-156776498D01*
X145840663Y-156776498D02*
X145793044Y-157528879D01*
X145793044Y-157528879D02*
X145840663Y-157453640D01*
X145840663Y-157453640D02*
X145935901Y-157378402D01*
X145935901Y-157378402D02*
X146173996Y-157378402D01*
X146173996Y-157378402D02*
X146269234Y-157453640D01*
X146269234Y-157453640D02*
X146316853Y-157528879D01*
X146316853Y-157528879D02*
X146364472Y-157679355D01*
X146364472Y-157679355D02*
X146364472Y-158055545D01*
X146364472Y-158055545D02*
X146316853Y-158206021D01*
X146316853Y-158206021D02*
X146269234Y-158281260D01*
X146269234Y-158281260D02*
X146173996Y-158356498D01*
X146173996Y-158356498D02*
X145935901Y-158356498D01*
X145935901Y-158356498D02*
X145840663Y-158281260D01*
X145840663Y-158281260D02*
X145793044Y-158206021D01*
X146650187Y-156776498D02*
X146983520Y-158356498D01*
X146983520Y-158356498D02*
X147316853Y-156776498D01*
X144602568Y-160298305D02*
X145364473Y-160298305D01*
X144983520Y-160900210D02*
X144983520Y-159696400D01*
X145745425Y-159320210D02*
X146364472Y-159320210D01*
X146364472Y-159320210D02*
X146031139Y-159922114D01*
X146031139Y-159922114D02*
X146173996Y-159922114D01*
X146173996Y-159922114D02*
X146269234Y-159997352D01*
X146269234Y-159997352D02*
X146316853Y-160072591D01*
X146316853Y-160072591D02*
X146364472Y-160223067D01*
X146364472Y-160223067D02*
X146364472Y-160599257D01*
X146364472Y-160599257D02*
X146316853Y-160749733D01*
X146316853Y-160749733D02*
X146269234Y-160824972D01*
X146269234Y-160824972D02*
X146173996Y-160900210D01*
X146173996Y-160900210D02*
X145888282Y-160900210D01*
X145888282Y-160900210D02*
X145793044Y-160824972D01*
X145793044Y-160824972D02*
X145745425Y-160749733D01*
X146650187Y-159320210D02*
X146983520Y-160900210D01*
X146983520Y-160900210D02*
X147316853Y-159320210D01*
X147554949Y-159320210D02*
X148173996Y-159320210D01*
X148173996Y-159320210D02*
X147840663Y-159922114D01*
X147840663Y-159922114D02*
X147983520Y-159922114D01*
X147983520Y-159922114D02*
X148078758Y-159997352D01*
X148078758Y-159997352D02*
X148126377Y-160072591D01*
X148126377Y-160072591D02*
X148173996Y-160223067D01*
X148173996Y-160223067D02*
X148173996Y-160599257D01*
X148173996Y-160599257D02*
X148126377Y-160749733D01*
X148126377Y-160749733D02*
X148078758Y-160824972D01*
X148078758Y-160824972D02*
X147983520Y-160900210D01*
X147983520Y-160900210D02*
X147697806Y-160900210D01*
X147697806Y-160900210D02*
X147602568Y-160824972D01*
X147602568Y-160824972D02*
X147554949Y-160749733D01*
X145126377Y-161939160D02*
X145031139Y-161863922D01*
X145031139Y-161863922D02*
X144888282Y-161863922D01*
X144888282Y-161863922D02*
X144745425Y-161939160D01*
X144745425Y-161939160D02*
X144650187Y-162089636D01*
X144650187Y-162089636D02*
X144602568Y-162240112D01*
X144602568Y-162240112D02*
X144554949Y-162541064D01*
X144554949Y-162541064D02*
X144554949Y-162766779D01*
X144554949Y-162766779D02*
X144602568Y-163067731D01*
X144602568Y-163067731D02*
X144650187Y-163218207D01*
X144650187Y-163218207D02*
X144745425Y-163368684D01*
X144745425Y-163368684D02*
X144888282Y-163443922D01*
X144888282Y-163443922D02*
X144983520Y-163443922D01*
X144983520Y-163443922D02*
X145126377Y-163368684D01*
X145126377Y-163368684D02*
X145173996Y-163293445D01*
X145173996Y-163293445D02*
X145173996Y-162766779D01*
X145173996Y-162766779D02*
X144983520Y-162766779D01*
X145602568Y-163443922D02*
X145602568Y-161863922D01*
X145602568Y-161863922D02*
X146173996Y-163443922D01*
X146173996Y-163443922D02*
X146173996Y-161863922D01*
X146650187Y-163443922D02*
X146650187Y-161863922D01*
X146650187Y-161863922D02*
X146888282Y-161863922D01*
X146888282Y-161863922D02*
X147031139Y-161939160D01*
X147031139Y-161939160D02*
X147126377Y-162089636D01*
X147126377Y-162089636D02*
X147173996Y-162240112D01*
X147173996Y-162240112D02*
X147221615Y-162541064D01*
X147221615Y-162541064D02*
X147221615Y-162766779D01*
X147221615Y-162766779D02*
X147173996Y-163067731D01*
X147173996Y-163067731D02*
X147126377Y-163218207D01*
X147126377Y-163218207D02*
X147031139Y-163368684D01*
X147031139Y-163368684D02*
X146888282Y-163443922D01*
X146888282Y-163443922D02*
X146650187Y-163443922D01*
X145126377Y-164482872D02*
X145031139Y-164407634D01*
X145031139Y-164407634D02*
X144888282Y-164407634D01*
X144888282Y-164407634D02*
X144745425Y-164482872D01*
X144745425Y-164482872D02*
X144650187Y-164633348D01*
X144650187Y-164633348D02*
X144602568Y-164783824D01*
X144602568Y-164783824D02*
X144554949Y-165084776D01*
X144554949Y-165084776D02*
X144554949Y-165310491D01*
X144554949Y-165310491D02*
X144602568Y-165611443D01*
X144602568Y-165611443D02*
X144650187Y-165761919D01*
X144650187Y-165761919D02*
X144745425Y-165912396D01*
X144745425Y-165912396D02*
X144888282Y-165987634D01*
X144888282Y-165987634D02*
X144983520Y-165987634D01*
X144983520Y-165987634D02*
X145126377Y-165912396D01*
X145126377Y-165912396D02*
X145173996Y-165837157D01*
X145173996Y-165837157D02*
X145173996Y-165310491D01*
X145173996Y-165310491D02*
X144983520Y-165310491D01*
X145602568Y-165987634D02*
X145602568Y-164407634D01*
X145602568Y-164407634D02*
X146173996Y-165987634D01*
X146173996Y-165987634D02*
X146173996Y-164407634D01*
X146650187Y-165987634D02*
X146650187Y-164407634D01*
X146650187Y-164407634D02*
X146888282Y-164407634D01*
X146888282Y-164407634D02*
X147031139Y-164482872D01*
X147031139Y-164482872D02*
X147126377Y-164633348D01*
X147126377Y-164633348D02*
X147173996Y-164783824D01*
X147173996Y-164783824D02*
X147221615Y-165084776D01*
X147221615Y-165084776D02*
X147221615Y-165310491D01*
X147221615Y-165310491D02*
X147173996Y-165611443D01*
X147173996Y-165611443D02*
X147126377Y-165761919D01*
X147126377Y-165761919D02*
X147031139Y-165912396D01*
X147031139Y-165912396D02*
X146888282Y-165987634D01*
X146888282Y-165987634D02*
X146650187Y-165987634D01*
X145126377Y-167026584D02*
X145031139Y-166951346D01*
X145031139Y-166951346D02*
X144888282Y-166951346D01*
X144888282Y-166951346D02*
X144745425Y-167026584D01*
X144745425Y-167026584D02*
X144650187Y-167177060D01*
X144650187Y-167177060D02*
X144602568Y-167327536D01*
X144602568Y-167327536D02*
X144554949Y-167628488D01*
X144554949Y-167628488D02*
X144554949Y-167854203D01*
X144554949Y-167854203D02*
X144602568Y-168155155D01*
X144602568Y-168155155D02*
X144650187Y-168305631D01*
X144650187Y-168305631D02*
X144745425Y-168456108D01*
X144745425Y-168456108D02*
X144888282Y-168531346D01*
X144888282Y-168531346D02*
X144983520Y-168531346D01*
X144983520Y-168531346D02*
X145126377Y-168456108D01*
X145126377Y-168456108D02*
X145173996Y-168380869D01*
X145173996Y-168380869D02*
X145173996Y-167854203D01*
X145173996Y-167854203D02*
X144983520Y-167854203D01*
X145602568Y-168531346D02*
X145602568Y-166951346D01*
X145602568Y-166951346D02*
X146173996Y-168531346D01*
X146173996Y-168531346D02*
X146173996Y-166951346D01*
X146650187Y-168531346D02*
X146650187Y-166951346D01*
X146650187Y-166951346D02*
X146888282Y-166951346D01*
X146888282Y-166951346D02*
X147031139Y-167026584D01*
X147031139Y-167026584D02*
X147126377Y-167177060D01*
X147126377Y-167177060D02*
X147173996Y-167327536D01*
X147173996Y-167327536D02*
X147221615Y-167628488D01*
X147221615Y-167628488D02*
X147221615Y-167854203D01*
X147221615Y-167854203D02*
X147173996Y-168155155D01*
X147173996Y-168155155D02*
X147126377Y-168305631D01*
X147126377Y-168305631D02*
X147031139Y-168456108D01*
X147031139Y-168456108D02*
X146888282Y-168531346D01*
X146888282Y-168531346D02*
X146650187Y-168531346D01*
X110302568Y-112637106D02*
X110302568Y-111057106D01*
X110302568Y-111057106D02*
X110683520Y-111057106D01*
X110683520Y-111057106D02*
X110778758Y-111132344D01*
X110778758Y-111132344D02*
X110826377Y-111207582D01*
X110826377Y-111207582D02*
X110873996Y-111358058D01*
X110873996Y-111358058D02*
X110873996Y-111583772D01*
X110873996Y-111583772D02*
X110826377Y-111734248D01*
X110826377Y-111734248D02*
X110778758Y-111809487D01*
X110778758Y-111809487D02*
X110683520Y-111884725D01*
X110683520Y-111884725D02*
X110302568Y-111884725D01*
X111254949Y-112185677D02*
X111731139Y-112185677D01*
X111159711Y-112637106D02*
X111493044Y-111057106D01*
X111493044Y-111057106D02*
X111826377Y-112637106D01*
X112064473Y-111057106D02*
X112683520Y-111057106D01*
X112683520Y-111057106D02*
X112350187Y-111659010D01*
X112350187Y-111659010D02*
X112493044Y-111659010D01*
X112493044Y-111659010D02*
X112588282Y-111734248D01*
X112588282Y-111734248D02*
X112635901Y-111809487D01*
X112635901Y-111809487D02*
X112683520Y-111959963D01*
X112683520Y-111959963D02*
X112683520Y-112336153D01*
X112683520Y-112336153D02*
X112635901Y-112486629D01*
X112635901Y-112486629D02*
X112588282Y-112561868D01*
X112588282Y-112561868D02*
X112493044Y-112637106D01*
X112493044Y-112637106D02*
X112207330Y-112637106D01*
X112207330Y-112637106D02*
X112112092Y-112561868D01*
X112112092Y-112561868D02*
X112064473Y-112486629D01*
X110302568Y-115180818D02*
X110302568Y-113600818D01*
X110302568Y-113600818D02*
X110683520Y-113600818D01*
X110683520Y-113600818D02*
X110778758Y-113676056D01*
X110778758Y-113676056D02*
X110826377Y-113751294D01*
X110826377Y-113751294D02*
X110873996Y-113901770D01*
X110873996Y-113901770D02*
X110873996Y-114127484D01*
X110873996Y-114127484D02*
X110826377Y-114277960D01*
X110826377Y-114277960D02*
X110778758Y-114353199D01*
X110778758Y-114353199D02*
X110683520Y-114428437D01*
X110683520Y-114428437D02*
X110302568Y-114428437D01*
X111254949Y-114729389D02*
X111731139Y-114729389D01*
X111159711Y-115180818D02*
X111493044Y-113600818D01*
X111493044Y-113600818D02*
X111826377Y-115180818D01*
X112112092Y-113751294D02*
X112159711Y-113676056D01*
X112159711Y-113676056D02*
X112254949Y-113600818D01*
X112254949Y-113600818D02*
X112493044Y-113600818D01*
X112493044Y-113600818D02*
X112588282Y-113676056D01*
X112588282Y-113676056D02*
X112635901Y-113751294D01*
X112635901Y-113751294D02*
X112683520Y-113901770D01*
X112683520Y-113901770D02*
X112683520Y-114052246D01*
X112683520Y-114052246D02*
X112635901Y-114277960D01*
X112635901Y-114277960D02*
X112064473Y-115180818D01*
X112064473Y-115180818D02*
X112683520Y-115180818D01*
X110302568Y-117724530D02*
X110302568Y-116144530D01*
X110302568Y-116144530D02*
X110683520Y-116144530D01*
X110683520Y-116144530D02*
X110778758Y-116219768D01*
X110778758Y-116219768D02*
X110826377Y-116295006D01*
X110826377Y-116295006D02*
X110873996Y-116445482D01*
X110873996Y-116445482D02*
X110873996Y-116671196D01*
X110873996Y-116671196D02*
X110826377Y-116821672D01*
X110826377Y-116821672D02*
X110778758Y-116896911D01*
X110778758Y-116896911D02*
X110683520Y-116972149D01*
X110683520Y-116972149D02*
X110302568Y-116972149D01*
X111254949Y-117273101D02*
X111731139Y-117273101D01*
X111159711Y-117724530D02*
X111493044Y-116144530D01*
X111493044Y-116144530D02*
X111826377Y-117724530D01*
X112683520Y-117724530D02*
X112112092Y-117724530D01*
X112397806Y-117724530D02*
X112397806Y-116144530D01*
X112397806Y-116144530D02*
X112302568Y-116370244D01*
X112302568Y-116370244D02*
X112207330Y-116520720D01*
X112207330Y-116520720D02*
X112112092Y-116595958D01*
X113302568Y-116144530D02*
X113397806Y-116144530D01*
X113397806Y-116144530D02*
X113493044Y-116219768D01*
X113493044Y-116219768D02*
X113540663Y-116295006D01*
X113540663Y-116295006D02*
X113588282Y-116445482D01*
X113588282Y-116445482D02*
X113635901Y-116746434D01*
X113635901Y-116746434D02*
X113635901Y-117122625D01*
X113635901Y-117122625D02*
X113588282Y-117423577D01*
X113588282Y-117423577D02*
X113540663Y-117574053D01*
X113540663Y-117574053D02*
X113493044Y-117649292D01*
X113493044Y-117649292D02*
X113397806Y-117724530D01*
X113397806Y-117724530D02*
X113302568Y-117724530D01*
X113302568Y-117724530D02*
X113207330Y-117649292D01*
X113207330Y-117649292D02*
X113159711Y-117574053D01*
X113159711Y-117574053D02*
X113112092Y-117423577D01*
X113112092Y-117423577D02*
X113064473Y-117122625D01*
X113064473Y-117122625D02*
X113064473Y-116746434D01*
X113064473Y-116746434D02*
X113112092Y-116445482D01*
X113112092Y-116445482D02*
X113159711Y-116295006D01*
X113159711Y-116295006D02*
X113207330Y-116219768D01*
X113207330Y-116219768D02*
X113302568Y-116144530D01*
X110302568Y-120268242D02*
X110302568Y-118688242D01*
X110302568Y-118688242D02*
X110683520Y-118688242D01*
X110683520Y-118688242D02*
X110778758Y-118763480D01*
X110778758Y-118763480D02*
X110826377Y-118838718D01*
X110826377Y-118838718D02*
X110873996Y-118989194D01*
X110873996Y-118989194D02*
X110873996Y-119214908D01*
X110873996Y-119214908D02*
X110826377Y-119365384D01*
X110826377Y-119365384D02*
X110778758Y-119440623D01*
X110778758Y-119440623D02*
X110683520Y-119515861D01*
X110683520Y-119515861D02*
X110302568Y-119515861D01*
X111635901Y-119440623D02*
X111778758Y-119515861D01*
X111778758Y-119515861D02*
X111826377Y-119591099D01*
X111826377Y-119591099D02*
X111873996Y-119741575D01*
X111873996Y-119741575D02*
X111873996Y-119967289D01*
X111873996Y-119967289D02*
X111826377Y-120117765D01*
X111826377Y-120117765D02*
X111778758Y-120193004D01*
X111778758Y-120193004D02*
X111683520Y-120268242D01*
X111683520Y-120268242D02*
X111302568Y-120268242D01*
X111302568Y-120268242D02*
X111302568Y-118688242D01*
X111302568Y-118688242D02*
X111635901Y-118688242D01*
X111635901Y-118688242D02*
X111731139Y-118763480D01*
X111731139Y-118763480D02*
X111778758Y-118838718D01*
X111778758Y-118838718D02*
X111826377Y-118989194D01*
X111826377Y-118989194D02*
X111826377Y-119139670D01*
X111826377Y-119139670D02*
X111778758Y-119290146D01*
X111778758Y-119290146D02*
X111731139Y-119365384D01*
X111731139Y-119365384D02*
X111635901Y-119440623D01*
X111635901Y-119440623D02*
X111302568Y-119440623D01*
X112207330Y-118688242D02*
X112826377Y-118688242D01*
X112826377Y-118688242D02*
X112493044Y-119290146D01*
X112493044Y-119290146D02*
X112635901Y-119290146D01*
X112635901Y-119290146D02*
X112731139Y-119365384D01*
X112731139Y-119365384D02*
X112778758Y-119440623D01*
X112778758Y-119440623D02*
X112826377Y-119591099D01*
X112826377Y-119591099D02*
X112826377Y-119967289D01*
X112826377Y-119967289D02*
X112778758Y-120117765D01*
X112778758Y-120117765D02*
X112731139Y-120193004D01*
X112731139Y-120193004D02*
X112635901Y-120268242D01*
X112635901Y-120268242D02*
X112350187Y-120268242D01*
X112350187Y-120268242D02*
X112254949Y-120193004D01*
X112254949Y-120193004D02*
X112207330Y-120117765D01*
X110302568Y-122811954D02*
X110302568Y-121231954D01*
X110302568Y-121231954D02*
X110683520Y-121231954D01*
X110683520Y-121231954D02*
X110778758Y-121307192D01*
X110778758Y-121307192D02*
X110826377Y-121382430D01*
X110826377Y-121382430D02*
X110873996Y-121532906D01*
X110873996Y-121532906D02*
X110873996Y-121758620D01*
X110873996Y-121758620D02*
X110826377Y-121909096D01*
X110826377Y-121909096D02*
X110778758Y-121984335D01*
X110778758Y-121984335D02*
X110683520Y-122059573D01*
X110683520Y-122059573D02*
X110302568Y-122059573D01*
X111635901Y-121984335D02*
X111778758Y-122059573D01*
X111778758Y-122059573D02*
X111826377Y-122134811D01*
X111826377Y-122134811D02*
X111873996Y-122285287D01*
X111873996Y-122285287D02*
X111873996Y-122511001D01*
X111873996Y-122511001D02*
X111826377Y-122661477D01*
X111826377Y-122661477D02*
X111778758Y-122736716D01*
X111778758Y-122736716D02*
X111683520Y-122811954D01*
X111683520Y-122811954D02*
X111302568Y-122811954D01*
X111302568Y-122811954D02*
X111302568Y-121231954D01*
X111302568Y-121231954D02*
X111635901Y-121231954D01*
X111635901Y-121231954D02*
X111731139Y-121307192D01*
X111731139Y-121307192D02*
X111778758Y-121382430D01*
X111778758Y-121382430D02*
X111826377Y-121532906D01*
X111826377Y-121532906D02*
X111826377Y-121683382D01*
X111826377Y-121683382D02*
X111778758Y-121833858D01*
X111778758Y-121833858D02*
X111731139Y-121909096D01*
X111731139Y-121909096D02*
X111635901Y-121984335D01*
X111635901Y-121984335D02*
X111302568Y-121984335D01*
X112778758Y-121231954D02*
X112302568Y-121231954D01*
X112302568Y-121231954D02*
X112254949Y-121984335D01*
X112254949Y-121984335D02*
X112302568Y-121909096D01*
X112302568Y-121909096D02*
X112397806Y-121833858D01*
X112397806Y-121833858D02*
X112635901Y-121833858D01*
X112635901Y-121833858D02*
X112731139Y-121909096D01*
X112731139Y-121909096D02*
X112778758Y-121984335D01*
X112778758Y-121984335D02*
X112826377Y-122134811D01*
X112826377Y-122134811D02*
X112826377Y-122511001D01*
X112826377Y-122511001D02*
X112778758Y-122661477D01*
X112778758Y-122661477D02*
X112731139Y-122736716D01*
X112731139Y-122736716D02*
X112635901Y-122811954D01*
X112635901Y-122811954D02*
X112397806Y-122811954D01*
X112397806Y-122811954D02*
X112302568Y-122736716D01*
X112302568Y-122736716D02*
X112254949Y-122661477D01*
X110302568Y-125355666D02*
X110302568Y-123775666D01*
X110302568Y-123775666D02*
X110683520Y-123775666D01*
X110683520Y-123775666D02*
X110778758Y-123850904D01*
X110778758Y-123850904D02*
X110826377Y-123926142D01*
X110826377Y-123926142D02*
X110873996Y-124076618D01*
X110873996Y-124076618D02*
X110873996Y-124302332D01*
X110873996Y-124302332D02*
X110826377Y-124452808D01*
X110826377Y-124452808D02*
X110778758Y-124528047D01*
X110778758Y-124528047D02*
X110683520Y-124603285D01*
X110683520Y-124603285D02*
X110302568Y-124603285D01*
X111635901Y-124528047D02*
X111778758Y-124603285D01*
X111778758Y-124603285D02*
X111826377Y-124678523D01*
X111826377Y-124678523D02*
X111873996Y-124828999D01*
X111873996Y-124828999D02*
X111873996Y-125054713D01*
X111873996Y-125054713D02*
X111826377Y-125205189D01*
X111826377Y-125205189D02*
X111778758Y-125280428D01*
X111778758Y-125280428D02*
X111683520Y-125355666D01*
X111683520Y-125355666D02*
X111302568Y-125355666D01*
X111302568Y-125355666D02*
X111302568Y-123775666D01*
X111302568Y-123775666D02*
X111635901Y-123775666D01*
X111635901Y-123775666D02*
X111731139Y-123850904D01*
X111731139Y-123850904D02*
X111778758Y-123926142D01*
X111778758Y-123926142D02*
X111826377Y-124076618D01*
X111826377Y-124076618D02*
X111826377Y-124227094D01*
X111826377Y-124227094D02*
X111778758Y-124377570D01*
X111778758Y-124377570D02*
X111731139Y-124452808D01*
X111731139Y-124452808D02*
X111635901Y-124528047D01*
X111635901Y-124528047D02*
X111302568Y-124528047D01*
X112731139Y-124302332D02*
X112731139Y-125355666D01*
X112493044Y-123700428D02*
X112254949Y-124828999D01*
X112254949Y-124828999D02*
X112873996Y-124828999D01*
X110302568Y-127899378D02*
X110302568Y-126319378D01*
X110302568Y-126319378D02*
X110683520Y-126319378D01*
X110683520Y-126319378D02*
X110778758Y-126394616D01*
X110778758Y-126394616D02*
X110826377Y-126469854D01*
X110826377Y-126469854D02*
X110873996Y-126620330D01*
X110873996Y-126620330D02*
X110873996Y-126846044D01*
X110873996Y-126846044D02*
X110826377Y-126996520D01*
X110826377Y-126996520D02*
X110778758Y-127071759D01*
X110778758Y-127071759D02*
X110683520Y-127146997D01*
X110683520Y-127146997D02*
X110302568Y-127146997D01*
X111635901Y-127071759D02*
X111778758Y-127146997D01*
X111778758Y-127146997D02*
X111826377Y-127222235D01*
X111826377Y-127222235D02*
X111873996Y-127372711D01*
X111873996Y-127372711D02*
X111873996Y-127598425D01*
X111873996Y-127598425D02*
X111826377Y-127748901D01*
X111826377Y-127748901D02*
X111778758Y-127824140D01*
X111778758Y-127824140D02*
X111683520Y-127899378D01*
X111683520Y-127899378D02*
X111302568Y-127899378D01*
X111302568Y-127899378D02*
X111302568Y-126319378D01*
X111302568Y-126319378D02*
X111635901Y-126319378D01*
X111635901Y-126319378D02*
X111731139Y-126394616D01*
X111731139Y-126394616D02*
X111778758Y-126469854D01*
X111778758Y-126469854D02*
X111826377Y-126620330D01*
X111826377Y-126620330D02*
X111826377Y-126770806D01*
X111826377Y-126770806D02*
X111778758Y-126921282D01*
X111778758Y-126921282D02*
X111731139Y-126996520D01*
X111731139Y-126996520D02*
X111635901Y-127071759D01*
X111635901Y-127071759D02*
X111302568Y-127071759D01*
X112826377Y-127899378D02*
X112254949Y-127899378D01*
X112540663Y-127899378D02*
X112540663Y-126319378D01*
X112540663Y-126319378D02*
X112445425Y-126545092D01*
X112445425Y-126545092D02*
X112350187Y-126695568D01*
X112350187Y-126695568D02*
X112254949Y-126770806D01*
X113445425Y-126319378D02*
X113540663Y-126319378D01*
X113540663Y-126319378D02*
X113635901Y-126394616D01*
X113635901Y-126394616D02*
X113683520Y-126469854D01*
X113683520Y-126469854D02*
X113731139Y-126620330D01*
X113731139Y-126620330D02*
X113778758Y-126921282D01*
X113778758Y-126921282D02*
X113778758Y-127297473D01*
X113778758Y-127297473D02*
X113731139Y-127598425D01*
X113731139Y-127598425D02*
X113683520Y-127748901D01*
X113683520Y-127748901D02*
X113635901Y-127824140D01*
X113635901Y-127824140D02*
X113540663Y-127899378D01*
X113540663Y-127899378D02*
X113445425Y-127899378D01*
X113445425Y-127899378D02*
X113350187Y-127824140D01*
X113350187Y-127824140D02*
X113302568Y-127748901D01*
X113302568Y-127748901D02*
X113254949Y-127598425D01*
X113254949Y-127598425D02*
X113207330Y-127297473D01*
X113207330Y-127297473D02*
X113207330Y-126921282D01*
X113207330Y-126921282D02*
X113254949Y-126620330D01*
X113254949Y-126620330D02*
X113302568Y-126469854D01*
X113302568Y-126469854D02*
X113350187Y-126394616D01*
X113350187Y-126394616D02*
X113445425Y-126319378D01*
X110302568Y-130443090D02*
X110302568Y-128863090D01*
X110302568Y-128863090D02*
X110683520Y-128863090D01*
X110683520Y-128863090D02*
X110778758Y-128938328D01*
X110778758Y-128938328D02*
X110826377Y-129013566D01*
X110826377Y-129013566D02*
X110873996Y-129164042D01*
X110873996Y-129164042D02*
X110873996Y-129389756D01*
X110873996Y-129389756D02*
X110826377Y-129540232D01*
X110826377Y-129540232D02*
X110778758Y-129615471D01*
X110778758Y-129615471D02*
X110683520Y-129690709D01*
X110683520Y-129690709D02*
X110302568Y-129690709D01*
X111254949Y-129991661D02*
X111731139Y-129991661D01*
X111159711Y-130443090D02*
X111493044Y-128863090D01*
X111493044Y-128863090D02*
X111826377Y-130443090D01*
X112302568Y-129540232D02*
X112207330Y-129464994D01*
X112207330Y-129464994D02*
X112159711Y-129389756D01*
X112159711Y-129389756D02*
X112112092Y-129239280D01*
X112112092Y-129239280D02*
X112112092Y-129164042D01*
X112112092Y-129164042D02*
X112159711Y-129013566D01*
X112159711Y-129013566D02*
X112207330Y-128938328D01*
X112207330Y-128938328D02*
X112302568Y-128863090D01*
X112302568Y-128863090D02*
X112493044Y-128863090D01*
X112493044Y-128863090D02*
X112588282Y-128938328D01*
X112588282Y-128938328D02*
X112635901Y-129013566D01*
X112635901Y-129013566D02*
X112683520Y-129164042D01*
X112683520Y-129164042D02*
X112683520Y-129239280D01*
X112683520Y-129239280D02*
X112635901Y-129389756D01*
X112635901Y-129389756D02*
X112588282Y-129464994D01*
X112588282Y-129464994D02*
X112493044Y-129540232D01*
X112493044Y-129540232D02*
X112302568Y-129540232D01*
X112302568Y-129540232D02*
X112207330Y-129615471D01*
X112207330Y-129615471D02*
X112159711Y-129690709D01*
X112159711Y-129690709D02*
X112112092Y-129841185D01*
X112112092Y-129841185D02*
X112112092Y-130142137D01*
X112112092Y-130142137D02*
X112159711Y-130292613D01*
X112159711Y-130292613D02*
X112207330Y-130367852D01*
X112207330Y-130367852D02*
X112302568Y-130443090D01*
X112302568Y-130443090D02*
X112493044Y-130443090D01*
X112493044Y-130443090D02*
X112588282Y-130367852D01*
X112588282Y-130367852D02*
X112635901Y-130292613D01*
X112635901Y-130292613D02*
X112683520Y-130142137D01*
X112683520Y-130142137D02*
X112683520Y-129841185D01*
X112683520Y-129841185D02*
X112635901Y-129690709D01*
X112635901Y-129690709D02*
X112588282Y-129615471D01*
X112588282Y-129615471D02*
X112493044Y-129540232D01*
X110302568Y-132986802D02*
X110302568Y-131406802D01*
X110302568Y-131406802D02*
X110683520Y-131406802D01*
X110683520Y-131406802D02*
X110778758Y-131482040D01*
X110778758Y-131482040D02*
X110826377Y-131557278D01*
X110826377Y-131557278D02*
X110873996Y-131707754D01*
X110873996Y-131707754D02*
X110873996Y-131933468D01*
X110873996Y-131933468D02*
X110826377Y-132083944D01*
X110826377Y-132083944D02*
X110778758Y-132159183D01*
X110778758Y-132159183D02*
X110683520Y-132234421D01*
X110683520Y-132234421D02*
X110302568Y-132234421D01*
X111254949Y-132535373D02*
X111731139Y-132535373D01*
X111159711Y-132986802D02*
X111493044Y-131406802D01*
X111493044Y-131406802D02*
X111826377Y-132986802D01*
X112207330Y-132986802D02*
X112397806Y-132986802D01*
X112397806Y-132986802D02*
X112493044Y-132911564D01*
X112493044Y-132911564D02*
X112540663Y-132836325D01*
X112540663Y-132836325D02*
X112635901Y-132610611D01*
X112635901Y-132610611D02*
X112683520Y-132309659D01*
X112683520Y-132309659D02*
X112683520Y-131707754D01*
X112683520Y-131707754D02*
X112635901Y-131557278D01*
X112635901Y-131557278D02*
X112588282Y-131482040D01*
X112588282Y-131482040D02*
X112493044Y-131406802D01*
X112493044Y-131406802D02*
X112302568Y-131406802D01*
X112302568Y-131406802D02*
X112207330Y-131482040D01*
X112207330Y-131482040D02*
X112159711Y-131557278D01*
X112159711Y-131557278D02*
X112112092Y-131707754D01*
X112112092Y-131707754D02*
X112112092Y-132083944D01*
X112112092Y-132083944D02*
X112159711Y-132234421D01*
X112159711Y-132234421D02*
X112207330Y-132309659D01*
X112207330Y-132309659D02*
X112302568Y-132384897D01*
X112302568Y-132384897D02*
X112493044Y-132384897D01*
X112493044Y-132384897D02*
X112588282Y-132309659D01*
X112588282Y-132309659D02*
X112635901Y-132234421D01*
X112635901Y-132234421D02*
X112683520Y-132083944D01*
X110302568Y-135530514D02*
X110302568Y-133950514D01*
X110302568Y-133950514D02*
X110683520Y-133950514D01*
X110683520Y-133950514D02*
X110778758Y-134025752D01*
X110778758Y-134025752D02*
X110826377Y-134100990D01*
X110826377Y-134100990D02*
X110873996Y-134251466D01*
X110873996Y-134251466D02*
X110873996Y-134477180D01*
X110873996Y-134477180D02*
X110826377Y-134627656D01*
X110826377Y-134627656D02*
X110778758Y-134702895D01*
X110778758Y-134702895D02*
X110683520Y-134778133D01*
X110683520Y-134778133D02*
X110302568Y-134778133D01*
X111873996Y-135380037D02*
X111826377Y-135455276D01*
X111826377Y-135455276D02*
X111683520Y-135530514D01*
X111683520Y-135530514D02*
X111588282Y-135530514D01*
X111588282Y-135530514D02*
X111445425Y-135455276D01*
X111445425Y-135455276D02*
X111350187Y-135304799D01*
X111350187Y-135304799D02*
X111302568Y-135154323D01*
X111302568Y-135154323D02*
X111254949Y-134853371D01*
X111254949Y-134853371D02*
X111254949Y-134627656D01*
X111254949Y-134627656D02*
X111302568Y-134326704D01*
X111302568Y-134326704D02*
X111350187Y-134176228D01*
X111350187Y-134176228D02*
X111445425Y-134025752D01*
X111445425Y-134025752D02*
X111588282Y-133950514D01*
X111588282Y-133950514D02*
X111683520Y-133950514D01*
X111683520Y-133950514D02*
X111826377Y-134025752D01*
X111826377Y-134025752D02*
X111873996Y-134100990D01*
X112207330Y-133950514D02*
X112873996Y-133950514D01*
X112873996Y-133950514D02*
X112445425Y-135530514D01*
X110302568Y-138074226D02*
X110302568Y-136494226D01*
X110302568Y-136494226D02*
X110683520Y-136494226D01*
X110683520Y-136494226D02*
X110778758Y-136569464D01*
X110778758Y-136569464D02*
X110826377Y-136644702D01*
X110826377Y-136644702D02*
X110873996Y-136795178D01*
X110873996Y-136795178D02*
X110873996Y-137020892D01*
X110873996Y-137020892D02*
X110826377Y-137171368D01*
X110826377Y-137171368D02*
X110778758Y-137246607D01*
X110778758Y-137246607D02*
X110683520Y-137321845D01*
X110683520Y-137321845D02*
X110302568Y-137321845D01*
X111635901Y-137246607D02*
X111778758Y-137321845D01*
X111778758Y-137321845D02*
X111826377Y-137397083D01*
X111826377Y-137397083D02*
X111873996Y-137547559D01*
X111873996Y-137547559D02*
X111873996Y-137773273D01*
X111873996Y-137773273D02*
X111826377Y-137923749D01*
X111826377Y-137923749D02*
X111778758Y-137998988D01*
X111778758Y-137998988D02*
X111683520Y-138074226D01*
X111683520Y-138074226D02*
X111302568Y-138074226D01*
X111302568Y-138074226D02*
X111302568Y-136494226D01*
X111302568Y-136494226D02*
X111635901Y-136494226D01*
X111635901Y-136494226D02*
X111731139Y-136569464D01*
X111731139Y-136569464D02*
X111778758Y-136644702D01*
X111778758Y-136644702D02*
X111826377Y-136795178D01*
X111826377Y-136795178D02*
X111826377Y-136945654D01*
X111826377Y-136945654D02*
X111778758Y-137096130D01*
X111778758Y-137096130D02*
X111731139Y-137171368D01*
X111731139Y-137171368D02*
X111635901Y-137246607D01*
X111635901Y-137246607D02*
X111302568Y-137246607D01*
X112731139Y-136494226D02*
X112540663Y-136494226D01*
X112540663Y-136494226D02*
X112445425Y-136569464D01*
X112445425Y-136569464D02*
X112397806Y-136644702D01*
X112397806Y-136644702D02*
X112302568Y-136870416D01*
X112302568Y-136870416D02*
X112254949Y-137171368D01*
X112254949Y-137171368D02*
X112254949Y-137773273D01*
X112254949Y-137773273D02*
X112302568Y-137923749D01*
X112302568Y-137923749D02*
X112350187Y-137998988D01*
X112350187Y-137998988D02*
X112445425Y-138074226D01*
X112445425Y-138074226D02*
X112635901Y-138074226D01*
X112635901Y-138074226D02*
X112731139Y-137998988D01*
X112731139Y-137998988D02*
X112778758Y-137923749D01*
X112778758Y-137923749D02*
X112826377Y-137773273D01*
X112826377Y-137773273D02*
X112826377Y-137397083D01*
X112826377Y-137397083D02*
X112778758Y-137246607D01*
X112778758Y-137246607D02*
X112731139Y-137171368D01*
X112731139Y-137171368D02*
X112635901Y-137096130D01*
X112635901Y-137096130D02*
X112445425Y-137096130D01*
X112445425Y-137096130D02*
X112350187Y-137171368D01*
X112350187Y-137171368D02*
X112302568Y-137246607D01*
X112302568Y-137246607D02*
X112254949Y-137397083D01*
X110302568Y-140617938D02*
X110302568Y-139037938D01*
X110302568Y-139037938D02*
X110683520Y-139037938D01*
X110683520Y-139037938D02*
X110778758Y-139113176D01*
X110778758Y-139113176D02*
X110826377Y-139188414D01*
X110826377Y-139188414D02*
X110873996Y-139338890D01*
X110873996Y-139338890D02*
X110873996Y-139564604D01*
X110873996Y-139564604D02*
X110826377Y-139715080D01*
X110826377Y-139715080D02*
X110778758Y-139790319D01*
X110778758Y-139790319D02*
X110683520Y-139865557D01*
X110683520Y-139865557D02*
X110302568Y-139865557D01*
X111254949Y-140166509D02*
X111731139Y-140166509D01*
X111159711Y-140617938D02*
X111493044Y-139037938D01*
X111493044Y-139037938D02*
X111826377Y-140617938D01*
X112064473Y-139037938D02*
X112731139Y-139037938D01*
X112731139Y-139037938D02*
X112302568Y-140617938D01*
X110302568Y-143161650D02*
X110302568Y-141581650D01*
X110302568Y-141581650D02*
X110683520Y-141581650D01*
X110683520Y-141581650D02*
X110778758Y-141656888D01*
X110778758Y-141656888D02*
X110826377Y-141732126D01*
X110826377Y-141732126D02*
X110873996Y-141882602D01*
X110873996Y-141882602D02*
X110873996Y-142108316D01*
X110873996Y-142108316D02*
X110826377Y-142258792D01*
X110826377Y-142258792D02*
X110778758Y-142334031D01*
X110778758Y-142334031D02*
X110683520Y-142409269D01*
X110683520Y-142409269D02*
X110302568Y-142409269D01*
X111254949Y-142710221D02*
X111731139Y-142710221D01*
X111159711Y-143161650D02*
X111493044Y-141581650D01*
X111493044Y-141581650D02*
X111826377Y-143161650D01*
X112588282Y-141581650D02*
X112397806Y-141581650D01*
X112397806Y-141581650D02*
X112302568Y-141656888D01*
X112302568Y-141656888D02*
X112254949Y-141732126D01*
X112254949Y-141732126D02*
X112159711Y-141957840D01*
X112159711Y-141957840D02*
X112112092Y-142258792D01*
X112112092Y-142258792D02*
X112112092Y-142860697D01*
X112112092Y-142860697D02*
X112159711Y-143011173D01*
X112159711Y-143011173D02*
X112207330Y-143086412D01*
X112207330Y-143086412D02*
X112302568Y-143161650D01*
X112302568Y-143161650D02*
X112493044Y-143161650D01*
X112493044Y-143161650D02*
X112588282Y-143086412D01*
X112588282Y-143086412D02*
X112635901Y-143011173D01*
X112635901Y-143011173D02*
X112683520Y-142860697D01*
X112683520Y-142860697D02*
X112683520Y-142484507D01*
X112683520Y-142484507D02*
X112635901Y-142334031D01*
X112635901Y-142334031D02*
X112588282Y-142258792D01*
X112588282Y-142258792D02*
X112493044Y-142183554D01*
X112493044Y-142183554D02*
X112302568Y-142183554D01*
X112302568Y-142183554D02*
X112207330Y-142258792D01*
X112207330Y-142258792D02*
X112159711Y-142334031D01*
X112159711Y-142334031D02*
X112112092Y-142484507D01*
X110302568Y-145705362D02*
X110302568Y-144125362D01*
X110302568Y-144125362D02*
X110683520Y-144125362D01*
X110683520Y-144125362D02*
X110778758Y-144200600D01*
X110778758Y-144200600D02*
X110826377Y-144275838D01*
X110826377Y-144275838D02*
X110873996Y-144426314D01*
X110873996Y-144426314D02*
X110873996Y-144652028D01*
X110873996Y-144652028D02*
X110826377Y-144802504D01*
X110826377Y-144802504D02*
X110778758Y-144877743D01*
X110778758Y-144877743D02*
X110683520Y-144952981D01*
X110683520Y-144952981D02*
X110302568Y-144952981D01*
X111254949Y-145253933D02*
X111731139Y-145253933D01*
X111159711Y-145705362D02*
X111493044Y-144125362D01*
X111493044Y-144125362D02*
X111826377Y-145705362D01*
X112635901Y-144125362D02*
X112159711Y-144125362D01*
X112159711Y-144125362D02*
X112112092Y-144877743D01*
X112112092Y-144877743D02*
X112159711Y-144802504D01*
X112159711Y-144802504D02*
X112254949Y-144727266D01*
X112254949Y-144727266D02*
X112493044Y-144727266D01*
X112493044Y-144727266D02*
X112588282Y-144802504D01*
X112588282Y-144802504D02*
X112635901Y-144877743D01*
X112635901Y-144877743D02*
X112683520Y-145028219D01*
X112683520Y-145028219D02*
X112683520Y-145404409D01*
X112683520Y-145404409D02*
X112635901Y-145554885D01*
X112635901Y-145554885D02*
X112588282Y-145630124D01*
X112588282Y-145630124D02*
X112493044Y-145705362D01*
X112493044Y-145705362D02*
X112254949Y-145705362D01*
X112254949Y-145705362D02*
X112159711Y-145630124D01*
X112159711Y-145630124D02*
X112112092Y-145554885D01*
X110254949Y-147797645D02*
X110731139Y-147797645D01*
X110159711Y-148249074D02*
X110493044Y-146669074D01*
X110493044Y-146669074D02*
X110826377Y-148249074D01*
X111016854Y-146669074D02*
X111350187Y-148249074D01*
X111350187Y-148249074D02*
X111683520Y-146669074D01*
X112016854Y-148249074D02*
X112016854Y-146669074D01*
X112016854Y-146669074D02*
X112254949Y-146669074D01*
X112254949Y-146669074D02*
X112397806Y-146744312D01*
X112397806Y-146744312D02*
X112493044Y-146894788D01*
X112493044Y-146894788D02*
X112540663Y-147045264D01*
X112540663Y-147045264D02*
X112588282Y-147346216D01*
X112588282Y-147346216D02*
X112588282Y-147571931D01*
X112588282Y-147571931D02*
X112540663Y-147872883D01*
X112540663Y-147872883D02*
X112493044Y-148023359D01*
X112493044Y-148023359D02*
X112397806Y-148173836D01*
X112397806Y-148173836D02*
X112254949Y-148249074D01*
X112254949Y-148249074D02*
X112016854Y-148249074D01*
X113016854Y-148249074D02*
X113016854Y-146669074D01*
X113016854Y-146669074D02*
X113254949Y-146669074D01*
X113254949Y-146669074D02*
X113397806Y-146744312D01*
X113397806Y-146744312D02*
X113493044Y-146894788D01*
X113493044Y-146894788D02*
X113540663Y-147045264D01*
X113540663Y-147045264D02*
X113588282Y-147346216D01*
X113588282Y-147346216D02*
X113588282Y-147571931D01*
X113588282Y-147571931D02*
X113540663Y-147872883D01*
X113540663Y-147872883D02*
X113493044Y-148023359D01*
X113493044Y-148023359D02*
X113397806Y-148173836D01*
X113397806Y-148173836D02*
X113254949Y-148249074D01*
X113254949Y-148249074D02*
X113016854Y-148249074D01*
X110302568Y-150792786D02*
X110302568Y-149212786D01*
X110302568Y-149212786D02*
X110683520Y-149212786D01*
X110683520Y-149212786D02*
X110778758Y-149288024D01*
X110778758Y-149288024D02*
X110826377Y-149363262D01*
X110826377Y-149363262D02*
X110873996Y-149513738D01*
X110873996Y-149513738D02*
X110873996Y-149739452D01*
X110873996Y-149739452D02*
X110826377Y-149889928D01*
X110826377Y-149889928D02*
X110778758Y-149965167D01*
X110778758Y-149965167D02*
X110683520Y-150040405D01*
X110683520Y-150040405D02*
X110302568Y-150040405D01*
X111635901Y-149965167D02*
X111778758Y-150040405D01*
X111778758Y-150040405D02*
X111826377Y-150115643D01*
X111826377Y-150115643D02*
X111873996Y-150266119D01*
X111873996Y-150266119D02*
X111873996Y-150491833D01*
X111873996Y-150491833D02*
X111826377Y-150642309D01*
X111826377Y-150642309D02*
X111778758Y-150717548D01*
X111778758Y-150717548D02*
X111683520Y-150792786D01*
X111683520Y-150792786D02*
X111302568Y-150792786D01*
X111302568Y-150792786D02*
X111302568Y-149212786D01*
X111302568Y-149212786D02*
X111635901Y-149212786D01*
X111635901Y-149212786D02*
X111731139Y-149288024D01*
X111731139Y-149288024D02*
X111778758Y-149363262D01*
X111778758Y-149363262D02*
X111826377Y-149513738D01*
X111826377Y-149513738D02*
X111826377Y-149664214D01*
X111826377Y-149664214D02*
X111778758Y-149814690D01*
X111778758Y-149814690D02*
X111731139Y-149889928D01*
X111731139Y-149889928D02*
X111635901Y-149965167D01*
X111635901Y-149965167D02*
X111302568Y-149965167D01*
X112350187Y-150792786D02*
X112540663Y-150792786D01*
X112540663Y-150792786D02*
X112635901Y-150717548D01*
X112635901Y-150717548D02*
X112683520Y-150642309D01*
X112683520Y-150642309D02*
X112778758Y-150416595D01*
X112778758Y-150416595D02*
X112826377Y-150115643D01*
X112826377Y-150115643D02*
X112826377Y-149513738D01*
X112826377Y-149513738D02*
X112778758Y-149363262D01*
X112778758Y-149363262D02*
X112731139Y-149288024D01*
X112731139Y-149288024D02*
X112635901Y-149212786D01*
X112635901Y-149212786D02*
X112445425Y-149212786D01*
X112445425Y-149212786D02*
X112350187Y-149288024D01*
X112350187Y-149288024D02*
X112302568Y-149363262D01*
X112302568Y-149363262D02*
X112254949Y-149513738D01*
X112254949Y-149513738D02*
X112254949Y-149889928D01*
X112254949Y-149889928D02*
X112302568Y-150040405D01*
X112302568Y-150040405D02*
X112350187Y-150115643D01*
X112350187Y-150115643D02*
X112445425Y-150190881D01*
X112445425Y-150190881D02*
X112635901Y-150190881D01*
X112635901Y-150190881D02*
X112731139Y-150115643D01*
X112731139Y-150115643D02*
X112778758Y-150040405D01*
X112778758Y-150040405D02*
X112826377Y-149889928D01*
X110302568Y-153336498D02*
X110302568Y-151756498D01*
X110302568Y-151756498D02*
X110683520Y-151756498D01*
X110683520Y-151756498D02*
X110778758Y-151831736D01*
X110778758Y-151831736D02*
X110826377Y-151906974D01*
X110826377Y-151906974D02*
X110873996Y-152057450D01*
X110873996Y-152057450D02*
X110873996Y-152283164D01*
X110873996Y-152283164D02*
X110826377Y-152433640D01*
X110826377Y-152433640D02*
X110778758Y-152508879D01*
X110778758Y-152508879D02*
X110683520Y-152584117D01*
X110683520Y-152584117D02*
X110302568Y-152584117D01*
X111635901Y-152508879D02*
X111778758Y-152584117D01*
X111778758Y-152584117D02*
X111826377Y-152659355D01*
X111826377Y-152659355D02*
X111873996Y-152809831D01*
X111873996Y-152809831D02*
X111873996Y-153035545D01*
X111873996Y-153035545D02*
X111826377Y-153186021D01*
X111826377Y-153186021D02*
X111778758Y-153261260D01*
X111778758Y-153261260D02*
X111683520Y-153336498D01*
X111683520Y-153336498D02*
X111302568Y-153336498D01*
X111302568Y-153336498D02*
X111302568Y-151756498D01*
X111302568Y-151756498D02*
X111635901Y-151756498D01*
X111635901Y-151756498D02*
X111731139Y-151831736D01*
X111731139Y-151831736D02*
X111778758Y-151906974D01*
X111778758Y-151906974D02*
X111826377Y-152057450D01*
X111826377Y-152057450D02*
X111826377Y-152207926D01*
X111826377Y-152207926D02*
X111778758Y-152358402D01*
X111778758Y-152358402D02*
X111731139Y-152433640D01*
X111731139Y-152433640D02*
X111635901Y-152508879D01*
X111635901Y-152508879D02*
X111302568Y-152508879D01*
X112445425Y-152433640D02*
X112350187Y-152358402D01*
X112350187Y-152358402D02*
X112302568Y-152283164D01*
X112302568Y-152283164D02*
X112254949Y-152132688D01*
X112254949Y-152132688D02*
X112254949Y-152057450D01*
X112254949Y-152057450D02*
X112302568Y-151906974D01*
X112302568Y-151906974D02*
X112350187Y-151831736D01*
X112350187Y-151831736D02*
X112445425Y-151756498D01*
X112445425Y-151756498D02*
X112635901Y-151756498D01*
X112635901Y-151756498D02*
X112731139Y-151831736D01*
X112731139Y-151831736D02*
X112778758Y-151906974D01*
X112778758Y-151906974D02*
X112826377Y-152057450D01*
X112826377Y-152057450D02*
X112826377Y-152132688D01*
X112826377Y-152132688D02*
X112778758Y-152283164D01*
X112778758Y-152283164D02*
X112731139Y-152358402D01*
X112731139Y-152358402D02*
X112635901Y-152433640D01*
X112635901Y-152433640D02*
X112445425Y-152433640D01*
X112445425Y-152433640D02*
X112350187Y-152508879D01*
X112350187Y-152508879D02*
X112302568Y-152584117D01*
X112302568Y-152584117D02*
X112254949Y-152734593D01*
X112254949Y-152734593D02*
X112254949Y-153035545D01*
X112254949Y-153035545D02*
X112302568Y-153186021D01*
X112302568Y-153186021D02*
X112350187Y-153261260D01*
X112350187Y-153261260D02*
X112445425Y-153336498D01*
X112445425Y-153336498D02*
X112635901Y-153336498D01*
X112635901Y-153336498D02*
X112731139Y-153261260D01*
X112731139Y-153261260D02*
X112778758Y-153186021D01*
X112778758Y-153186021D02*
X112826377Y-153035545D01*
X112826377Y-153035545D02*
X112826377Y-152734593D01*
X112826377Y-152734593D02*
X112778758Y-152584117D01*
X112778758Y-152584117D02*
X112731139Y-152508879D01*
X112731139Y-152508879D02*
X112635901Y-152433640D01*
X110302568Y-155880210D02*
X110302568Y-154300210D01*
X110302568Y-154300210D02*
X110683520Y-154300210D01*
X110683520Y-154300210D02*
X110778758Y-154375448D01*
X110778758Y-154375448D02*
X110826377Y-154450686D01*
X110826377Y-154450686D02*
X110873996Y-154601162D01*
X110873996Y-154601162D02*
X110873996Y-154826876D01*
X110873996Y-154826876D02*
X110826377Y-154977352D01*
X110826377Y-154977352D02*
X110778758Y-155052591D01*
X110778758Y-155052591D02*
X110683520Y-155127829D01*
X110683520Y-155127829D02*
X110302568Y-155127829D01*
X111873996Y-155729733D02*
X111826377Y-155804972D01*
X111826377Y-155804972D02*
X111683520Y-155880210D01*
X111683520Y-155880210D02*
X111588282Y-155880210D01*
X111588282Y-155880210D02*
X111445425Y-155804972D01*
X111445425Y-155804972D02*
X111350187Y-155654495D01*
X111350187Y-155654495D02*
X111302568Y-155504019D01*
X111302568Y-155504019D02*
X111254949Y-155203067D01*
X111254949Y-155203067D02*
X111254949Y-154977352D01*
X111254949Y-154977352D02*
X111302568Y-154676400D01*
X111302568Y-154676400D02*
X111350187Y-154525924D01*
X111350187Y-154525924D02*
X111445425Y-154375448D01*
X111445425Y-154375448D02*
X111588282Y-154300210D01*
X111588282Y-154300210D02*
X111683520Y-154300210D01*
X111683520Y-154300210D02*
X111826377Y-154375448D01*
X111826377Y-154375448D02*
X111873996Y-154450686D01*
X112350187Y-155880210D02*
X112540663Y-155880210D01*
X112540663Y-155880210D02*
X112635901Y-155804972D01*
X112635901Y-155804972D02*
X112683520Y-155729733D01*
X112683520Y-155729733D02*
X112778758Y-155504019D01*
X112778758Y-155504019D02*
X112826377Y-155203067D01*
X112826377Y-155203067D02*
X112826377Y-154601162D01*
X112826377Y-154601162D02*
X112778758Y-154450686D01*
X112778758Y-154450686D02*
X112731139Y-154375448D01*
X112731139Y-154375448D02*
X112635901Y-154300210D01*
X112635901Y-154300210D02*
X112445425Y-154300210D01*
X112445425Y-154300210D02*
X112350187Y-154375448D01*
X112350187Y-154375448D02*
X112302568Y-154450686D01*
X112302568Y-154450686D02*
X112254949Y-154601162D01*
X112254949Y-154601162D02*
X112254949Y-154977352D01*
X112254949Y-154977352D02*
X112302568Y-155127829D01*
X112302568Y-155127829D02*
X112350187Y-155203067D01*
X112350187Y-155203067D02*
X112445425Y-155278305D01*
X112445425Y-155278305D02*
X112635901Y-155278305D01*
X112635901Y-155278305D02*
X112731139Y-155203067D01*
X112731139Y-155203067D02*
X112778758Y-155127829D01*
X112778758Y-155127829D02*
X112826377Y-154977352D01*
X110302568Y-157822017D02*
X111064473Y-157822017D01*
X110683520Y-158423922D02*
X110683520Y-157220112D01*
X112016853Y-156843922D02*
X111540663Y-156843922D01*
X111540663Y-156843922D02*
X111493044Y-157596303D01*
X111493044Y-157596303D02*
X111540663Y-157521064D01*
X111540663Y-157521064D02*
X111635901Y-157445826D01*
X111635901Y-157445826D02*
X111873996Y-157445826D01*
X111873996Y-157445826D02*
X111969234Y-157521064D01*
X111969234Y-157521064D02*
X112016853Y-157596303D01*
X112016853Y-157596303D02*
X112064472Y-157746779D01*
X112064472Y-157746779D02*
X112064472Y-158122969D01*
X112064472Y-158122969D02*
X112016853Y-158273445D01*
X112016853Y-158273445D02*
X111969234Y-158348684D01*
X111969234Y-158348684D02*
X111873996Y-158423922D01*
X111873996Y-158423922D02*
X111635901Y-158423922D01*
X111635901Y-158423922D02*
X111540663Y-158348684D01*
X111540663Y-158348684D02*
X111493044Y-158273445D01*
X112350187Y-156843922D02*
X112683520Y-158423922D01*
X112683520Y-158423922D02*
X113016853Y-156843922D01*
X110302568Y-160365729D02*
X111064473Y-160365729D01*
X110683520Y-160967634D02*
X110683520Y-159763824D01*
X111445425Y-159387634D02*
X112064472Y-159387634D01*
X112064472Y-159387634D02*
X111731139Y-159989538D01*
X111731139Y-159989538D02*
X111873996Y-159989538D01*
X111873996Y-159989538D02*
X111969234Y-160064776D01*
X111969234Y-160064776D02*
X112016853Y-160140015D01*
X112016853Y-160140015D02*
X112064472Y-160290491D01*
X112064472Y-160290491D02*
X112064472Y-160666681D01*
X112064472Y-160666681D02*
X112016853Y-160817157D01*
X112016853Y-160817157D02*
X111969234Y-160892396D01*
X111969234Y-160892396D02*
X111873996Y-160967634D01*
X111873996Y-160967634D02*
X111588282Y-160967634D01*
X111588282Y-160967634D02*
X111493044Y-160892396D01*
X111493044Y-160892396D02*
X111445425Y-160817157D01*
X112350187Y-159387634D02*
X112683520Y-160967634D01*
X112683520Y-160967634D02*
X113016853Y-159387634D01*
X113254949Y-159387634D02*
X113873996Y-159387634D01*
X113873996Y-159387634D02*
X113540663Y-159989538D01*
X113540663Y-159989538D02*
X113683520Y-159989538D01*
X113683520Y-159989538D02*
X113778758Y-160064776D01*
X113778758Y-160064776D02*
X113826377Y-160140015D01*
X113826377Y-160140015D02*
X113873996Y-160290491D01*
X113873996Y-160290491D02*
X113873996Y-160666681D01*
X113873996Y-160666681D02*
X113826377Y-160817157D01*
X113826377Y-160817157D02*
X113778758Y-160892396D01*
X113778758Y-160892396D02*
X113683520Y-160967634D01*
X113683520Y-160967634D02*
X113397806Y-160967634D01*
X113397806Y-160967634D02*
X113302568Y-160892396D01*
X113302568Y-160892396D02*
X113254949Y-160817157D01*
X110826377Y-162006584D02*
X110731139Y-161931346D01*
X110731139Y-161931346D02*
X110588282Y-161931346D01*
X110588282Y-161931346D02*
X110445425Y-162006584D01*
X110445425Y-162006584D02*
X110350187Y-162157060D01*
X110350187Y-162157060D02*
X110302568Y-162307536D01*
X110302568Y-162307536D02*
X110254949Y-162608488D01*
X110254949Y-162608488D02*
X110254949Y-162834203D01*
X110254949Y-162834203D02*
X110302568Y-163135155D01*
X110302568Y-163135155D02*
X110350187Y-163285631D01*
X110350187Y-163285631D02*
X110445425Y-163436108D01*
X110445425Y-163436108D02*
X110588282Y-163511346D01*
X110588282Y-163511346D02*
X110683520Y-163511346D01*
X110683520Y-163511346D02*
X110826377Y-163436108D01*
X110826377Y-163436108D02*
X110873996Y-163360869D01*
X110873996Y-163360869D02*
X110873996Y-162834203D01*
X110873996Y-162834203D02*
X110683520Y-162834203D01*
X111302568Y-163511346D02*
X111302568Y-161931346D01*
X111302568Y-161931346D02*
X111873996Y-163511346D01*
X111873996Y-163511346D02*
X111873996Y-161931346D01*
X112350187Y-163511346D02*
X112350187Y-161931346D01*
X112350187Y-161931346D02*
X112588282Y-161931346D01*
X112588282Y-161931346D02*
X112731139Y-162006584D01*
X112731139Y-162006584D02*
X112826377Y-162157060D01*
X112826377Y-162157060D02*
X112873996Y-162307536D01*
X112873996Y-162307536D02*
X112921615Y-162608488D01*
X112921615Y-162608488D02*
X112921615Y-162834203D01*
X112921615Y-162834203D02*
X112873996Y-163135155D01*
X112873996Y-163135155D02*
X112826377Y-163285631D01*
X112826377Y-163285631D02*
X112731139Y-163436108D01*
X112731139Y-163436108D02*
X112588282Y-163511346D01*
X112588282Y-163511346D02*
X112350187Y-163511346D01*
X110826377Y-164550296D02*
X110731139Y-164475058D01*
X110731139Y-164475058D02*
X110588282Y-164475058D01*
X110588282Y-164475058D02*
X110445425Y-164550296D01*
X110445425Y-164550296D02*
X110350187Y-164700772D01*
X110350187Y-164700772D02*
X110302568Y-164851248D01*
X110302568Y-164851248D02*
X110254949Y-165152200D01*
X110254949Y-165152200D02*
X110254949Y-165377915D01*
X110254949Y-165377915D02*
X110302568Y-165678867D01*
X110302568Y-165678867D02*
X110350187Y-165829343D01*
X110350187Y-165829343D02*
X110445425Y-165979820D01*
X110445425Y-165979820D02*
X110588282Y-166055058D01*
X110588282Y-166055058D02*
X110683520Y-166055058D01*
X110683520Y-166055058D02*
X110826377Y-165979820D01*
X110826377Y-165979820D02*
X110873996Y-165904581D01*
X110873996Y-165904581D02*
X110873996Y-165377915D01*
X110873996Y-165377915D02*
X110683520Y-165377915D01*
X111302568Y-166055058D02*
X111302568Y-164475058D01*
X111302568Y-164475058D02*
X111873996Y-166055058D01*
X111873996Y-166055058D02*
X111873996Y-164475058D01*
X112350187Y-166055058D02*
X112350187Y-164475058D01*
X112350187Y-164475058D02*
X112588282Y-164475058D01*
X112588282Y-164475058D02*
X112731139Y-164550296D01*
X112731139Y-164550296D02*
X112826377Y-164700772D01*
X112826377Y-164700772D02*
X112873996Y-164851248D01*
X112873996Y-164851248D02*
X112921615Y-165152200D01*
X112921615Y-165152200D02*
X112921615Y-165377915D01*
X112921615Y-165377915D02*
X112873996Y-165678867D01*
X112873996Y-165678867D02*
X112826377Y-165829343D01*
X112826377Y-165829343D02*
X112731139Y-165979820D01*
X112731139Y-165979820D02*
X112588282Y-166055058D01*
X112588282Y-166055058D02*
X112350187Y-166055058D01*
X110826377Y-167094008D02*
X110731139Y-167018770D01*
X110731139Y-167018770D02*
X110588282Y-167018770D01*
X110588282Y-167018770D02*
X110445425Y-167094008D01*
X110445425Y-167094008D02*
X110350187Y-167244484D01*
X110350187Y-167244484D02*
X110302568Y-167394960D01*
X110302568Y-167394960D02*
X110254949Y-167695912D01*
X110254949Y-167695912D02*
X110254949Y-167921627D01*
X110254949Y-167921627D02*
X110302568Y-168222579D01*
X110302568Y-168222579D02*
X110350187Y-168373055D01*
X110350187Y-168373055D02*
X110445425Y-168523532D01*
X110445425Y-168523532D02*
X110588282Y-168598770D01*
X110588282Y-168598770D02*
X110683520Y-168598770D01*
X110683520Y-168598770D02*
X110826377Y-168523532D01*
X110826377Y-168523532D02*
X110873996Y-168448293D01*
X110873996Y-168448293D02*
X110873996Y-167921627D01*
X110873996Y-167921627D02*
X110683520Y-167921627D01*
X111302568Y-168598770D02*
X111302568Y-167018770D01*
X111302568Y-167018770D02*
X111873996Y-168598770D01*
X111873996Y-168598770D02*
X111873996Y-167018770D01*
X112350187Y-168598770D02*
X112350187Y-167018770D01*
X112350187Y-167018770D02*
X112588282Y-167018770D01*
X112588282Y-167018770D02*
X112731139Y-167094008D01*
X112731139Y-167094008D02*
X112826377Y-167244484D01*
X112826377Y-167244484D02*
X112873996Y-167394960D01*
X112873996Y-167394960D02*
X112921615Y-167695912D01*
X112921615Y-167695912D02*
X112921615Y-167921627D01*
X112921615Y-167921627D02*
X112873996Y-168222579D01*
X112873996Y-168222579D02*
X112826377Y-168373055D01*
X112826377Y-168373055D02*
X112731139Y-168523532D01*
X112731139Y-168523532D02*
X112588282Y-168598770D01*
X112588282Y-168598770D02*
X112350187Y-168598770D01*
D12*
X100966666Y-108454819D02*
X100966666Y-109169104D01*
X100966666Y-109169104D02*
X100919047Y-109311961D01*
X100919047Y-109311961D02*
X100823809Y-109407200D01*
X100823809Y-109407200D02*
X100680952Y-109454819D01*
X100680952Y-109454819D02*
X100585714Y-109454819D01*
X101919047Y-108454819D02*
X101442857Y-108454819D01*
X101442857Y-108454819D02*
X101395238Y-108931009D01*
X101395238Y-108931009D02*
X101442857Y-108883390D01*
X101442857Y-108883390D02*
X101538095Y-108835771D01*
X101538095Y-108835771D02*
X101776190Y-108835771D01*
X101776190Y-108835771D02*
X101871428Y-108883390D01*
X101871428Y-108883390D02*
X101919047Y-108931009D01*
X101919047Y-108931009D02*
X101966666Y-109026247D01*
X101966666Y-109026247D02*
X101966666Y-109264342D01*
X101966666Y-109264342D02*
X101919047Y-109359580D01*
X101919047Y-109359580D02*
X101871428Y-109407200D01*
X101871428Y-109407200D02*
X101776190Y-109454819D01*
X101776190Y-109454819D02*
X101538095Y-109454819D01*
X101538095Y-109454819D02*
X101442857Y-109407200D01*
X101442857Y-109407200D02*
X101395238Y-109359580D01*
X135190476Y-119024819D02*
X135190476Y-119739104D01*
X135190476Y-119739104D02*
X135142857Y-119881961D01*
X135142857Y-119881961D02*
X135047619Y-119977200D01*
X135047619Y-119977200D02*
X134904762Y-120024819D01*
X134904762Y-120024819D02*
X134809524Y-120024819D01*
X136190476Y-120024819D02*
X135619048Y-120024819D01*
X135904762Y-120024819D02*
X135904762Y-119024819D01*
X135904762Y-119024819D02*
X135809524Y-119167676D01*
X135809524Y-119167676D02*
X135714286Y-119262914D01*
X135714286Y-119262914D02*
X135619048Y-119310533D01*
X136809524Y-119024819D02*
X136904762Y-119024819D01*
X136904762Y-119024819D02*
X137000000Y-119072438D01*
X137000000Y-119072438D02*
X137047619Y-119120057D01*
X137047619Y-119120057D02*
X137095238Y-119215295D01*
X137095238Y-119215295D02*
X137142857Y-119405771D01*
X137142857Y-119405771D02*
X137142857Y-119643866D01*
X137142857Y-119643866D02*
X137095238Y-119834342D01*
X137095238Y-119834342D02*
X137047619Y-119929580D01*
X137047619Y-119929580D02*
X137000000Y-119977200D01*
X137000000Y-119977200D02*
X136904762Y-120024819D01*
X136904762Y-120024819D02*
X136809524Y-120024819D01*
X136809524Y-120024819D02*
X136714286Y-119977200D01*
X136714286Y-119977200D02*
X136666667Y-119929580D01*
X136666667Y-119929580D02*
X136619048Y-119834342D01*
X136619048Y-119834342D02*
X136571429Y-119643866D01*
X136571429Y-119643866D02*
X136571429Y-119405771D01*
X136571429Y-119405771D02*
X136619048Y-119215295D01*
X136619048Y-119215295D02*
X136666667Y-119120057D01*
X136666667Y-119120057D02*
X136714286Y-119072438D01*
X136714286Y-119072438D02*
X136809524Y-119024819D01*
X141666666Y-119024819D02*
X141666666Y-119739104D01*
X141666666Y-119739104D02*
X141619047Y-119881961D01*
X141619047Y-119881961D02*
X141523809Y-119977200D01*
X141523809Y-119977200D02*
X141380952Y-120024819D01*
X141380952Y-120024819D02*
X141285714Y-120024819D01*
X142571428Y-119024819D02*
X142380952Y-119024819D01*
X142380952Y-119024819D02*
X142285714Y-119072438D01*
X142285714Y-119072438D02*
X142238095Y-119120057D01*
X142238095Y-119120057D02*
X142142857Y-119262914D01*
X142142857Y-119262914D02*
X142095238Y-119453390D01*
X142095238Y-119453390D02*
X142095238Y-119834342D01*
X142095238Y-119834342D02*
X142142857Y-119929580D01*
X142142857Y-119929580D02*
X142190476Y-119977200D01*
X142190476Y-119977200D02*
X142285714Y-120024819D01*
X142285714Y-120024819D02*
X142476190Y-120024819D01*
X142476190Y-120024819D02*
X142571428Y-119977200D01*
X142571428Y-119977200D02*
X142619047Y-119929580D01*
X142619047Y-119929580D02*
X142666666Y-119834342D01*
X142666666Y-119834342D02*
X142666666Y-119596247D01*
X142666666Y-119596247D02*
X142619047Y-119501009D01*
X142619047Y-119501009D02*
X142571428Y-119453390D01*
X142571428Y-119453390D02*
X142476190Y-119405771D01*
X142476190Y-119405771D02*
X142285714Y-119405771D01*
X142285714Y-119405771D02*
X142190476Y-119453390D01*
X142190476Y-119453390D02*
X142142857Y-119501009D01*
X142142857Y-119501009D02*
X142095238Y-119596247D01*
D10*
X63521241Y-120986802D02*
X63521241Y-119406802D01*
X63521241Y-119406802D02*
X63902193Y-119406802D01*
X63902193Y-119406802D02*
X63997431Y-119482040D01*
X63997431Y-119482040D02*
X64045050Y-119557278D01*
X64045050Y-119557278D02*
X64092669Y-119707754D01*
X64092669Y-119707754D02*
X64092669Y-119933468D01*
X64092669Y-119933468D02*
X64045050Y-120083944D01*
X64045050Y-120083944D02*
X63997431Y-120159183D01*
X63997431Y-120159183D02*
X63902193Y-120234421D01*
X63902193Y-120234421D02*
X63521241Y-120234421D01*
X65092669Y-120836325D02*
X65045050Y-120911564D01*
X65045050Y-120911564D02*
X64902193Y-120986802D01*
X64902193Y-120986802D02*
X64806955Y-120986802D01*
X64806955Y-120986802D02*
X64664098Y-120911564D01*
X64664098Y-120911564D02*
X64568860Y-120761087D01*
X64568860Y-120761087D02*
X64521241Y-120610611D01*
X64521241Y-120610611D02*
X64473622Y-120309659D01*
X64473622Y-120309659D02*
X64473622Y-120083944D01*
X64473622Y-120083944D02*
X64521241Y-119782992D01*
X64521241Y-119782992D02*
X64568860Y-119632516D01*
X64568860Y-119632516D02*
X64664098Y-119482040D01*
X64664098Y-119482040D02*
X64806955Y-119406802D01*
X64806955Y-119406802D02*
X64902193Y-119406802D01*
X64902193Y-119406802D02*
X65045050Y-119482040D01*
X65045050Y-119482040D02*
X65092669Y-119557278D01*
X65711717Y-119406802D02*
X65806955Y-119406802D01*
X65806955Y-119406802D02*
X65902193Y-119482040D01*
X65902193Y-119482040D02*
X65949812Y-119557278D01*
X65949812Y-119557278D02*
X65997431Y-119707754D01*
X65997431Y-119707754D02*
X66045050Y-120008706D01*
X66045050Y-120008706D02*
X66045050Y-120384897D01*
X66045050Y-120384897D02*
X65997431Y-120685849D01*
X65997431Y-120685849D02*
X65949812Y-120836325D01*
X65949812Y-120836325D02*
X65902193Y-120911564D01*
X65902193Y-120911564D02*
X65806955Y-120986802D01*
X65806955Y-120986802D02*
X65711717Y-120986802D01*
X65711717Y-120986802D02*
X65616479Y-120911564D01*
X65616479Y-120911564D02*
X65568860Y-120836325D01*
X65568860Y-120836325D02*
X65521241Y-120685849D01*
X65521241Y-120685849D02*
X65473622Y-120384897D01*
X65473622Y-120384897D02*
X65473622Y-120008706D01*
X65473622Y-120008706D02*
X65521241Y-119707754D01*
X65521241Y-119707754D02*
X65568860Y-119557278D01*
X65568860Y-119557278D02*
X65616479Y-119482040D01*
X65616479Y-119482040D02*
X65711717Y-119406802D01*
X63521241Y-123530514D02*
X63521241Y-121950514D01*
X63521241Y-121950514D02*
X63902193Y-121950514D01*
X63902193Y-121950514D02*
X63997431Y-122025752D01*
X63997431Y-122025752D02*
X64045050Y-122100990D01*
X64045050Y-122100990D02*
X64092669Y-122251466D01*
X64092669Y-122251466D02*
X64092669Y-122477180D01*
X64092669Y-122477180D02*
X64045050Y-122627656D01*
X64045050Y-122627656D02*
X63997431Y-122702895D01*
X63997431Y-122702895D02*
X63902193Y-122778133D01*
X63902193Y-122778133D02*
X63521241Y-122778133D01*
X65092669Y-123380037D02*
X65045050Y-123455276D01*
X65045050Y-123455276D02*
X64902193Y-123530514D01*
X64902193Y-123530514D02*
X64806955Y-123530514D01*
X64806955Y-123530514D02*
X64664098Y-123455276D01*
X64664098Y-123455276D02*
X64568860Y-123304799D01*
X64568860Y-123304799D02*
X64521241Y-123154323D01*
X64521241Y-123154323D02*
X64473622Y-122853371D01*
X64473622Y-122853371D02*
X64473622Y-122627656D01*
X64473622Y-122627656D02*
X64521241Y-122326704D01*
X64521241Y-122326704D02*
X64568860Y-122176228D01*
X64568860Y-122176228D02*
X64664098Y-122025752D01*
X64664098Y-122025752D02*
X64806955Y-121950514D01*
X64806955Y-121950514D02*
X64902193Y-121950514D01*
X64902193Y-121950514D02*
X65045050Y-122025752D01*
X65045050Y-122025752D02*
X65092669Y-122100990D01*
X66045050Y-123530514D02*
X65473622Y-123530514D01*
X65759336Y-123530514D02*
X65759336Y-121950514D01*
X65759336Y-121950514D02*
X65664098Y-122176228D01*
X65664098Y-122176228D02*
X65568860Y-122326704D01*
X65568860Y-122326704D02*
X65473622Y-122401942D01*
X63426003Y-126074226D02*
X63426003Y-124494226D01*
X63426003Y-124494226D02*
X63806955Y-124494226D01*
X63806955Y-124494226D02*
X63902193Y-124569464D01*
X63902193Y-124569464D02*
X63949812Y-124644702D01*
X63949812Y-124644702D02*
X63997431Y-124795178D01*
X63997431Y-124795178D02*
X63997431Y-125020892D01*
X63997431Y-125020892D02*
X63949812Y-125171368D01*
X63949812Y-125171368D02*
X63902193Y-125246607D01*
X63902193Y-125246607D02*
X63806955Y-125321845D01*
X63806955Y-125321845D02*
X63426003Y-125321845D01*
X64759336Y-125246607D02*
X64902193Y-125321845D01*
X64902193Y-125321845D02*
X64949812Y-125397083D01*
X64949812Y-125397083D02*
X64997431Y-125547559D01*
X64997431Y-125547559D02*
X64997431Y-125773273D01*
X64997431Y-125773273D02*
X64949812Y-125923749D01*
X64949812Y-125923749D02*
X64902193Y-125998988D01*
X64902193Y-125998988D02*
X64806955Y-126074226D01*
X64806955Y-126074226D02*
X64426003Y-126074226D01*
X64426003Y-126074226D02*
X64426003Y-124494226D01*
X64426003Y-124494226D02*
X64759336Y-124494226D01*
X64759336Y-124494226D02*
X64854574Y-124569464D01*
X64854574Y-124569464D02*
X64902193Y-124644702D01*
X64902193Y-124644702D02*
X64949812Y-124795178D01*
X64949812Y-124795178D02*
X64949812Y-124945654D01*
X64949812Y-124945654D02*
X64902193Y-125096130D01*
X64902193Y-125096130D02*
X64854574Y-125171368D01*
X64854574Y-125171368D02*
X64759336Y-125246607D01*
X64759336Y-125246607D02*
X64426003Y-125246607D01*
X65616479Y-124494226D02*
X65806955Y-124494226D01*
X65806955Y-124494226D02*
X65902193Y-124569464D01*
X65902193Y-124569464D02*
X65997431Y-124719940D01*
X65997431Y-124719940D02*
X66045050Y-125020892D01*
X66045050Y-125020892D02*
X66045050Y-125547559D01*
X66045050Y-125547559D02*
X65997431Y-125848511D01*
X65997431Y-125848511D02*
X65902193Y-125998988D01*
X65902193Y-125998988D02*
X65806955Y-126074226D01*
X65806955Y-126074226D02*
X65616479Y-126074226D01*
X65616479Y-126074226D02*
X65521241Y-125998988D01*
X65521241Y-125998988D02*
X65426003Y-125848511D01*
X65426003Y-125848511D02*
X65378384Y-125547559D01*
X65378384Y-125547559D02*
X65378384Y-125020892D01*
X65378384Y-125020892D02*
X65426003Y-124719940D01*
X65426003Y-124719940D02*
X65521241Y-124569464D01*
X65521241Y-124569464D02*
X65616479Y-124494226D01*
X63664098Y-128617938D02*
X63664098Y-127037938D01*
X63664098Y-127037938D02*
X64045050Y-127037938D01*
X64045050Y-127037938D02*
X64140288Y-127113176D01*
X64140288Y-127113176D02*
X64187907Y-127188414D01*
X64187907Y-127188414D02*
X64235526Y-127338890D01*
X64235526Y-127338890D02*
X64235526Y-127564604D01*
X64235526Y-127564604D02*
X64187907Y-127715080D01*
X64187907Y-127715080D02*
X64140288Y-127790319D01*
X64140288Y-127790319D02*
X64045050Y-127865557D01*
X64045050Y-127865557D02*
X63664098Y-127865557D01*
X64616479Y-128166509D02*
X65092669Y-128166509D01*
X64521241Y-128617938D02*
X64854574Y-127037938D01*
X64854574Y-127037938D02*
X65187907Y-128617938D01*
X65949812Y-127564604D02*
X65949812Y-128617938D01*
X65711717Y-126962700D02*
X65473622Y-128091271D01*
X65473622Y-128091271D02*
X66092669Y-128091271D01*
X63664098Y-131161650D02*
X63664098Y-129581650D01*
X63664098Y-129581650D02*
X64045050Y-129581650D01*
X64045050Y-129581650D02*
X64140288Y-129656888D01*
X64140288Y-129656888D02*
X64187907Y-129732126D01*
X64187907Y-129732126D02*
X64235526Y-129882602D01*
X64235526Y-129882602D02*
X64235526Y-130108316D01*
X64235526Y-130108316D02*
X64187907Y-130258792D01*
X64187907Y-130258792D02*
X64140288Y-130334031D01*
X64140288Y-130334031D02*
X64045050Y-130409269D01*
X64045050Y-130409269D02*
X63664098Y-130409269D01*
X64616479Y-130710221D02*
X65092669Y-130710221D01*
X64521241Y-131161650D02*
X64854574Y-129581650D01*
X64854574Y-129581650D02*
X65187907Y-131161650D01*
X66045050Y-131161650D02*
X65473622Y-131161650D01*
X65759336Y-131161650D02*
X65759336Y-129581650D01*
X65759336Y-129581650D02*
X65664098Y-129807364D01*
X65664098Y-129807364D02*
X65568860Y-129957840D01*
X65568860Y-129957840D02*
X65473622Y-130033078D01*
X63664098Y-133705362D02*
X63664098Y-132125362D01*
X63664098Y-132125362D02*
X64045050Y-132125362D01*
X64045050Y-132125362D02*
X64140288Y-132200600D01*
X64140288Y-132200600D02*
X64187907Y-132275838D01*
X64187907Y-132275838D02*
X64235526Y-132426314D01*
X64235526Y-132426314D02*
X64235526Y-132652028D01*
X64235526Y-132652028D02*
X64187907Y-132802504D01*
X64187907Y-132802504D02*
X64140288Y-132877743D01*
X64140288Y-132877743D02*
X64045050Y-132952981D01*
X64045050Y-132952981D02*
X63664098Y-132952981D01*
X64616479Y-133253933D02*
X65092669Y-133253933D01*
X64521241Y-133705362D02*
X64854574Y-132125362D01*
X64854574Y-132125362D02*
X65187907Y-133705362D01*
X65711717Y-132125362D02*
X65806955Y-132125362D01*
X65806955Y-132125362D02*
X65902193Y-132200600D01*
X65902193Y-132200600D02*
X65949812Y-132275838D01*
X65949812Y-132275838D02*
X65997431Y-132426314D01*
X65997431Y-132426314D02*
X66045050Y-132727266D01*
X66045050Y-132727266D02*
X66045050Y-133103457D01*
X66045050Y-133103457D02*
X65997431Y-133404409D01*
X65997431Y-133404409D02*
X65949812Y-133554885D01*
X65949812Y-133554885D02*
X65902193Y-133630124D01*
X65902193Y-133630124D02*
X65806955Y-133705362D01*
X65806955Y-133705362D02*
X65711717Y-133705362D01*
X65711717Y-133705362D02*
X65616479Y-133630124D01*
X65616479Y-133630124D02*
X65568860Y-133554885D01*
X65568860Y-133554885D02*
X65521241Y-133404409D01*
X65521241Y-133404409D02*
X65473622Y-133103457D01*
X65473622Y-133103457D02*
X65473622Y-132727266D01*
X65473622Y-132727266D02*
X65521241Y-132426314D01*
X65521241Y-132426314D02*
X65568860Y-132275838D01*
X65568860Y-132275838D02*
X65616479Y-132200600D01*
X65616479Y-132200600D02*
X65711717Y-132125362D01*
X63949813Y-134669074D02*
X64283146Y-136249074D01*
X64283146Y-136249074D02*
X64616479Y-134669074D01*
X64949813Y-136249074D02*
X64949813Y-134669074D01*
X65426003Y-136249074D02*
X65426003Y-134669074D01*
X65426003Y-134669074D02*
X65997431Y-136249074D01*
X65997431Y-136249074D02*
X65997431Y-134669074D01*
X118233333Y-104367461D02*
X118185714Y-104442700D01*
X118185714Y-104442700D02*
X118042857Y-104517938D01*
X118042857Y-104517938D02*
X117947619Y-104517938D01*
X117947619Y-104517938D02*
X117804762Y-104442700D01*
X117804762Y-104442700D02*
X117709524Y-104292223D01*
X117709524Y-104292223D02*
X117661905Y-104141747D01*
X117661905Y-104141747D02*
X117614286Y-103840795D01*
X117614286Y-103840795D02*
X117614286Y-103615080D01*
X117614286Y-103615080D02*
X117661905Y-103314128D01*
X117661905Y-103314128D02*
X117709524Y-103163652D01*
X117709524Y-103163652D02*
X117804762Y-103013176D01*
X117804762Y-103013176D02*
X117947619Y-102937938D01*
X117947619Y-102937938D02*
X118042857Y-102937938D01*
X118042857Y-102937938D02*
X118185714Y-103013176D01*
X118185714Y-103013176D02*
X118233333Y-103088414D01*
X118661905Y-104517938D02*
X118661905Y-102937938D01*
X118661905Y-102937938D02*
X119233333Y-104517938D01*
X119233333Y-104517938D02*
X119233333Y-102937938D01*
X120233333Y-104517938D02*
X119661905Y-104517938D01*
X119947619Y-104517938D02*
X119947619Y-102937938D01*
X119947619Y-102937938D02*
X119852381Y-103163652D01*
X119852381Y-103163652D02*
X119757143Y-103314128D01*
X119757143Y-103314128D02*
X119661905Y-103389366D01*
X120852381Y-102937938D02*
X120947619Y-102937938D01*
X120947619Y-102937938D02*
X121042857Y-103013176D01*
X121042857Y-103013176D02*
X121090476Y-103088414D01*
X121090476Y-103088414D02*
X121138095Y-103238890D01*
X121138095Y-103238890D02*
X121185714Y-103539842D01*
X121185714Y-103539842D02*
X121185714Y-103916033D01*
X121185714Y-103916033D02*
X121138095Y-104216985D01*
X121138095Y-104216985D02*
X121090476Y-104367461D01*
X121090476Y-104367461D02*
X121042857Y-104442700D01*
X121042857Y-104442700D02*
X120947619Y-104517938D01*
X120947619Y-104517938D02*
X120852381Y-104517938D01*
X120852381Y-104517938D02*
X120757143Y-104442700D01*
X120757143Y-104442700D02*
X120709524Y-104367461D01*
X120709524Y-104367461D02*
X120661905Y-104216985D01*
X120661905Y-104216985D02*
X120614286Y-103916033D01*
X120614286Y-103916033D02*
X120614286Y-103539842D01*
X120614286Y-103539842D02*
X120661905Y-103238890D01*
X120661905Y-103238890D02*
X120709524Y-103088414D01*
X120709524Y-103088414D02*
X120757143Y-103013176D01*
X120757143Y-103013176D02*
X120852381Y-102937938D01*
X57609523Y-104667461D02*
X57561904Y-104742700D01*
X57561904Y-104742700D02*
X57419047Y-104817938D01*
X57419047Y-104817938D02*
X57323809Y-104817938D01*
X57323809Y-104817938D02*
X57180952Y-104742700D01*
X57180952Y-104742700D02*
X57085714Y-104592223D01*
X57085714Y-104592223D02*
X57038095Y-104441747D01*
X57038095Y-104441747D02*
X56990476Y-104140795D01*
X56990476Y-104140795D02*
X56990476Y-103915080D01*
X56990476Y-103915080D02*
X57038095Y-103614128D01*
X57038095Y-103614128D02*
X57085714Y-103463652D01*
X57085714Y-103463652D02*
X57180952Y-103313176D01*
X57180952Y-103313176D02*
X57323809Y-103237938D01*
X57323809Y-103237938D02*
X57419047Y-103237938D01*
X57419047Y-103237938D02*
X57561904Y-103313176D01*
X57561904Y-103313176D02*
X57609523Y-103388414D01*
X58038095Y-104817938D02*
X58038095Y-103237938D01*
X58038095Y-103237938D02*
X58609523Y-104817938D01*
X58609523Y-104817938D02*
X58609523Y-103237938D01*
X58990476Y-103237938D02*
X59657142Y-103237938D01*
X59657142Y-103237938D02*
X59228571Y-104817938D01*
D12*
X44266666Y-123954819D02*
X44266666Y-124669104D01*
X44266666Y-124669104D02*
X44219047Y-124811961D01*
X44219047Y-124811961D02*
X44123809Y-124907200D01*
X44123809Y-124907200D02*
X43980952Y-124954819D01*
X43980952Y-124954819D02*
X43885714Y-124954819D01*
X44647619Y-123954819D02*
X45314285Y-123954819D01*
X45314285Y-123954819D02*
X44885714Y-124954819D01*
X38266666Y-123954819D02*
X38266666Y-124669104D01*
X38266666Y-124669104D02*
X38219047Y-124811961D01*
X38219047Y-124811961D02*
X38123809Y-124907200D01*
X38123809Y-124907200D02*
X37980952Y-124954819D01*
X37980952Y-124954819D02*
X37885714Y-124954819D01*
X38647619Y-123954819D02*
X39266666Y-123954819D01*
X39266666Y-123954819D02*
X38933333Y-124335771D01*
X38933333Y-124335771D02*
X39076190Y-124335771D01*
X39076190Y-124335771D02*
X39171428Y-124383390D01*
X39171428Y-124383390D02*
X39219047Y-124431009D01*
X39219047Y-124431009D02*
X39266666Y-124526247D01*
X39266666Y-124526247D02*
X39266666Y-124764342D01*
X39266666Y-124764342D02*
X39219047Y-124859580D01*
X39219047Y-124859580D02*
X39171428Y-124907200D01*
X39171428Y-124907200D02*
X39076190Y-124954819D01*
X39076190Y-124954819D02*
X38790476Y-124954819D01*
X38790476Y-124954819D02*
X38695238Y-124907200D01*
X38695238Y-124907200D02*
X38647619Y-124859580D01*
D10*
X32668860Y-128118242D02*
X32668860Y-126538242D01*
X32668860Y-126538242D02*
X33049812Y-126538242D01*
X33049812Y-126538242D02*
X33145050Y-126613480D01*
X33145050Y-126613480D02*
X33192669Y-126688718D01*
X33192669Y-126688718D02*
X33240288Y-126839194D01*
X33240288Y-126839194D02*
X33240288Y-127064908D01*
X33240288Y-127064908D02*
X33192669Y-127215384D01*
X33192669Y-127215384D02*
X33145050Y-127290623D01*
X33145050Y-127290623D02*
X33049812Y-127365861D01*
X33049812Y-127365861D02*
X32668860Y-127365861D01*
X34240288Y-127967765D02*
X34192669Y-128043004D01*
X34192669Y-128043004D02*
X34049812Y-128118242D01*
X34049812Y-128118242D02*
X33954574Y-128118242D01*
X33954574Y-128118242D02*
X33811717Y-128043004D01*
X33811717Y-128043004D02*
X33716479Y-127892527D01*
X33716479Y-127892527D02*
X33668860Y-127742051D01*
X33668860Y-127742051D02*
X33621241Y-127441099D01*
X33621241Y-127441099D02*
X33621241Y-127215384D01*
X33621241Y-127215384D02*
X33668860Y-126914432D01*
X33668860Y-126914432D02*
X33716479Y-126763956D01*
X33716479Y-126763956D02*
X33811717Y-126613480D01*
X33811717Y-126613480D02*
X33954574Y-126538242D01*
X33954574Y-126538242D02*
X34049812Y-126538242D01*
X34049812Y-126538242D02*
X34192669Y-126613480D01*
X34192669Y-126613480D02*
X34240288Y-126688718D01*
X35192669Y-128118242D02*
X34621241Y-128118242D01*
X34906955Y-128118242D02*
X34906955Y-126538242D01*
X34906955Y-126538242D02*
X34811717Y-126763956D01*
X34811717Y-126763956D02*
X34716479Y-126914432D01*
X34716479Y-126914432D02*
X34621241Y-126989670D01*
X35811717Y-126538242D02*
X35906955Y-126538242D01*
X35906955Y-126538242D02*
X36002193Y-126613480D01*
X36002193Y-126613480D02*
X36049812Y-126688718D01*
X36049812Y-126688718D02*
X36097431Y-126839194D01*
X36097431Y-126839194D02*
X36145050Y-127140146D01*
X36145050Y-127140146D02*
X36145050Y-127516337D01*
X36145050Y-127516337D02*
X36097431Y-127817289D01*
X36097431Y-127817289D02*
X36049812Y-127967765D01*
X36049812Y-127967765D02*
X36002193Y-128043004D01*
X36002193Y-128043004D02*
X35906955Y-128118242D01*
X35906955Y-128118242D02*
X35811717Y-128118242D01*
X35811717Y-128118242D02*
X35716479Y-128043004D01*
X35716479Y-128043004D02*
X35668860Y-127967765D01*
X35668860Y-127967765D02*
X35621241Y-127817289D01*
X35621241Y-127817289D02*
X35573622Y-127516337D01*
X35573622Y-127516337D02*
X35573622Y-127140146D01*
X35573622Y-127140146D02*
X35621241Y-126839194D01*
X35621241Y-126839194D02*
X35668860Y-126688718D01*
X35668860Y-126688718D02*
X35716479Y-126613480D01*
X35716479Y-126613480D02*
X35811717Y-126538242D01*
X32668860Y-130661954D02*
X32668860Y-129081954D01*
X32668860Y-129081954D02*
X33049812Y-129081954D01*
X33049812Y-129081954D02*
X33145050Y-129157192D01*
X33145050Y-129157192D02*
X33192669Y-129232430D01*
X33192669Y-129232430D02*
X33240288Y-129382906D01*
X33240288Y-129382906D02*
X33240288Y-129608620D01*
X33240288Y-129608620D02*
X33192669Y-129759096D01*
X33192669Y-129759096D02*
X33145050Y-129834335D01*
X33145050Y-129834335D02*
X33049812Y-129909573D01*
X33049812Y-129909573D02*
X32668860Y-129909573D01*
X34240288Y-130511477D02*
X34192669Y-130586716D01*
X34192669Y-130586716D02*
X34049812Y-130661954D01*
X34049812Y-130661954D02*
X33954574Y-130661954D01*
X33954574Y-130661954D02*
X33811717Y-130586716D01*
X33811717Y-130586716D02*
X33716479Y-130436239D01*
X33716479Y-130436239D02*
X33668860Y-130285763D01*
X33668860Y-130285763D02*
X33621241Y-129984811D01*
X33621241Y-129984811D02*
X33621241Y-129759096D01*
X33621241Y-129759096D02*
X33668860Y-129458144D01*
X33668860Y-129458144D02*
X33716479Y-129307668D01*
X33716479Y-129307668D02*
X33811717Y-129157192D01*
X33811717Y-129157192D02*
X33954574Y-129081954D01*
X33954574Y-129081954D02*
X34049812Y-129081954D01*
X34049812Y-129081954D02*
X34192669Y-129157192D01*
X34192669Y-129157192D02*
X34240288Y-129232430D01*
X35192669Y-130661954D02*
X34621241Y-130661954D01*
X34906955Y-130661954D02*
X34906955Y-129081954D01*
X34906955Y-129081954D02*
X34811717Y-129307668D01*
X34811717Y-129307668D02*
X34716479Y-129458144D01*
X34716479Y-129458144D02*
X34621241Y-129533382D01*
X35573622Y-129232430D02*
X35621241Y-129157192D01*
X35621241Y-129157192D02*
X35716479Y-129081954D01*
X35716479Y-129081954D02*
X35954574Y-129081954D01*
X35954574Y-129081954D02*
X36049812Y-129157192D01*
X36049812Y-129157192D02*
X36097431Y-129232430D01*
X36097431Y-129232430D02*
X36145050Y-129382906D01*
X36145050Y-129382906D02*
X36145050Y-129533382D01*
X36145050Y-129533382D02*
X36097431Y-129759096D01*
X36097431Y-129759096D02*
X35526003Y-130661954D01*
X35526003Y-130661954D02*
X36145050Y-130661954D01*
X33573622Y-131625666D02*
X33906955Y-133205666D01*
X33906955Y-133205666D02*
X34240288Y-131625666D01*
X34573622Y-133205666D02*
X34573622Y-131625666D01*
X34573622Y-131625666D02*
X34811717Y-131625666D01*
X34811717Y-131625666D02*
X34954574Y-131700904D01*
X34954574Y-131700904D02*
X35049812Y-131851380D01*
X35049812Y-131851380D02*
X35097431Y-132001856D01*
X35097431Y-132001856D02*
X35145050Y-132302808D01*
X35145050Y-132302808D02*
X35145050Y-132528523D01*
X35145050Y-132528523D02*
X35097431Y-132829475D01*
X35097431Y-132829475D02*
X35049812Y-132979951D01*
X35049812Y-132979951D02*
X34954574Y-133130428D01*
X34954574Y-133130428D02*
X34811717Y-133205666D01*
X34811717Y-133205666D02*
X34573622Y-133205666D01*
X35573622Y-133205666D02*
X35573622Y-131625666D01*
X35573622Y-131625666D02*
X35811717Y-131625666D01*
X35811717Y-131625666D02*
X35954574Y-131700904D01*
X35954574Y-131700904D02*
X36049812Y-131851380D01*
X36049812Y-131851380D02*
X36097431Y-132001856D01*
X36097431Y-132001856D02*
X36145050Y-132302808D01*
X36145050Y-132302808D02*
X36145050Y-132528523D01*
X36145050Y-132528523D02*
X36097431Y-132829475D01*
X36097431Y-132829475D02*
X36049812Y-132979951D01*
X36049812Y-132979951D02*
X35954574Y-133130428D01*
X35954574Y-133130428D02*
X35811717Y-133205666D01*
X35811717Y-133205666D02*
X35573622Y-133205666D01*
X32811717Y-135749378D02*
X32811717Y-134169378D01*
X32811717Y-134169378D02*
X33192669Y-134169378D01*
X33192669Y-134169378D02*
X33287907Y-134244616D01*
X33287907Y-134244616D02*
X33335526Y-134319854D01*
X33335526Y-134319854D02*
X33383145Y-134470330D01*
X33383145Y-134470330D02*
X33383145Y-134696044D01*
X33383145Y-134696044D02*
X33335526Y-134846520D01*
X33335526Y-134846520D02*
X33287907Y-134921759D01*
X33287907Y-134921759D02*
X33192669Y-134996997D01*
X33192669Y-134996997D02*
X32811717Y-134996997D01*
X33764098Y-135297949D02*
X34240288Y-135297949D01*
X33668860Y-135749378D02*
X34002193Y-134169378D01*
X34002193Y-134169378D02*
X34335526Y-135749378D01*
X35192669Y-135749378D02*
X34621241Y-135749378D01*
X34906955Y-135749378D02*
X34906955Y-134169378D01*
X34906955Y-134169378D02*
X34811717Y-134395092D01*
X34811717Y-134395092D02*
X34716479Y-134545568D01*
X34716479Y-134545568D02*
X34621241Y-134620806D01*
X36097431Y-134169378D02*
X35621241Y-134169378D01*
X35621241Y-134169378D02*
X35573622Y-134921759D01*
X35573622Y-134921759D02*
X35621241Y-134846520D01*
X35621241Y-134846520D02*
X35716479Y-134771282D01*
X35716479Y-134771282D02*
X35954574Y-134771282D01*
X35954574Y-134771282D02*
X36049812Y-134846520D01*
X36049812Y-134846520D02*
X36097431Y-134921759D01*
X36097431Y-134921759D02*
X36145050Y-135072235D01*
X36145050Y-135072235D02*
X36145050Y-135448425D01*
X36145050Y-135448425D02*
X36097431Y-135598901D01*
X36097431Y-135598901D02*
X36049812Y-135674140D01*
X36049812Y-135674140D02*
X35954574Y-135749378D01*
X35954574Y-135749378D02*
X35716479Y-135749378D01*
X35716479Y-135749378D02*
X35621241Y-135674140D01*
X35621241Y-135674140D02*
X35573622Y-135598901D01*
X33621241Y-138293090D02*
X33621241Y-136713090D01*
X33621241Y-136713090D02*
X34002193Y-136713090D01*
X34002193Y-136713090D02*
X34097431Y-136788328D01*
X34097431Y-136788328D02*
X34145050Y-136863566D01*
X34145050Y-136863566D02*
X34192669Y-137014042D01*
X34192669Y-137014042D02*
X34192669Y-137239756D01*
X34192669Y-137239756D02*
X34145050Y-137390232D01*
X34145050Y-137390232D02*
X34097431Y-137465471D01*
X34097431Y-137465471D02*
X34002193Y-137540709D01*
X34002193Y-137540709D02*
X33621241Y-137540709D01*
X34954574Y-137465471D02*
X35097431Y-137540709D01*
X35097431Y-137540709D02*
X35145050Y-137615947D01*
X35145050Y-137615947D02*
X35192669Y-137766423D01*
X35192669Y-137766423D02*
X35192669Y-137992137D01*
X35192669Y-137992137D02*
X35145050Y-138142613D01*
X35145050Y-138142613D02*
X35097431Y-138217852D01*
X35097431Y-138217852D02*
X35002193Y-138293090D01*
X35002193Y-138293090D02*
X34621241Y-138293090D01*
X34621241Y-138293090D02*
X34621241Y-136713090D01*
X34621241Y-136713090D02*
X34954574Y-136713090D01*
X34954574Y-136713090D02*
X35049812Y-136788328D01*
X35049812Y-136788328D02*
X35097431Y-136863566D01*
X35097431Y-136863566D02*
X35145050Y-137014042D01*
X35145050Y-137014042D02*
X35145050Y-137164518D01*
X35145050Y-137164518D02*
X35097431Y-137314994D01*
X35097431Y-137314994D02*
X35049812Y-137390232D01*
X35049812Y-137390232D02*
X34954574Y-137465471D01*
X34954574Y-137465471D02*
X34621241Y-137465471D01*
X35526003Y-136713090D02*
X36192669Y-136713090D01*
X36192669Y-136713090D02*
X35764098Y-138293090D01*
X32668860Y-140836802D02*
X32668860Y-139256802D01*
X32668860Y-139256802D02*
X33049812Y-139256802D01*
X33049812Y-139256802D02*
X33145050Y-139332040D01*
X33145050Y-139332040D02*
X33192669Y-139407278D01*
X33192669Y-139407278D02*
X33240288Y-139557754D01*
X33240288Y-139557754D02*
X33240288Y-139783468D01*
X33240288Y-139783468D02*
X33192669Y-139933944D01*
X33192669Y-139933944D02*
X33145050Y-140009183D01*
X33145050Y-140009183D02*
X33049812Y-140084421D01*
X33049812Y-140084421D02*
X32668860Y-140084421D01*
X34240288Y-140686325D02*
X34192669Y-140761564D01*
X34192669Y-140761564D02*
X34049812Y-140836802D01*
X34049812Y-140836802D02*
X33954574Y-140836802D01*
X33954574Y-140836802D02*
X33811717Y-140761564D01*
X33811717Y-140761564D02*
X33716479Y-140611087D01*
X33716479Y-140611087D02*
X33668860Y-140460611D01*
X33668860Y-140460611D02*
X33621241Y-140159659D01*
X33621241Y-140159659D02*
X33621241Y-139933944D01*
X33621241Y-139933944D02*
X33668860Y-139632992D01*
X33668860Y-139632992D02*
X33716479Y-139482516D01*
X33716479Y-139482516D02*
X33811717Y-139332040D01*
X33811717Y-139332040D02*
X33954574Y-139256802D01*
X33954574Y-139256802D02*
X34049812Y-139256802D01*
X34049812Y-139256802D02*
X34192669Y-139332040D01*
X34192669Y-139332040D02*
X34240288Y-139407278D01*
X35192669Y-140836802D02*
X34621241Y-140836802D01*
X34906955Y-140836802D02*
X34906955Y-139256802D01*
X34906955Y-139256802D02*
X34811717Y-139482516D01*
X34811717Y-139482516D02*
X34716479Y-139632992D01*
X34716479Y-139632992D02*
X34621241Y-139708230D01*
X35526003Y-139256802D02*
X36145050Y-139256802D01*
X36145050Y-139256802D02*
X35811717Y-139858706D01*
X35811717Y-139858706D02*
X35954574Y-139858706D01*
X35954574Y-139858706D02*
X36049812Y-139933944D01*
X36049812Y-139933944D02*
X36097431Y-140009183D01*
X36097431Y-140009183D02*
X36145050Y-140159659D01*
X36145050Y-140159659D02*
X36145050Y-140535849D01*
X36145050Y-140535849D02*
X36097431Y-140686325D01*
X36097431Y-140686325D02*
X36049812Y-140761564D01*
X36049812Y-140761564D02*
X35954574Y-140836802D01*
X35954574Y-140836802D02*
X35668860Y-140836802D01*
X35668860Y-140836802D02*
X35573622Y-140761564D01*
X35573622Y-140761564D02*
X35526003Y-140686325D01*
X32668860Y-143380514D02*
X32668860Y-141800514D01*
X32668860Y-141800514D02*
X33049812Y-141800514D01*
X33049812Y-141800514D02*
X33145050Y-141875752D01*
X33145050Y-141875752D02*
X33192669Y-141950990D01*
X33192669Y-141950990D02*
X33240288Y-142101466D01*
X33240288Y-142101466D02*
X33240288Y-142327180D01*
X33240288Y-142327180D02*
X33192669Y-142477656D01*
X33192669Y-142477656D02*
X33145050Y-142552895D01*
X33145050Y-142552895D02*
X33049812Y-142628133D01*
X33049812Y-142628133D02*
X32668860Y-142628133D01*
X34240288Y-143230037D02*
X34192669Y-143305276D01*
X34192669Y-143305276D02*
X34049812Y-143380514D01*
X34049812Y-143380514D02*
X33954574Y-143380514D01*
X33954574Y-143380514D02*
X33811717Y-143305276D01*
X33811717Y-143305276D02*
X33716479Y-143154799D01*
X33716479Y-143154799D02*
X33668860Y-143004323D01*
X33668860Y-143004323D02*
X33621241Y-142703371D01*
X33621241Y-142703371D02*
X33621241Y-142477656D01*
X33621241Y-142477656D02*
X33668860Y-142176704D01*
X33668860Y-142176704D02*
X33716479Y-142026228D01*
X33716479Y-142026228D02*
X33811717Y-141875752D01*
X33811717Y-141875752D02*
X33954574Y-141800514D01*
X33954574Y-141800514D02*
X34049812Y-141800514D01*
X34049812Y-141800514D02*
X34192669Y-141875752D01*
X34192669Y-141875752D02*
X34240288Y-141950990D01*
X35192669Y-143380514D02*
X34621241Y-143380514D01*
X34906955Y-143380514D02*
X34906955Y-141800514D01*
X34906955Y-141800514D02*
X34811717Y-142026228D01*
X34811717Y-142026228D02*
X34716479Y-142176704D01*
X34716479Y-142176704D02*
X34621241Y-142251942D01*
X36049812Y-142327180D02*
X36049812Y-143380514D01*
X35811717Y-141725276D02*
X35573622Y-142853847D01*
X35573622Y-142853847D02*
X36192669Y-142853847D01*
X32668860Y-145924226D02*
X32668860Y-144344226D01*
X32668860Y-144344226D02*
X33049812Y-144344226D01*
X33049812Y-144344226D02*
X33145050Y-144419464D01*
X33145050Y-144419464D02*
X33192669Y-144494702D01*
X33192669Y-144494702D02*
X33240288Y-144645178D01*
X33240288Y-144645178D02*
X33240288Y-144870892D01*
X33240288Y-144870892D02*
X33192669Y-145021368D01*
X33192669Y-145021368D02*
X33145050Y-145096607D01*
X33145050Y-145096607D02*
X33049812Y-145171845D01*
X33049812Y-145171845D02*
X32668860Y-145171845D01*
X34240288Y-145773749D02*
X34192669Y-145848988D01*
X34192669Y-145848988D02*
X34049812Y-145924226D01*
X34049812Y-145924226D02*
X33954574Y-145924226D01*
X33954574Y-145924226D02*
X33811717Y-145848988D01*
X33811717Y-145848988D02*
X33716479Y-145698511D01*
X33716479Y-145698511D02*
X33668860Y-145548035D01*
X33668860Y-145548035D02*
X33621241Y-145247083D01*
X33621241Y-145247083D02*
X33621241Y-145021368D01*
X33621241Y-145021368D02*
X33668860Y-144720416D01*
X33668860Y-144720416D02*
X33716479Y-144569940D01*
X33716479Y-144569940D02*
X33811717Y-144419464D01*
X33811717Y-144419464D02*
X33954574Y-144344226D01*
X33954574Y-144344226D02*
X34049812Y-144344226D01*
X34049812Y-144344226D02*
X34192669Y-144419464D01*
X34192669Y-144419464D02*
X34240288Y-144494702D01*
X35192669Y-145924226D02*
X34621241Y-145924226D01*
X34906955Y-145924226D02*
X34906955Y-144344226D01*
X34906955Y-144344226D02*
X34811717Y-144569940D01*
X34811717Y-144569940D02*
X34716479Y-144720416D01*
X34716479Y-144720416D02*
X34621241Y-144795654D01*
X36097431Y-144344226D02*
X35621241Y-144344226D01*
X35621241Y-144344226D02*
X35573622Y-145096607D01*
X35573622Y-145096607D02*
X35621241Y-145021368D01*
X35621241Y-145021368D02*
X35716479Y-144946130D01*
X35716479Y-144946130D02*
X35954574Y-144946130D01*
X35954574Y-144946130D02*
X36049812Y-145021368D01*
X36049812Y-145021368D02*
X36097431Y-145096607D01*
X36097431Y-145096607D02*
X36145050Y-145247083D01*
X36145050Y-145247083D02*
X36145050Y-145623273D01*
X36145050Y-145623273D02*
X36097431Y-145773749D01*
X36097431Y-145773749D02*
X36049812Y-145848988D01*
X36049812Y-145848988D02*
X35954574Y-145924226D01*
X35954574Y-145924226D02*
X35716479Y-145924226D01*
X35716479Y-145924226D02*
X35621241Y-145848988D01*
X35621241Y-145848988D02*
X35573622Y-145773749D01*
X33573622Y-148467938D02*
X33573622Y-146887938D01*
X33573622Y-146887938D02*
X33954574Y-146887938D01*
X33954574Y-146887938D02*
X34049812Y-146963176D01*
X34049812Y-146963176D02*
X34097431Y-147038414D01*
X34097431Y-147038414D02*
X34145050Y-147188890D01*
X34145050Y-147188890D02*
X34145050Y-147414604D01*
X34145050Y-147414604D02*
X34097431Y-147565080D01*
X34097431Y-147565080D02*
X34049812Y-147640319D01*
X34049812Y-147640319D02*
X33954574Y-147715557D01*
X33954574Y-147715557D02*
X33573622Y-147715557D01*
X34573622Y-148467938D02*
X34573622Y-146887938D01*
X34573622Y-147640319D02*
X35145050Y-147640319D01*
X35145050Y-148467938D02*
X35145050Y-146887938D01*
X35811717Y-146887938D02*
X35906955Y-146887938D01*
X35906955Y-146887938D02*
X36002193Y-146963176D01*
X36002193Y-146963176D02*
X36049812Y-147038414D01*
X36049812Y-147038414D02*
X36097431Y-147188890D01*
X36097431Y-147188890D02*
X36145050Y-147489842D01*
X36145050Y-147489842D02*
X36145050Y-147866033D01*
X36145050Y-147866033D02*
X36097431Y-148166985D01*
X36097431Y-148166985D02*
X36049812Y-148317461D01*
X36049812Y-148317461D02*
X36002193Y-148392700D01*
X36002193Y-148392700D02*
X35906955Y-148467938D01*
X35906955Y-148467938D02*
X35811717Y-148467938D01*
X35811717Y-148467938D02*
X35716479Y-148392700D01*
X35716479Y-148392700D02*
X35668860Y-148317461D01*
X35668860Y-148317461D02*
X35621241Y-148166985D01*
X35621241Y-148166985D02*
X35573622Y-147866033D01*
X35573622Y-147866033D02*
X35573622Y-147489842D01*
X35573622Y-147489842D02*
X35621241Y-147188890D01*
X35621241Y-147188890D02*
X35668860Y-147038414D01*
X35668860Y-147038414D02*
X35716479Y-146963176D01*
X35716479Y-146963176D02*
X35811717Y-146887938D01*
X33573622Y-151011650D02*
X33573622Y-149431650D01*
X33573622Y-149431650D02*
X33954574Y-149431650D01*
X33954574Y-149431650D02*
X34049812Y-149506888D01*
X34049812Y-149506888D02*
X34097431Y-149582126D01*
X34097431Y-149582126D02*
X34145050Y-149732602D01*
X34145050Y-149732602D02*
X34145050Y-149958316D01*
X34145050Y-149958316D02*
X34097431Y-150108792D01*
X34097431Y-150108792D02*
X34049812Y-150184031D01*
X34049812Y-150184031D02*
X33954574Y-150259269D01*
X33954574Y-150259269D02*
X33573622Y-150259269D01*
X34573622Y-151011650D02*
X34573622Y-149431650D01*
X34573622Y-150184031D02*
X35145050Y-150184031D01*
X35145050Y-151011650D02*
X35145050Y-149431650D01*
X36145050Y-151011650D02*
X35573622Y-151011650D01*
X35859336Y-151011650D02*
X35859336Y-149431650D01*
X35859336Y-149431650D02*
X35764098Y-149657364D01*
X35764098Y-149657364D02*
X35668860Y-149807840D01*
X35668860Y-149807840D02*
X35573622Y-149883078D01*
X33621241Y-153555362D02*
X33621241Y-151975362D01*
X33621241Y-151975362D02*
X34002193Y-151975362D01*
X34002193Y-151975362D02*
X34097431Y-152050600D01*
X34097431Y-152050600D02*
X34145050Y-152125838D01*
X34145050Y-152125838D02*
X34192669Y-152276314D01*
X34192669Y-152276314D02*
X34192669Y-152502028D01*
X34192669Y-152502028D02*
X34145050Y-152652504D01*
X34145050Y-152652504D02*
X34097431Y-152727743D01*
X34097431Y-152727743D02*
X34002193Y-152802981D01*
X34002193Y-152802981D02*
X33621241Y-152802981D01*
X35192669Y-153404885D02*
X35145050Y-153480124D01*
X35145050Y-153480124D02*
X35002193Y-153555362D01*
X35002193Y-153555362D02*
X34906955Y-153555362D01*
X34906955Y-153555362D02*
X34764098Y-153480124D01*
X34764098Y-153480124D02*
X34668860Y-153329647D01*
X34668860Y-153329647D02*
X34621241Y-153179171D01*
X34621241Y-153179171D02*
X34573622Y-152878219D01*
X34573622Y-152878219D02*
X34573622Y-152652504D01*
X34573622Y-152652504D02*
X34621241Y-152351552D01*
X34621241Y-152351552D02*
X34668860Y-152201076D01*
X34668860Y-152201076D02*
X34764098Y-152050600D01*
X34764098Y-152050600D02*
X34906955Y-151975362D01*
X34906955Y-151975362D02*
X35002193Y-151975362D01*
X35002193Y-151975362D02*
X35145050Y-152050600D01*
X35145050Y-152050600D02*
X35192669Y-152125838D01*
X35573622Y-152125838D02*
X35621241Y-152050600D01*
X35621241Y-152050600D02*
X35716479Y-151975362D01*
X35716479Y-151975362D02*
X35954574Y-151975362D01*
X35954574Y-151975362D02*
X36049812Y-152050600D01*
X36049812Y-152050600D02*
X36097431Y-152125838D01*
X36097431Y-152125838D02*
X36145050Y-152276314D01*
X36145050Y-152276314D02*
X36145050Y-152426790D01*
X36145050Y-152426790D02*
X36097431Y-152652504D01*
X36097431Y-152652504D02*
X35526003Y-153555362D01*
X35526003Y-153555362D02*
X36145050Y-153555362D01*
X33621241Y-156099074D02*
X33621241Y-154519074D01*
X33621241Y-154519074D02*
X34002193Y-154519074D01*
X34002193Y-154519074D02*
X34097431Y-154594312D01*
X34097431Y-154594312D02*
X34145050Y-154669550D01*
X34145050Y-154669550D02*
X34192669Y-154820026D01*
X34192669Y-154820026D02*
X34192669Y-155045740D01*
X34192669Y-155045740D02*
X34145050Y-155196216D01*
X34145050Y-155196216D02*
X34097431Y-155271455D01*
X34097431Y-155271455D02*
X34002193Y-155346693D01*
X34002193Y-155346693D02*
X33621241Y-155346693D01*
X35192669Y-155948597D02*
X35145050Y-156023836D01*
X35145050Y-156023836D02*
X35002193Y-156099074D01*
X35002193Y-156099074D02*
X34906955Y-156099074D01*
X34906955Y-156099074D02*
X34764098Y-156023836D01*
X34764098Y-156023836D02*
X34668860Y-155873359D01*
X34668860Y-155873359D02*
X34621241Y-155722883D01*
X34621241Y-155722883D02*
X34573622Y-155421931D01*
X34573622Y-155421931D02*
X34573622Y-155196216D01*
X34573622Y-155196216D02*
X34621241Y-154895264D01*
X34621241Y-154895264D02*
X34668860Y-154744788D01*
X34668860Y-154744788D02*
X34764098Y-154594312D01*
X34764098Y-154594312D02*
X34906955Y-154519074D01*
X34906955Y-154519074D02*
X35002193Y-154519074D01*
X35002193Y-154519074D02*
X35145050Y-154594312D01*
X35145050Y-154594312D02*
X35192669Y-154669550D01*
X35526003Y-154519074D02*
X36145050Y-154519074D01*
X36145050Y-154519074D02*
X35811717Y-155120978D01*
X35811717Y-155120978D02*
X35954574Y-155120978D01*
X35954574Y-155120978D02*
X36049812Y-155196216D01*
X36049812Y-155196216D02*
X36097431Y-155271455D01*
X36097431Y-155271455D02*
X36145050Y-155421931D01*
X36145050Y-155421931D02*
X36145050Y-155798121D01*
X36145050Y-155798121D02*
X36097431Y-155948597D01*
X36097431Y-155948597D02*
X36049812Y-156023836D01*
X36049812Y-156023836D02*
X35954574Y-156099074D01*
X35954574Y-156099074D02*
X35668860Y-156099074D01*
X35668860Y-156099074D02*
X35573622Y-156023836D01*
X35573622Y-156023836D02*
X35526003Y-155948597D01*
X33526003Y-158040881D02*
X34287908Y-158040881D01*
X33906955Y-158642786D02*
X33906955Y-157438976D01*
X35240288Y-157062786D02*
X34764098Y-157062786D01*
X34764098Y-157062786D02*
X34716479Y-157815167D01*
X34716479Y-157815167D02*
X34764098Y-157739928D01*
X34764098Y-157739928D02*
X34859336Y-157664690D01*
X34859336Y-157664690D02*
X35097431Y-157664690D01*
X35097431Y-157664690D02*
X35192669Y-157739928D01*
X35192669Y-157739928D02*
X35240288Y-157815167D01*
X35240288Y-157815167D02*
X35287907Y-157965643D01*
X35287907Y-157965643D02*
X35287907Y-158341833D01*
X35287907Y-158341833D02*
X35240288Y-158492309D01*
X35240288Y-158492309D02*
X35192669Y-158567548D01*
X35192669Y-158567548D02*
X35097431Y-158642786D01*
X35097431Y-158642786D02*
X34859336Y-158642786D01*
X34859336Y-158642786D02*
X34764098Y-158567548D01*
X34764098Y-158567548D02*
X34716479Y-158492309D01*
X35573622Y-157062786D02*
X35906955Y-158642786D01*
X35906955Y-158642786D02*
X36240288Y-157062786D01*
X32573622Y-160584593D02*
X33335527Y-160584593D01*
X32954574Y-161186498D02*
X32954574Y-159982688D01*
X33716479Y-159606498D02*
X34335526Y-159606498D01*
X34335526Y-159606498D02*
X34002193Y-160208402D01*
X34002193Y-160208402D02*
X34145050Y-160208402D01*
X34145050Y-160208402D02*
X34240288Y-160283640D01*
X34240288Y-160283640D02*
X34287907Y-160358879D01*
X34287907Y-160358879D02*
X34335526Y-160509355D01*
X34335526Y-160509355D02*
X34335526Y-160885545D01*
X34335526Y-160885545D02*
X34287907Y-161036021D01*
X34287907Y-161036021D02*
X34240288Y-161111260D01*
X34240288Y-161111260D02*
X34145050Y-161186498D01*
X34145050Y-161186498D02*
X33859336Y-161186498D01*
X33859336Y-161186498D02*
X33764098Y-161111260D01*
X33764098Y-161111260D02*
X33716479Y-161036021D01*
X34621241Y-159606498D02*
X34954574Y-161186498D01*
X34954574Y-161186498D02*
X35287907Y-159606498D01*
X35526003Y-159606498D02*
X36145050Y-159606498D01*
X36145050Y-159606498D02*
X35811717Y-160208402D01*
X35811717Y-160208402D02*
X35954574Y-160208402D01*
X35954574Y-160208402D02*
X36049812Y-160283640D01*
X36049812Y-160283640D02*
X36097431Y-160358879D01*
X36097431Y-160358879D02*
X36145050Y-160509355D01*
X36145050Y-160509355D02*
X36145050Y-160885545D01*
X36145050Y-160885545D02*
X36097431Y-161036021D01*
X36097431Y-161036021D02*
X36049812Y-161111260D01*
X36049812Y-161111260D02*
X35954574Y-161186498D01*
X35954574Y-161186498D02*
X35668860Y-161186498D01*
X35668860Y-161186498D02*
X35573622Y-161111260D01*
X35573622Y-161111260D02*
X35526003Y-161036021D01*
X34049812Y-162225448D02*
X33954574Y-162150210D01*
X33954574Y-162150210D02*
X33811717Y-162150210D01*
X33811717Y-162150210D02*
X33668860Y-162225448D01*
X33668860Y-162225448D02*
X33573622Y-162375924D01*
X33573622Y-162375924D02*
X33526003Y-162526400D01*
X33526003Y-162526400D02*
X33478384Y-162827352D01*
X33478384Y-162827352D02*
X33478384Y-163053067D01*
X33478384Y-163053067D02*
X33526003Y-163354019D01*
X33526003Y-163354019D02*
X33573622Y-163504495D01*
X33573622Y-163504495D02*
X33668860Y-163654972D01*
X33668860Y-163654972D02*
X33811717Y-163730210D01*
X33811717Y-163730210D02*
X33906955Y-163730210D01*
X33906955Y-163730210D02*
X34049812Y-163654972D01*
X34049812Y-163654972D02*
X34097431Y-163579733D01*
X34097431Y-163579733D02*
X34097431Y-163053067D01*
X34097431Y-163053067D02*
X33906955Y-163053067D01*
X34526003Y-163730210D02*
X34526003Y-162150210D01*
X34526003Y-162150210D02*
X35097431Y-163730210D01*
X35097431Y-163730210D02*
X35097431Y-162150210D01*
X35573622Y-163730210D02*
X35573622Y-162150210D01*
X35573622Y-162150210D02*
X35811717Y-162150210D01*
X35811717Y-162150210D02*
X35954574Y-162225448D01*
X35954574Y-162225448D02*
X36049812Y-162375924D01*
X36049812Y-162375924D02*
X36097431Y-162526400D01*
X36097431Y-162526400D02*
X36145050Y-162827352D01*
X36145050Y-162827352D02*
X36145050Y-163053067D01*
X36145050Y-163053067D02*
X36097431Y-163354019D01*
X36097431Y-163354019D02*
X36049812Y-163504495D01*
X36049812Y-163504495D02*
X35954574Y-163654972D01*
X35954574Y-163654972D02*
X35811717Y-163730210D01*
X35811717Y-163730210D02*
X35573622Y-163730210D01*
X34049812Y-164769160D02*
X33954574Y-164693922D01*
X33954574Y-164693922D02*
X33811717Y-164693922D01*
X33811717Y-164693922D02*
X33668860Y-164769160D01*
X33668860Y-164769160D02*
X33573622Y-164919636D01*
X33573622Y-164919636D02*
X33526003Y-165070112D01*
X33526003Y-165070112D02*
X33478384Y-165371064D01*
X33478384Y-165371064D02*
X33478384Y-165596779D01*
X33478384Y-165596779D02*
X33526003Y-165897731D01*
X33526003Y-165897731D02*
X33573622Y-166048207D01*
X33573622Y-166048207D02*
X33668860Y-166198684D01*
X33668860Y-166198684D02*
X33811717Y-166273922D01*
X33811717Y-166273922D02*
X33906955Y-166273922D01*
X33906955Y-166273922D02*
X34049812Y-166198684D01*
X34049812Y-166198684D02*
X34097431Y-166123445D01*
X34097431Y-166123445D02*
X34097431Y-165596779D01*
X34097431Y-165596779D02*
X33906955Y-165596779D01*
X34526003Y-166273922D02*
X34526003Y-164693922D01*
X34526003Y-164693922D02*
X35097431Y-166273922D01*
X35097431Y-166273922D02*
X35097431Y-164693922D01*
X35573622Y-166273922D02*
X35573622Y-164693922D01*
X35573622Y-164693922D02*
X35811717Y-164693922D01*
X35811717Y-164693922D02*
X35954574Y-164769160D01*
X35954574Y-164769160D02*
X36049812Y-164919636D01*
X36049812Y-164919636D02*
X36097431Y-165070112D01*
X36097431Y-165070112D02*
X36145050Y-165371064D01*
X36145050Y-165371064D02*
X36145050Y-165596779D01*
X36145050Y-165596779D02*
X36097431Y-165897731D01*
X36097431Y-165897731D02*
X36049812Y-166048207D01*
X36049812Y-166048207D02*
X35954574Y-166198684D01*
X35954574Y-166198684D02*
X35811717Y-166273922D01*
X35811717Y-166273922D02*
X35573622Y-166273922D01*
X34049812Y-167312872D02*
X33954574Y-167237634D01*
X33954574Y-167237634D02*
X33811717Y-167237634D01*
X33811717Y-167237634D02*
X33668860Y-167312872D01*
X33668860Y-167312872D02*
X33573622Y-167463348D01*
X33573622Y-167463348D02*
X33526003Y-167613824D01*
X33526003Y-167613824D02*
X33478384Y-167914776D01*
X33478384Y-167914776D02*
X33478384Y-168140491D01*
X33478384Y-168140491D02*
X33526003Y-168441443D01*
X33526003Y-168441443D02*
X33573622Y-168591919D01*
X33573622Y-168591919D02*
X33668860Y-168742396D01*
X33668860Y-168742396D02*
X33811717Y-168817634D01*
X33811717Y-168817634D02*
X33906955Y-168817634D01*
X33906955Y-168817634D02*
X34049812Y-168742396D01*
X34049812Y-168742396D02*
X34097431Y-168667157D01*
X34097431Y-168667157D02*
X34097431Y-168140491D01*
X34097431Y-168140491D02*
X33906955Y-168140491D01*
X34526003Y-168817634D02*
X34526003Y-167237634D01*
X34526003Y-167237634D02*
X35097431Y-168817634D01*
X35097431Y-168817634D02*
X35097431Y-167237634D01*
X35573622Y-168817634D02*
X35573622Y-167237634D01*
X35573622Y-167237634D02*
X35811717Y-167237634D01*
X35811717Y-167237634D02*
X35954574Y-167312872D01*
X35954574Y-167312872D02*
X36049812Y-167463348D01*
X36049812Y-167463348D02*
X36097431Y-167613824D01*
X36097431Y-167613824D02*
X36145050Y-167914776D01*
X36145050Y-167914776D02*
X36145050Y-168140491D01*
X36145050Y-168140491D02*
X36097431Y-168441443D01*
X36097431Y-168441443D02*
X36049812Y-168591919D01*
X36049812Y-168591919D02*
X35954574Y-168742396D01*
X35954574Y-168742396D02*
X35811717Y-168817634D01*
X35811717Y-168817634D02*
X35573622Y-168817634D01*
D12*
X74666666Y-142074819D02*
X74666666Y-142789104D01*
X74666666Y-142789104D02*
X74619047Y-142931961D01*
X74619047Y-142931961D02*
X74523809Y-143027200D01*
X74523809Y-143027200D02*
X74380952Y-143074819D01*
X74380952Y-143074819D02*
X74285714Y-143074819D01*
X75285714Y-142503390D02*
X75190476Y-142455771D01*
X75190476Y-142455771D02*
X75142857Y-142408152D01*
X75142857Y-142408152D02*
X75095238Y-142312914D01*
X75095238Y-142312914D02*
X75095238Y-142265295D01*
X75095238Y-142265295D02*
X75142857Y-142170057D01*
X75142857Y-142170057D02*
X75190476Y-142122438D01*
X75190476Y-142122438D02*
X75285714Y-142074819D01*
X75285714Y-142074819D02*
X75476190Y-142074819D01*
X75476190Y-142074819D02*
X75571428Y-142122438D01*
X75571428Y-142122438D02*
X75619047Y-142170057D01*
X75619047Y-142170057D02*
X75666666Y-142265295D01*
X75666666Y-142265295D02*
X75666666Y-142312914D01*
X75666666Y-142312914D02*
X75619047Y-142408152D01*
X75619047Y-142408152D02*
X75571428Y-142455771D01*
X75571428Y-142455771D02*
X75476190Y-142503390D01*
X75476190Y-142503390D02*
X75285714Y-142503390D01*
X75285714Y-142503390D02*
X75190476Y-142551009D01*
X75190476Y-142551009D02*
X75142857Y-142598628D01*
X75142857Y-142598628D02*
X75095238Y-142693866D01*
X75095238Y-142693866D02*
X75095238Y-142884342D01*
X75095238Y-142884342D02*
X75142857Y-142979580D01*
X75142857Y-142979580D02*
X75190476Y-143027200D01*
X75190476Y-143027200D02*
X75285714Y-143074819D01*
X75285714Y-143074819D02*
X75476190Y-143074819D01*
X75476190Y-143074819D02*
X75571428Y-143027200D01*
X75571428Y-143027200D02*
X75619047Y-142979580D01*
X75619047Y-142979580D02*
X75666666Y-142884342D01*
X75666666Y-142884342D02*
X75666666Y-142693866D01*
X75666666Y-142693866D02*
X75619047Y-142598628D01*
X75619047Y-142598628D02*
X75571428Y-142551009D01*
X75571428Y-142551009D02*
X75476190Y-142503390D01*
X68366666Y-142074819D02*
X68366666Y-142789104D01*
X68366666Y-142789104D02*
X68319047Y-142931961D01*
X68319047Y-142931961D02*
X68223809Y-143027200D01*
X68223809Y-143027200D02*
X68080952Y-143074819D01*
X68080952Y-143074819D02*
X67985714Y-143074819D01*
X69271428Y-142408152D02*
X69271428Y-143074819D01*
X69033333Y-142027200D02*
X68795238Y-142741485D01*
X68795238Y-142741485D02*
X69414285Y-142741485D01*
X74866666Y-117214819D02*
X74866666Y-117929104D01*
X74866666Y-117929104D02*
X74819047Y-118071961D01*
X74819047Y-118071961D02*
X74723809Y-118167200D01*
X74723809Y-118167200D02*
X74580952Y-118214819D01*
X74580952Y-118214819D02*
X74485714Y-118214819D01*
X75295238Y-117310057D02*
X75342857Y-117262438D01*
X75342857Y-117262438D02*
X75438095Y-117214819D01*
X75438095Y-117214819D02*
X75676190Y-117214819D01*
X75676190Y-117214819D02*
X75771428Y-117262438D01*
X75771428Y-117262438D02*
X75819047Y-117310057D01*
X75819047Y-117310057D02*
X75866666Y-117405295D01*
X75866666Y-117405295D02*
X75866666Y-117500533D01*
X75866666Y-117500533D02*
X75819047Y-117643390D01*
X75819047Y-117643390D02*
X75247619Y-118214819D01*
X75247619Y-118214819D02*
X75866666Y-118214819D01*
X68466666Y-116964819D02*
X68466666Y-117679104D01*
X68466666Y-117679104D02*
X68419047Y-117821961D01*
X68419047Y-117821961D02*
X68323809Y-117917200D01*
X68323809Y-117917200D02*
X68180952Y-117964819D01*
X68180952Y-117964819D02*
X68085714Y-117964819D01*
X69466666Y-117964819D02*
X68895238Y-117964819D01*
X69180952Y-117964819D02*
X69180952Y-116964819D01*
X69180952Y-116964819D02*
X69085714Y-117107676D01*
X69085714Y-117107676D02*
X68990476Y-117202914D01*
X68990476Y-117202914D02*
X68895238Y-117250533D01*
D10*
X82577143Y-106467938D02*
X82577143Y-104887938D01*
X82577143Y-104887938D02*
X83148571Y-106467938D01*
X83148571Y-106467938D02*
X83148571Y-104887938D01*
X83624762Y-104887938D02*
X83624762Y-106166985D01*
X83624762Y-106166985D02*
X83672381Y-106317461D01*
X83672381Y-106317461D02*
X83720000Y-106392700D01*
X83720000Y-106392700D02*
X83815238Y-106467938D01*
X83815238Y-106467938D02*
X84005714Y-106467938D01*
X84005714Y-106467938D02*
X84100952Y-106392700D01*
X84100952Y-106392700D02*
X84148571Y-106317461D01*
X84148571Y-106317461D02*
X84196190Y-106166985D01*
X84196190Y-106166985D02*
X84196190Y-104887938D01*
X85243809Y-106317461D02*
X85196190Y-106392700D01*
X85196190Y-106392700D02*
X85053333Y-106467938D01*
X85053333Y-106467938D02*
X84958095Y-106467938D01*
X84958095Y-106467938D02*
X84815238Y-106392700D01*
X84815238Y-106392700D02*
X84720000Y-106242223D01*
X84720000Y-106242223D02*
X84672381Y-106091747D01*
X84672381Y-106091747D02*
X84624762Y-105790795D01*
X84624762Y-105790795D02*
X84624762Y-105565080D01*
X84624762Y-105565080D02*
X84672381Y-105264128D01*
X84672381Y-105264128D02*
X84720000Y-105113652D01*
X84720000Y-105113652D02*
X84815238Y-104963176D01*
X84815238Y-104963176D02*
X84958095Y-104887938D01*
X84958095Y-104887938D02*
X85053333Y-104887938D01*
X85053333Y-104887938D02*
X85196190Y-104963176D01*
X85196190Y-104963176D02*
X85243809Y-105038414D01*
X86148571Y-106467938D02*
X85672381Y-106467938D01*
X85672381Y-106467938D02*
X85672381Y-104887938D01*
X86481905Y-105640319D02*
X86815238Y-105640319D01*
X86958095Y-106467938D02*
X86481905Y-106467938D01*
X86481905Y-106467938D02*
X86481905Y-104887938D01*
X86481905Y-104887938D02*
X86958095Y-104887938D01*
X87577143Y-104887938D02*
X87767619Y-104887938D01*
X87767619Y-104887938D02*
X87862857Y-104963176D01*
X87862857Y-104963176D02*
X87958095Y-105113652D01*
X87958095Y-105113652D02*
X88005714Y-105414604D01*
X88005714Y-105414604D02*
X88005714Y-105941271D01*
X88005714Y-105941271D02*
X87958095Y-106242223D01*
X87958095Y-106242223D02*
X87862857Y-106392700D01*
X87862857Y-106392700D02*
X87767619Y-106467938D01*
X87767619Y-106467938D02*
X87577143Y-106467938D01*
X87577143Y-106467938D02*
X87481905Y-106392700D01*
X87481905Y-106392700D02*
X87386667Y-106242223D01*
X87386667Y-106242223D02*
X87339048Y-105941271D01*
X87339048Y-105941271D02*
X87339048Y-105414604D01*
X87339048Y-105414604D02*
X87386667Y-105113652D01*
X87386667Y-105113652D02*
X87481905Y-104963176D01*
X87481905Y-104963176D02*
X87577143Y-104887938D01*
X88434286Y-105866033D02*
X89196191Y-105866033D01*
X90148571Y-106467938D02*
X89672381Y-106467938D01*
X89672381Y-106467938D02*
X89672381Y-104887938D01*
X90910476Y-105414604D02*
X90910476Y-106467938D01*
X90672381Y-104812700D02*
X90434286Y-105941271D01*
X90434286Y-105941271D02*
X91053333Y-105941271D01*
X91339048Y-104887938D02*
X92005714Y-104887938D01*
X92005714Y-104887938D02*
X91577143Y-106467938D01*
X92815238Y-104887938D02*
X92624762Y-104887938D01*
X92624762Y-104887938D02*
X92529524Y-104963176D01*
X92529524Y-104963176D02*
X92481905Y-105038414D01*
X92481905Y-105038414D02*
X92386667Y-105264128D01*
X92386667Y-105264128D02*
X92339048Y-105565080D01*
X92339048Y-105565080D02*
X92339048Y-106166985D01*
X92339048Y-106166985D02*
X92386667Y-106317461D01*
X92386667Y-106317461D02*
X92434286Y-106392700D01*
X92434286Y-106392700D02*
X92529524Y-106467938D01*
X92529524Y-106467938D02*
X92720000Y-106467938D01*
X92720000Y-106467938D02*
X92815238Y-106392700D01*
X92815238Y-106392700D02*
X92862857Y-106317461D01*
X92862857Y-106317461D02*
X92910476Y-106166985D01*
X92910476Y-106166985D02*
X92910476Y-105790795D01*
X92910476Y-105790795D02*
X92862857Y-105640319D01*
X92862857Y-105640319D02*
X92815238Y-105565080D01*
X92815238Y-105565080D02*
X92720000Y-105489842D01*
X92720000Y-105489842D02*
X92529524Y-105489842D01*
X92529524Y-105489842D02*
X92434286Y-105565080D01*
X92434286Y-105565080D02*
X92386667Y-105640319D01*
X92386667Y-105640319D02*
X92339048Y-105790795D01*
X93910476Y-106467938D02*
X93577143Y-105715557D01*
X93339048Y-106467938D02*
X93339048Y-104887938D01*
X93339048Y-104887938D02*
X93720000Y-104887938D01*
X93720000Y-104887938D02*
X93815238Y-104963176D01*
X93815238Y-104963176D02*
X93862857Y-105038414D01*
X93862857Y-105038414D02*
X93910476Y-105188890D01*
X93910476Y-105188890D02*
X93910476Y-105414604D01*
X93910476Y-105414604D02*
X93862857Y-105565080D01*
X93862857Y-105565080D02*
X93815238Y-105640319D01*
X93815238Y-105640319D02*
X93720000Y-105715557D01*
X93720000Y-105715557D02*
X93339048Y-105715557D01*
X94862857Y-104963176D02*
X94767619Y-104887938D01*
X94767619Y-104887938D02*
X94624762Y-104887938D01*
X94624762Y-104887938D02*
X94481905Y-104963176D01*
X94481905Y-104963176D02*
X94386667Y-105113652D01*
X94386667Y-105113652D02*
X94339048Y-105264128D01*
X94339048Y-105264128D02*
X94291429Y-105565080D01*
X94291429Y-105565080D02*
X94291429Y-105790795D01*
X94291429Y-105790795D02*
X94339048Y-106091747D01*
X94339048Y-106091747D02*
X94386667Y-106242223D01*
X94386667Y-106242223D02*
X94481905Y-106392700D01*
X94481905Y-106392700D02*
X94624762Y-106467938D01*
X94624762Y-106467938D02*
X94720000Y-106467938D01*
X94720000Y-106467938D02*
X94862857Y-106392700D01*
X94862857Y-106392700D02*
X94910476Y-106317461D01*
X94910476Y-106317461D02*
X94910476Y-105790795D01*
X94910476Y-105790795D02*
X94720000Y-105790795D01*
D12*
X107366666Y-108454819D02*
X107366666Y-109169104D01*
X107366666Y-109169104D02*
X107319047Y-109311961D01*
X107319047Y-109311961D02*
X107223809Y-109407200D01*
X107223809Y-109407200D02*
X107080952Y-109454819D01*
X107080952Y-109454819D02*
X106985714Y-109454819D01*
X107890476Y-109454819D02*
X108080952Y-109454819D01*
X108080952Y-109454819D02*
X108176190Y-109407200D01*
X108176190Y-109407200D02*
X108223809Y-109359580D01*
X108223809Y-109359580D02*
X108319047Y-109216723D01*
X108319047Y-109216723D02*
X108366666Y-109026247D01*
X108366666Y-109026247D02*
X108366666Y-108645295D01*
X108366666Y-108645295D02*
X108319047Y-108550057D01*
X108319047Y-108550057D02*
X108271428Y-108502438D01*
X108271428Y-108502438D02*
X108176190Y-108454819D01*
X108176190Y-108454819D02*
X107985714Y-108454819D01*
X107985714Y-108454819D02*
X107890476Y-108502438D01*
X107890476Y-108502438D02*
X107842857Y-108550057D01*
X107842857Y-108550057D02*
X107795238Y-108645295D01*
X107795238Y-108645295D02*
X107795238Y-108883390D01*
X107795238Y-108883390D02*
X107842857Y-108978628D01*
X107842857Y-108978628D02*
X107890476Y-109026247D01*
X107890476Y-109026247D02*
X107985714Y-109073866D01*
X107985714Y-109073866D02*
X108176190Y-109073866D01*
X108176190Y-109073866D02*
X108271428Y-109026247D01*
X108271428Y-109026247D02*
X108319047Y-108978628D01*
X108319047Y-108978628D02*
X108366666Y-108883390D01*
D13*
%TO.C,J8*%
X73720000Y-143560000D02*
X75100000Y-143560000D01*
X73720000Y-144940000D02*
X73720000Y-143560000D01*
X73720000Y-146210000D02*
X73720000Y-169180000D01*
X73720000Y-146210000D02*
X76480000Y-146210000D01*
X73720000Y-169180000D02*
X76480000Y-169180000D01*
X76480000Y-146210000D02*
X76480000Y-169180000D01*
%TO.C,J4*%
X67370000Y-146350000D02*
X67370000Y-169270000D01*
X67370000Y-146350000D02*
X70030000Y-146350000D01*
X67370000Y-169270000D02*
X70030000Y-169270000D01*
X68700000Y-143750000D02*
X70030000Y-143750000D01*
X70030000Y-143750000D02*
X70030000Y-145080000D01*
X70030000Y-146350000D02*
X70030000Y-169270000D01*
%TO.C,J2*%
X73720000Y-118980000D02*
X75100000Y-118980000D01*
X73720000Y-120360000D02*
X73720000Y-118980000D01*
X73720000Y-121630000D02*
X73720000Y-136980000D01*
X73720000Y-121630000D02*
X76480000Y-121630000D01*
X73720000Y-136980000D02*
X76480000Y-136980000D01*
X76480000Y-121630000D02*
X76480000Y-136980000D01*
%TO.C,J1*%
X67470000Y-121550000D02*
X67470000Y-136850000D01*
X67470000Y-121550000D02*
X70130000Y-121550000D01*
X67470000Y-136850000D02*
X70130000Y-136850000D01*
X68800000Y-118950000D02*
X70130000Y-118950000D01*
X70130000Y-118950000D02*
X70130000Y-120280000D01*
X70130000Y-121550000D02*
X70130000Y-136850000D01*
%TO.C,J6*%
X143380000Y-123290000D02*
X143380000Y-169120000D01*
X140620000Y-169120000D02*
X143380000Y-169120000D01*
X140620000Y-123290000D02*
X143380000Y-123290000D01*
X140620000Y-123290000D02*
X140620000Y-169120000D01*
X140620000Y-122020000D02*
X140620000Y-120640000D01*
X140620000Y-120640000D02*
X142000000Y-120640000D01*
%TO.C,J10*%
X136830000Y-123250000D02*
X136830000Y-169030000D01*
X136830000Y-120650000D02*
X136830000Y-121980000D01*
X135500000Y-120650000D02*
X136830000Y-120650000D01*
X134170000Y-169030000D02*
X136830000Y-169030000D01*
X134170000Y-123250000D02*
X136830000Y-123250000D01*
X134170000Y-123250000D02*
X134170000Y-169030000D01*
%TO.C,J7*%
X46230000Y-128530000D02*
X46230000Y-169230000D01*
X46230000Y-125930000D02*
X46230000Y-127260000D01*
X44900000Y-125930000D02*
X46230000Y-125930000D01*
X43570000Y-169230000D02*
X46230000Y-169230000D01*
X43570000Y-128530000D02*
X46230000Y-128530000D01*
X43570000Y-128530000D02*
X43570000Y-169230000D01*
%TO.C,J3*%
X37220000Y-126010000D02*
X38600000Y-126010000D01*
X37220000Y-127390000D02*
X37220000Y-126010000D01*
X37220000Y-128660000D02*
X37220000Y-169410000D01*
X37220000Y-128660000D02*
X39980000Y-128660000D01*
X37220000Y-169410000D02*
X39980000Y-169410000D01*
X39980000Y-128660000D02*
X39980000Y-169410000D01*
D14*
%TO.C,U1*%
X55850000Y-101260000D02*
G75*
G02*
X53850000Y-99260000I0J2000000D01*
G01*
X53850000Y-22760000D02*
G75*
G02*
X55850000Y-20760000I2000000J0D01*
G01*
X121850000Y-20760000D02*
G75*
G02*
X123850000Y-22760000I0J-2000000D01*
G01*
X123850000Y-99260000D02*
G75*
G02*
X121850000Y-101260000I-2000000J0D01*
G01*
X65350000Y-101260000D02*
X67350000Y-103260000D01*
X67350000Y-103260000D02*
X100350000Y-103260000D01*
X100350000Y-103260000D02*
X102350000Y-101260000D01*
X102350000Y-101260000D02*
X121850000Y-101260000D01*
X53850000Y-22760000D02*
X53850000Y-99260000D01*
X55850000Y-20760000D02*
X121850000Y-20760000D01*
X55850000Y-101260000D02*
X65350000Y-101260000D01*
X123850000Y-99260000D02*
X123850000Y-22760000D01*
D15*
X53365300Y-52500000D02*
G75*
G02*
X53165300Y-52500000I-100000J0D01*
G01*
X53165300Y-52500000D02*
G75*
G02*
X53365300Y-52500000I100000J0D01*
G01*
D13*
%TO.C,J9*%
X106470000Y-113190000D02*
X106470000Y-169130000D01*
X106470000Y-113190000D02*
X109130000Y-113190000D01*
X106470000Y-169130000D02*
X109130000Y-169130000D01*
X107800000Y-110590000D02*
X109130000Y-110590000D01*
X109130000Y-110590000D02*
X109130000Y-111920000D01*
X109130000Y-113190000D02*
X109130000Y-169130000D01*
%TO.C,J5*%
X99920000Y-110540000D02*
X101300000Y-110540000D01*
X99920000Y-111920000D02*
X99920000Y-110540000D01*
X99920000Y-113190000D02*
X99920000Y-169180000D01*
X99920000Y-113190000D02*
X102680000Y-113190000D01*
X99920000Y-169180000D02*
X102680000Y-169180000D01*
X102680000Y-113190000D02*
X102680000Y-169180000D01*
%TD*%
M02*
