M48
; DRILL file {KiCad 9.0.6} date 2025-11-01T18:21:07-0600
; FORMAT={-:-/ absolute / metric / decimal}
; #@! TF.CreationDate,2025-11-01T18:21:07-06:00
; #@! TF.GenerationSoftware,Kicad,Pcbnew,9.0.6
; #@! TF.FileFunction,MixedPlating,1,2
FMAT,2
METRIC
; #@! TA.AperFunction,Plated,PTH,ComponentDrill
T1C1.000
; #@! TA.AperFunction,Plated,PTH,ComponentDrill
T2C1.016
; #@! TA.AperFunction,NonPlated,NPTH,ComponentDrill
T3C3.200
%
G90
G05
T1
X38.6Y-127.39
X38.6Y-129.93
X38.6Y-132.47
X38.6Y-135.01
X38.6Y-137.55
X38.6Y-140.09
X38.6Y-142.63
X38.6Y-145.17
X38.6Y-147.71
X38.6Y-150.25
X38.6Y-152.79
X38.6Y-155.33
X38.6Y-157.87
X38.6Y-160.41
X38.6Y-162.95
X38.6Y-165.49
X38.6Y-168.03
X44.9Y-127.26
X44.9Y-129.8
X44.9Y-132.34
X44.9Y-134.88
X44.9Y-137.42
X44.9Y-139.96
X44.9Y-142.5
X44.9Y-145.04
X44.9Y-147.58
X44.9Y-150.12
X44.9Y-152.66
X44.9Y-155.2
X44.9Y-157.74
X44.9Y-160.28
X44.9Y-162.82
X44.9Y-165.36
X44.9Y-167.9
X68.7Y-145.08
X68.7Y-147.62
X68.7Y-150.16
X68.7Y-152.7
X68.7Y-155.24
X68.7Y-157.78
X68.7Y-160.32
X68.7Y-162.86
X68.7Y-165.4
X68.7Y-167.94
X68.8Y-120.28
X68.8Y-122.82
X68.8Y-125.36
X68.8Y-127.9
X68.8Y-130.44
X68.8Y-132.98
X68.8Y-135.52
X75.1Y-120.36
X75.1Y-122.9
X75.1Y-125.44
X75.1Y-127.98
X75.1Y-130.52
X75.1Y-133.06
X75.1Y-135.6
X75.1Y-144.94
X75.1Y-147.48
X75.1Y-150.02
X75.1Y-152.56
X75.1Y-155.1
X75.1Y-157.64
X75.1Y-160.18
X75.1Y-162.72
X75.1Y-165.26
X75.1Y-167.8
X101.3Y-111.92
X101.3Y-114.46
X101.3Y-117.0
X101.3Y-119.54
X101.3Y-122.08
X101.3Y-124.62
X101.3Y-127.16
X101.3Y-129.7
X101.3Y-132.24
X101.3Y-134.78
X101.3Y-137.32
X101.3Y-139.86
X101.3Y-142.4
X101.3Y-144.94
X101.3Y-147.48
X101.3Y-150.02
X101.3Y-152.56
X101.3Y-155.1
X101.3Y-157.64
X101.3Y-160.18
X101.3Y-162.72
X101.3Y-165.26
X101.3Y-167.8
X107.8Y-111.92
X107.8Y-114.46
X107.8Y-117.0
X107.8Y-119.54
X107.8Y-122.08
X107.8Y-124.62
X107.8Y-127.16
X107.8Y-129.7
X107.8Y-132.24
X107.8Y-134.78
X107.8Y-137.32
X107.8Y-139.86
X107.8Y-142.4
X107.8Y-144.94
X107.8Y-147.48
X107.8Y-150.02
X107.8Y-152.56
X107.8Y-155.1
X107.8Y-157.64
X107.8Y-160.18
X107.8Y-162.72
X107.8Y-165.26
X107.8Y-167.8
X135.5Y-121.98
X135.5Y-124.52
X135.5Y-127.06
X135.5Y-129.6
X135.5Y-132.14
X135.5Y-134.68
X135.5Y-137.22
X135.5Y-139.76
X135.5Y-142.3
X135.5Y-144.84
X135.5Y-147.38
X135.5Y-149.92
X135.5Y-152.46
X135.5Y-155.0
X135.5Y-157.54
X135.5Y-160.08
X135.5Y-162.62
X135.5Y-165.16
X135.5Y-167.7
X142.0Y-122.02
X142.0Y-124.56
X142.0Y-127.1
X142.0Y-129.64
X142.0Y-132.18
X142.0Y-134.72
X142.0Y-137.26
X142.0Y-139.8
X142.0Y-142.34
X142.0Y-144.88
X142.0Y-147.42
X142.0Y-149.96
X142.0Y-152.5
X142.0Y-155.04
X142.0Y-157.58
X142.0Y-160.12
X142.0Y-162.66
X142.0Y-165.2
X142.0Y-167.74
T2
X57.1Y-52.5
X57.1Y-55.04
X57.1Y-57.58
X57.1Y-60.12
X57.1Y-62.66
X57.1Y-65.2
X57.1Y-67.74
X57.1Y-70.28
X57.1Y-72.82
X57.1Y-75.36
X57.1Y-77.9
X57.1Y-80.44
X57.1Y-82.98
X57.1Y-85.52
X57.1Y-88.06
X57.1Y-90.6
X57.1Y-93.14
X57.1Y-95.68
X57.1Y-98.22
X59.64Y-52.5
X59.64Y-55.04
X59.64Y-57.58
X59.64Y-60.12
X59.64Y-62.66
X59.64Y-65.2
X59.64Y-67.74
X59.64Y-70.28
X59.64Y-72.82
X59.64Y-75.36
X59.64Y-77.9
X59.64Y-80.44
X59.64Y-82.98
X59.64Y-85.52
X59.64Y-88.06
X59.64Y-90.6
X59.64Y-93.14
X59.64Y-95.68
X59.64Y-98.22
X118.06Y-52.5
X118.06Y-55.04
X118.06Y-57.58
X118.06Y-60.12
X118.06Y-62.66
X118.06Y-65.2
X118.06Y-67.74
X118.06Y-70.28
X118.06Y-72.82
X118.06Y-75.36
X118.06Y-77.9
X118.06Y-80.44
X118.06Y-82.98
X118.06Y-85.52
X118.06Y-88.06
X118.06Y-90.6
X118.06Y-93.14
X118.06Y-95.68
X118.06Y-98.22
X120.6Y-52.5
X120.6Y-55.04
X120.6Y-57.58
X120.6Y-60.12
X120.6Y-62.66
X120.6Y-65.2
X120.6Y-67.74
X120.6Y-70.28
X120.6Y-72.82
X120.6Y-75.36
X120.6Y-77.9
X120.6Y-80.44
X120.6Y-82.98
X120.6Y-85.52
X120.6Y-88.06
X120.6Y-90.6
X120.6Y-93.14
X120.6Y-95.68
X120.6Y-98.22
T3
X46.0Y-40.0
X55.25Y-168.75
X64.72Y-48.69
X97.74Y-100.76
X112.98Y-49.96
X122.75Y-168.75
X130.75Y-40.0
M30
