%TF.GenerationSoftware,KiCad,Pcbnew,9.0.6*%
%TF.CreationDate,2025-11-01T18:17:41-06:00*%
%TF.ProjectId,STM32Nucleo_L476RG_Baseboard,53544d33-324e-4756-936c-656f5f4c3437,rev?*%
%TF.SameCoordinates,Original*%
%TF.FileFunction,Copper,L1,Top*%
%TF.FilePolarity,Positive*%
%FSLAX46Y46*%
G04 Gerber Fmt 4.6, Leading zero omitted, Abs format (unit mm)*
G04 Created by KiCad (PCBNEW 9.0.6) date 2025-11-01 18:17:41*
%MOMM*%
%LPD*%
G01*
G04 APERTURE LIST*
%TA.AperFunction,ComponentPad*%
%ADD10R,1.700000X1.700000*%
%TD*%
%TA.AperFunction,ComponentPad*%
%ADD11C,1.700000*%
%TD*%
%TA.AperFunction,ComponentPad*%
%ADD12R,1.524000X1.524000*%
%TD*%
%TA.AperFunction,ComponentPad*%
%ADD13C,1.524000*%
%TD*%
%TA.AperFunction,Conductor*%
%ADD14C,0.600000*%
%TD*%
%TA.AperFunction,Conductor*%
%ADD15C,0.250000*%
%TD*%
G04 APERTURE END LIST*
D10*
%TO.P,J8,1,Pin_1*%
%TO.N,/RESET*%
X75100000Y-144940000D03*
D11*
%TO.P,J8,2,Pin_2*%
%TO.N,/IOREF*%
X75100000Y-147480000D03*
%TO.P,J8,3,Pin_3*%
%TO.N,/E5V*%
X75100000Y-150020000D03*
%TO.P,J8,4,Pin_4*%
%TO.N,/PD2*%
X75100000Y-152560000D03*
%TO.P,J8,5,Pin_5*%
%TO.N,/PC11*%
X75100000Y-155100000D03*
%TO.P,J8,6,Pin_6*%
%TO.N,/+5V*%
X75100000Y-157640000D03*
%TO.P,J8,7,Pin_7*%
%TO.N,/+3V3*%
X75100000Y-160180000D03*
%TO.P,J8,8,Pin_8*%
%TO.N,/GND*%
X75100000Y-162720000D03*
%TO.P,J8,9,Pin_9*%
X75100000Y-165260000D03*
%TO.P,J8,10,Pin_10*%
X75100000Y-167800000D03*
%TD*%
D10*
%TO.P,J4,1,Pin_1*%
%TO.N,/RESET*%
X68700000Y-145080000D03*
D11*
%TO.P,J4,2,Pin_2*%
%TO.N,/IOREF*%
X68700000Y-147620000D03*
%TO.P,J4,3,Pin_3*%
%TO.N,/E5V*%
X68700000Y-150160000D03*
%TO.P,J4,4,Pin_4*%
%TO.N,/PD2*%
X68700000Y-152700000D03*
%TO.P,J4,5,Pin_5*%
%TO.N,/PC11*%
X68700000Y-155240000D03*
%TO.P,J4,6,Pin_6*%
%TO.N,/+5V*%
X68700000Y-157780000D03*
%TO.P,J4,7,Pin_7*%
%TO.N,/+3V3*%
X68700000Y-160320000D03*
%TO.P,J4,8,Pin_8*%
%TO.N,/GND*%
X68700000Y-162860000D03*
%TO.P,J4,9,Pin_9*%
X68700000Y-165400000D03*
%TO.P,J4,10,Pin_10*%
X68700000Y-167940000D03*
%TD*%
D10*
%TO.P,J2,1,Pin_1*%
%TO.N,/PC0*%
X75100000Y-120360000D03*
D11*
%TO.P,J2,2,Pin_2*%
%TO.N,/PC1*%
X75100000Y-122900000D03*
%TO.P,J2,3,Pin_3*%
%TO.N,/PB0*%
X75100000Y-125440000D03*
%TO.P,J2,4,Pin_4*%
%TO.N,/PA4*%
X75100000Y-127980000D03*
%TO.P,J2,5,Pin_5*%
%TO.N,/PA1*%
X75100000Y-130520000D03*
%TO.P,J2,6,Pin_6*%
%TO.N,/PA0*%
X75100000Y-133060000D03*
%TO.P,J2,7,Pin_7*%
%TO.N,/VIN*%
X75100000Y-135600000D03*
%TD*%
D10*
%TO.P,J1,1,Pin_1*%
%TO.N,/PC0*%
X68800000Y-120280000D03*
D11*
%TO.P,J1,2,Pin_2*%
%TO.N,/PC1*%
X68800000Y-122820000D03*
%TO.P,J1,3,Pin_3*%
%TO.N,/PB0*%
X68800000Y-125360000D03*
%TO.P,J1,4,Pin_4*%
%TO.N,/PA4*%
X68800000Y-127900000D03*
%TO.P,J1,5,Pin_5*%
%TO.N,/PA1*%
X68800000Y-130440000D03*
%TO.P,J1,6,Pin_6*%
%TO.N,/PA0*%
X68800000Y-132980000D03*
%TO.P,J1,7,Pin_7*%
%TO.N,/VIN*%
X68800000Y-135520000D03*
%TD*%
%TO.P,J6,19,Pin_19*%
%TO.N,/GND*%
X142000000Y-167740000D03*
%TO.P,J6,18,Pin_18*%
X142000000Y-165200000D03*
%TO.P,J6,17,Pin_17*%
X142000000Y-162660000D03*
%TO.P,J6,16,Pin_16*%
%TO.N,/+3V3*%
X142000000Y-160120000D03*
%TO.P,J6,15,Pin_15*%
%TO.N,/+5V*%
X142000000Y-157580000D03*
%TO.P,J6,14,Pin_14*%
%TO.N,/PC4*%
X142000000Y-155040000D03*
%TO.P,J6,13,Pin_13*%
%TO.N,/AGND*%
X142000000Y-152500000D03*
%TO.P,J6,12,Pin_12*%
%TO.N,/PB13*%
X142000000Y-149960000D03*
%TO.P,J6,11,Pin_11*%
%TO.N,/PB14*%
X142000000Y-147420000D03*
%TO.P,J6,10,Pin_10*%
%TO.N,/PB15*%
X142000000Y-144880000D03*
%TO.P,J6,9,Pin_9*%
%TO.N,/PB1*%
X142000000Y-142340000D03*
%TO.P,J6,8,Pin_8*%
%TO.N,/PB2*%
X142000000Y-139800000D03*
%TO.P,J6,7,Pin_7*%
%TO.N,/PB11*%
X142000000Y-137260000D03*
%TO.P,J6,6,Pin_6*%
%TO.N,/PB12*%
X142000000Y-134720000D03*
%TO.P,J6,5,Pin_5*%
%TO.N,/PA11*%
X142000000Y-132180000D03*
%TO.P,J6,4,Pin_4*%
%TO.N,/PA12*%
X142000000Y-129640000D03*
%TO.P,J6,3,Pin_3*%
%TO.N,/PC5*%
X142000000Y-127100000D03*
%TO.P,J6,2,Pin_2*%
%TO.N,/PC6*%
X142000000Y-124560000D03*
D10*
%TO.P,J6,1,Pin_1*%
%TO.N,/PC8*%
X142000000Y-122020000D03*
%TD*%
D11*
%TO.P,J10,19,Pin_19*%
%TO.N,/GND*%
X135500000Y-167700000D03*
%TO.P,J10,18,Pin_18*%
X135500000Y-165160000D03*
%TO.P,J10,17,Pin_17*%
X135500000Y-162620000D03*
%TO.P,J10,16,Pin_16*%
%TO.N,/+3V3*%
X135500000Y-160080000D03*
%TO.P,J10,15,Pin_15*%
%TO.N,/+5V*%
X135500000Y-157540000D03*
%TO.P,J10,14,Pin_14*%
%TO.N,/PC4*%
X135500000Y-155000000D03*
%TO.P,J10,13,Pin_13*%
%TO.N,/AGND*%
X135500000Y-152460000D03*
%TO.P,J10,12,Pin_12*%
%TO.N,/PB13*%
X135500000Y-149920000D03*
%TO.P,J10,11,Pin_11*%
%TO.N,/PB14*%
X135500000Y-147380000D03*
%TO.P,J10,10,Pin_10*%
%TO.N,/PB15*%
X135500000Y-144840000D03*
%TO.P,J10,9,Pin_9*%
%TO.N,/PB1*%
X135500000Y-142300000D03*
%TO.P,J10,8,Pin_8*%
%TO.N,/PB2*%
X135500000Y-139760000D03*
%TO.P,J10,7,Pin_7*%
%TO.N,/PB11*%
X135500000Y-137220000D03*
%TO.P,J10,6,Pin_6*%
%TO.N,/PB12*%
X135500000Y-134680000D03*
%TO.P,J10,5,Pin_5*%
%TO.N,/PA11*%
X135500000Y-132140000D03*
%TO.P,J10,4,Pin_4*%
%TO.N,/PA12*%
X135500000Y-129600000D03*
%TO.P,J10,3,Pin_3*%
%TO.N,/PC5*%
X135500000Y-127060000D03*
%TO.P,J10,2,Pin_2*%
%TO.N,/PC6*%
X135500000Y-124520000D03*
D10*
%TO.P,J10,1,Pin_1*%
%TO.N,/PC8*%
X135500000Y-121980000D03*
%TD*%
D11*
%TO.P,J7,17,Pin_17*%
%TO.N,/GND*%
X44900000Y-167900000D03*
%TO.P,J7,16,Pin_16*%
X44900000Y-165360000D03*
%TO.P,J7,15,Pin_15*%
X44900000Y-162820000D03*
%TO.P,J7,14,Pin_14*%
%TO.N,/+3V3*%
X44900000Y-160280000D03*
%TO.P,J7,13,Pin_13*%
%TO.N,/+5V*%
X44900000Y-157740000D03*
%TO.P,J7,12,Pin_12*%
%TO.N,/PC3*%
X44900000Y-155200000D03*
%TO.P,J7,11,Pin_11*%
%TO.N,/PC2*%
X44900000Y-152660000D03*
%TO.P,J7,10,Pin_10*%
%TO.N,/PH1*%
X44900000Y-150120000D03*
%TO.P,J7,9,Pin_9*%
%TO.N,/PH0*%
X44900000Y-147580000D03*
%TO.P,J7,8,Pin_8*%
%TO.N,/PC15*%
X44900000Y-145040000D03*
%TO.P,J7,7,Pin_7*%
%TO.N,/PC14*%
X44900000Y-142500000D03*
%TO.P,J7,6,Pin_6*%
%TO.N,/PC13*%
X44900000Y-139960000D03*
%TO.P,J7,5,Pin_5*%
%TO.N,/PB7*%
X44900000Y-137420000D03*
%TO.P,J7,4,Pin_4*%
%TO.N,/PA15*%
X44900000Y-134880000D03*
%TO.P,J7,3,Pin_3*%
%TO.N,/VDD*%
X44900000Y-132340000D03*
%TO.P,J7,2,Pin_2*%
%TO.N,/PC12*%
X44900000Y-129800000D03*
D10*
%TO.P,J7,1,Pin_1*%
%TO.N,/PC10*%
X44900000Y-127260000D03*
%TD*%
%TO.P,J3,1,Pin_1*%
%TO.N,/PC10*%
X38600000Y-127390000D03*
D11*
%TO.P,J3,2,Pin_2*%
%TO.N,/PC12*%
X38600000Y-129930000D03*
%TO.P,J3,3,Pin_3*%
%TO.N,/VDD*%
X38600000Y-132470000D03*
%TO.P,J3,4,Pin_4*%
%TO.N,/PA15*%
X38600000Y-135010000D03*
%TO.P,J3,5,Pin_5*%
%TO.N,/PB7*%
X38600000Y-137550000D03*
%TO.P,J3,6,Pin_6*%
%TO.N,/PC13*%
X38600000Y-140090000D03*
%TO.P,J3,7,Pin_7*%
%TO.N,/PC14*%
X38600000Y-142630000D03*
%TO.P,J3,8,Pin_8*%
%TO.N,/PC15*%
X38600000Y-145170000D03*
%TO.P,J3,9,Pin_9*%
%TO.N,/PH0*%
X38600000Y-147710000D03*
%TO.P,J3,10,Pin_10*%
%TO.N,/PH1*%
X38600000Y-150250000D03*
%TO.P,J3,11,Pin_11*%
%TO.N,/PC2*%
X38600000Y-152790000D03*
%TO.P,J3,12,Pin_12*%
%TO.N,/PC3*%
X38600000Y-155330000D03*
%TO.P,J3,13,Pin_13*%
%TO.N,/+5V*%
X38600000Y-157870000D03*
%TO.P,J3,14,Pin_14*%
%TO.N,/+3V3*%
X38600000Y-160410000D03*
%TO.P,J3,15,Pin_15*%
%TO.N,/GND*%
X38600000Y-162950000D03*
%TO.P,J3,16,Pin_16*%
X38600000Y-165490000D03*
%TO.P,J3,17,Pin_17*%
X38600000Y-168030000D03*
%TD*%
D12*
%TO.P,U1,CN7_1,PC10*%
%TO.N,/PC10*%
X57100000Y-52500000D03*
D13*
%TO.P,U1,CN10_1,PC9*%
%TO.N,/PC9*%
X118060000Y-52500000D03*
%TO.P,U1,CN10_2,PC8*%
%TO.N,/PC8*%
X120600000Y-52500000D03*
%TO.P,U1,CN10_3,PB8*%
%TO.N,/PB8*%
X118060000Y-55040000D03*
%TO.P,U1,CN10_4,PC6*%
%TO.N,/PC6*%
X120600000Y-55040000D03*
%TO.P,U1,CN10_5,PB9*%
%TO.N,/PB9*%
X118060000Y-57580000D03*
%TO.P,U1,CN10_6,PC5*%
%TO.N,/PC5*%
X120600000Y-57580000D03*
%TO.P,U1,CN10_7,AVDD*%
%TO.N,/AVDD*%
X118060000Y-60120000D03*
%TO.P,U1,CN10_8,U5V*%
%TO.N,unconnected-(U1B-U5V-PadCN10_8)*%
X120600000Y-60120000D03*
%TO.P,U1,CN10_9,GND_CN10_9*%
%TO.N,/GND*%
X118060000Y-62660000D03*
%TO.P,U1,CN10_10,NC_CN10_10*%
%TO.N,unconnected-(U1B-NC_CN10_10-PadCN10_10)*%
X120600000Y-62660000D03*
%TO.P,U1,CN10_11,PA5*%
%TO.N,/PA5*%
X118060000Y-65200000D03*
%TO.P,U1,CN10_12,PA12*%
%TO.N,/PA12*%
X120600000Y-65200000D03*
%TO.P,U1,CN10_13,PA6*%
%TO.N,/PA6*%
X118060000Y-67740000D03*
%TO.P,U1,CN10_14,PA11*%
%TO.N,/PA11*%
X120600000Y-67740000D03*
%TO.P,U1,CN10_15,PA7*%
%TO.N,/PA7*%
X118060000Y-70280000D03*
%TO.P,U1,CN10_16,PB12*%
%TO.N,/PB12*%
X120600000Y-70280000D03*
%TO.P,U1,CN10_17,PB6*%
%TO.N,/PB6*%
X118060000Y-72820000D03*
%TO.P,U1,CN10_18,PB11*%
%TO.N,/PB11*%
X120600000Y-72820000D03*
%TO.P,U1,CN10_19,PC7*%
%TO.N,/PC7*%
X118060000Y-75360000D03*
%TO.P,U1,CN10_20,GND_CN10_20*%
%TO.N,/GND*%
X120600000Y-75360000D03*
%TO.P,U1,CN10_21,PA9*%
%TO.N,/PA9*%
X118060000Y-77900000D03*
%TO.P,U1,CN10_22,PB2*%
%TO.N,/PB2*%
X120600000Y-77900000D03*
%TO.P,U1,CN10_23,PA8*%
%TO.N,/PA8*%
X118060000Y-80440000D03*
%TO.P,U1,CN10_24,PB1*%
%TO.N,/PB1*%
X120600000Y-80440000D03*
%TO.P,U1,CN10_25,PB10*%
%TO.N,/PB10*%
X118060000Y-82980000D03*
%TO.P,U1,CN10_26,PB15*%
%TO.N,/PB15*%
X120600000Y-82980000D03*
%TO.P,U1,CN10_27,PB4*%
%TO.N,/PB4*%
X118060000Y-85520000D03*
%TO.P,U1,CN10_28,PB14*%
%TO.N,/PB14*%
X120600000Y-85520000D03*
%TO.P,U1,CN10_29,PB5*%
%TO.N,/PB5*%
X118060000Y-88060000D03*
%TO.P,U1,CN10_30,PB13*%
%TO.N,/PB13*%
X120600000Y-88060000D03*
%TO.P,U1,CN10_31,PB3*%
%TO.N,/PB3*%
X118060000Y-90600000D03*
%TO.P,U1,CN10_32,AGND*%
%TO.N,/AGND*%
X120600000Y-90600000D03*
%TO.P,U1,CN10_33,PA10*%
%TO.N,/PA10*%
X118060000Y-93140000D03*
%TO.P,U1,CN10_34,PC4*%
%TO.N,/PC4*%
X120600000Y-93140000D03*
%TO.P,U1,CN10_35,PA2*%
%TO.N,/PA2*%
X118060000Y-95680000D03*
%TO.P,U1,CN10_36,NC_CN10_36*%
%TO.N,unconnected-(U1B-NC_CN10_36-PadCN10_36)*%
X120600000Y-95680000D03*
%TO.P,U1,CN10_37,PA3*%
%TO.N,/PA3*%
X118060000Y-98220000D03*
%TO.P,U1,CN10_38,NC_CN10_38*%
%TO.N,unconnected-(U1B-NC_CN10_38-PadCN10_38)*%
X120600000Y-98220000D03*
%TO.P,U1,CN7_2,PC11*%
%TO.N,/PC11*%
X59640000Y-52500000D03*
%TO.P,U1,CN7_3,PC12*%
%TO.N,/PC12*%
X57100000Y-55040000D03*
%TO.P,U1,CN7_4,PD2*%
%TO.N,/PD2*%
X59640000Y-55040000D03*
%TO.P,U1,CN7_5,VDD*%
%TO.N,/VDD*%
X57100000Y-57580000D03*
%TO.P,U1,CN7_6,E5V*%
%TO.N,/E5V*%
X59640000Y-57580000D03*
%TO.P,U1,CN7_7,BOOT0*%
%TO.N,unconnected-(U1A-BOOT0-PadCN7_7)*%
X57100000Y-60120000D03*
%TO.P,U1,CN7_8,GND_CN7_8*%
%TO.N,/GND*%
X59640000Y-60120000D03*
%TO.P,U1,CN7_9,NC_CN7_9*%
%TO.N,unconnected-(U1A-NC_CN7_9-PadCN7_9)*%
X57100000Y-62660000D03*
%TO.P,U1,CN7_10,NC_CN7_10*%
%TO.N,unconnected-(U1A-NC_CN7_10-PadCN7_10)*%
X59640000Y-62660000D03*
%TO.P,U1,CN7_11,NC_CN7_11*%
%TO.N,unconnected-(U1A-NC_CN7_11-PadCN7_11)*%
X57100000Y-65200000D03*
%TO.P,U1,CN7_12,IOREF*%
%TO.N,/IOREF*%
X59640000Y-65200000D03*
%TO.P,U1,CN7_13,PA13*%
%TO.N,unconnected-(U1A-PA13-PadCN7_13)*%
X57100000Y-67740000D03*
%TO.P,U1,CN7_14,RESET*%
%TO.N,/RESET*%
X59640000Y-67740000D03*
%TO.P,U1,CN7_15,PA14*%
%TO.N,unconnected-(U1A-PA14-PadCN7_15)*%
X57100000Y-70280000D03*
%TO.P,U1,CN7_16,+3V3*%
%TO.N,/+3V3*%
X59640000Y-70280000D03*
%TO.P,U1,CN7_17,PA15*%
%TO.N,/PA15*%
X57100000Y-72820000D03*
%TO.P,U1,CN7_18,+5V*%
%TO.N,/+5V*%
X59640000Y-72820000D03*
%TO.P,U1,CN7_19,GND_CN7_19*%
%TO.N,/GND*%
X57100000Y-75360000D03*
%TO.P,U1,CN7_20,GND_CN7_20*%
X59640000Y-75360000D03*
%TO.P,U1,CN7_21,PB7*%
%TO.N,/PB7*%
X57100000Y-77900000D03*
%TO.P,U1,CN7_22,GND_CN7_22*%
%TO.N,/GND*%
X59640000Y-77900000D03*
%TO.P,U1,CN7_23,PC13*%
%TO.N,/PC13*%
X57100000Y-80440000D03*
%TO.P,U1,CN7_24,VIN*%
%TO.N,/VIN*%
X59640000Y-80440000D03*
%TO.P,U1,CN7_25,PC14*%
%TO.N,/PC14*%
X57100000Y-82980000D03*
%TO.P,U1,CN7_26,NC_CN7_26*%
%TO.N,unconnected-(U1A-NC_CN7_26-PadCN7_26)*%
X59640000Y-82980000D03*
%TO.P,U1,CN7_27,PC15*%
%TO.N,/PC15*%
X57100000Y-85520000D03*
%TO.P,U1,CN7_28,PA0*%
%TO.N,/PA0*%
X59640000Y-85520000D03*
%TO.P,U1,CN7_29,PH0*%
%TO.N,/PH0*%
X57100000Y-88060000D03*
%TO.P,U1,CN7_30,PA1*%
%TO.N,/PA1*%
X59640000Y-88060000D03*
%TO.P,U1,CN7_31,PH1*%
%TO.N,/PH1*%
X57100000Y-90600000D03*
%TO.P,U1,CN7_32,PA4*%
%TO.N,/PA4*%
X59640000Y-90600000D03*
%TO.P,U1,CN7_33,VBAT*%
%TO.N,unconnected-(U1A-VBAT-PadCN7_33)*%
X57100000Y-93140000D03*
%TO.P,U1,CN7_34,PB0*%
%TO.N,/PB0*%
X59640000Y-93140000D03*
%TO.P,U1,CN7_35,PC2*%
%TO.N,/PC2*%
X57100000Y-95680000D03*
%TO.P,U1,CN7_36,PC1*%
%TO.N,/PC1*%
X59640000Y-95680000D03*
%TO.P,U1,CN7_37,PC3*%
%TO.N,/PC3*%
X57100000Y-98220000D03*
%TO.P,U1,CN7_38,PC0*%
%TO.N,/PC0*%
X59640000Y-98220000D03*
%TD*%
D10*
%TO.P,J9,1,Pin_1*%
%TO.N,/PA3*%
X107800000Y-111920000D03*
D11*
%TO.P,J9,2,Pin_2*%
%TO.N,/PA2*%
X107800000Y-114460000D03*
%TO.P,J9,3,Pin_3*%
%TO.N,/PA10*%
X107800000Y-117000000D03*
%TO.P,J9,4,Pin_4*%
%TO.N,/PB3*%
X107800000Y-119540000D03*
%TO.P,J9,5,Pin_5*%
%TO.N,/PB5*%
X107800000Y-122080000D03*
%TO.P,J9,6,Pin_6*%
%TO.N,/PB4*%
X107800000Y-124620000D03*
%TO.P,J9,7,Pin_7*%
%TO.N,/PB10*%
X107800000Y-127160000D03*
%TO.P,J9,8,Pin_8*%
%TO.N,/PA8*%
X107800000Y-129700000D03*
%TO.P,J9,9,Pin_9*%
%TO.N,/PA9*%
X107800000Y-132240000D03*
%TO.P,J9,10,Pin_10*%
%TO.N,/PC7*%
X107800000Y-134780000D03*
%TO.P,J9,11,Pin_11*%
%TO.N,/PB6*%
X107800000Y-137320000D03*
%TO.P,J9,12,Pin_12*%
%TO.N,/PA7*%
X107800000Y-139860000D03*
%TO.P,J9,13,Pin_13*%
%TO.N,/PA6*%
X107800000Y-142400000D03*
%TO.P,J9,14,Pin_14*%
%TO.N,/PA5*%
X107800000Y-144940000D03*
%TO.P,J9,15,Pin_15*%
%TO.N,/AVDD*%
X107800000Y-147480000D03*
%TO.P,J9,16,Pin_16*%
%TO.N,/PB9*%
X107800000Y-150020000D03*
%TO.P,J9,17,Pin_17*%
%TO.N,/PB8*%
X107800000Y-152560000D03*
%TO.P,J9,18,Pin_18*%
%TO.N,/PC9*%
X107800000Y-155100000D03*
%TO.P,J9,19,Pin_19*%
%TO.N,/+5V*%
X107800000Y-157640000D03*
%TO.P,J9,20,Pin_20*%
%TO.N,/+3V3*%
X107800000Y-160180000D03*
%TO.P,J9,21,Pin_21*%
%TO.N,/GND*%
X107800000Y-162720000D03*
%TO.P,J9,22,Pin_22*%
X107800000Y-165260000D03*
%TO.P,J9,23,Pin_23*%
X107800000Y-167800000D03*
%TD*%
D10*
%TO.P,J5,1,Pin_1*%
%TO.N,/PA3*%
X101300000Y-111920000D03*
D11*
%TO.P,J5,2,Pin_2*%
%TO.N,/PA2*%
X101300000Y-114460000D03*
%TO.P,J5,3,Pin_3*%
%TO.N,/PA10*%
X101300000Y-117000000D03*
%TO.P,J5,4,Pin_4*%
%TO.N,/PB3*%
X101300000Y-119540000D03*
%TO.P,J5,5,Pin_5*%
%TO.N,/PB5*%
X101300000Y-122080000D03*
%TO.P,J5,6,Pin_6*%
%TO.N,/PB4*%
X101300000Y-124620000D03*
%TO.P,J5,7,Pin_7*%
%TO.N,/PB10*%
X101300000Y-127160000D03*
%TO.P,J5,8,Pin_8*%
%TO.N,/PA8*%
X101300000Y-129700000D03*
%TO.P,J5,9,Pin_9*%
%TO.N,/PA9*%
X101300000Y-132240000D03*
%TO.P,J5,10,Pin_10*%
%TO.N,/PC7*%
X101300000Y-134780000D03*
%TO.P,J5,11,Pin_11*%
%TO.N,/PB6*%
X101300000Y-137320000D03*
%TO.P,J5,12,Pin_12*%
%TO.N,/PA7*%
X101300000Y-139860000D03*
%TO.P,J5,13,Pin_13*%
%TO.N,/PA6*%
X101300000Y-142400000D03*
%TO.P,J5,14,Pin_14*%
%TO.N,/PA5*%
X101300000Y-144940000D03*
%TO.P,J5,15,Pin_15*%
%TO.N,/AVDD*%
X101300000Y-147480000D03*
%TO.P,J5,16,Pin_16*%
%TO.N,/PB9*%
X101300000Y-150020000D03*
%TO.P,J5,17,Pin_17*%
%TO.N,/PB8*%
X101300000Y-152560000D03*
%TO.P,J5,18,Pin_18*%
%TO.N,/PC9*%
X101300000Y-155100000D03*
%TO.P,J5,19,Pin_19*%
%TO.N,/+5V*%
X101300000Y-157640000D03*
%TO.P,J5,20,Pin_20*%
%TO.N,/+3V3*%
X101300000Y-160180000D03*
%TO.P,J5,21,Pin_21*%
%TO.N,/GND*%
X101300000Y-162720000D03*
%TO.P,J5,22,Pin_22*%
X101300000Y-165260000D03*
%TO.P,J5,23,Pin_23*%
X101300000Y-167800000D03*
%TD*%
D14*
%TO.N,/+3V3*%
X34910000Y-160410000D02*
X38600000Y-160410000D01*
X34900000Y-160400000D02*
X34910000Y-160410000D01*
X31250000Y-158850000D02*
X32800000Y-160400000D01*
X31250000Y-67950000D02*
X31250000Y-158850000D01*
X55900000Y-48500000D02*
X50700000Y-48500000D01*
X58363000Y-50963000D02*
X55900000Y-48500000D01*
X50700000Y-48500000D02*
X31250000Y-67950000D01*
X58363000Y-69003000D02*
X58363000Y-50963000D01*
X32800000Y-160400000D02*
X34900000Y-160400000D01*
X59640000Y-70280000D02*
X58363000Y-69003000D01*
%TO.N,/+5V*%
X80800000Y-135600000D02*
X80800000Y-93980000D01*
X80800000Y-93980000D02*
X59640000Y-72820000D01*
X76700000Y-139700000D02*
X80800000Y-135600000D01*
X59300000Y-139700000D02*
X76700000Y-139700000D01*
X57600000Y-154600000D02*
X57600000Y-141400000D01*
X57600000Y-141400000D02*
X59300000Y-139700000D01*
%TO.N,/+3V3*%
X44900000Y-160280000D02*
X68660000Y-160280000D01*
X68660000Y-160280000D02*
X68700000Y-160320000D01*
%TO.N,/+5V*%
X60780000Y-157780000D02*
X57600000Y-154600000D01*
X68700000Y-157780000D02*
X60780000Y-157780000D01*
X54460000Y-157740000D02*
X57600000Y-154600000D01*
X44900000Y-157740000D02*
X54460000Y-157740000D01*
%TO.N,/+3V3*%
X44770000Y-160410000D02*
X44900000Y-160280000D01*
X38600000Y-160410000D02*
X44770000Y-160410000D01*
X101300000Y-160180000D02*
X75100000Y-160180000D01*
X107800000Y-160180000D02*
X101300000Y-160180000D01*
X107900000Y-160080000D02*
X107800000Y-160180000D01*
X135500000Y-160080000D02*
X107900000Y-160080000D01*
X135540000Y-160120000D02*
X135500000Y-160080000D01*
X142000000Y-160120000D02*
X135540000Y-160120000D01*
%TO.N,/+5V*%
X136000000Y-157580000D02*
X142000000Y-157580000D01*
X135960000Y-157540000D02*
X136000000Y-157580000D01*
X135500000Y-157540000D02*
X135960000Y-157540000D01*
X135400000Y-157640000D02*
X135500000Y-157540000D01*
X107800000Y-157640000D02*
X135400000Y-157640000D01*
X101300000Y-157640000D02*
X107800000Y-157640000D01*
X75100000Y-157640000D02*
X101300000Y-157640000D01*
X74960000Y-157780000D02*
X75100000Y-157640000D01*
X68700000Y-157780000D02*
X74960000Y-157780000D01*
%TO.N,/+3V3*%
X74960000Y-160320000D02*
X75100000Y-160180000D01*
X68700000Y-160320000D02*
X74960000Y-160320000D01*
%TO.N,/+5V*%
X38730000Y-157740000D02*
X38600000Y-157870000D01*
X44900000Y-157740000D02*
X38730000Y-157740000D01*
D15*
%TO.N,/VIN*%
X75020000Y-135520000D02*
X75100000Y-135600000D01*
X68800000Y-135520000D02*
X75020000Y-135520000D01*
%TO.N,/PA0*%
X68880000Y-133060000D02*
X68800000Y-132980000D01*
X75100000Y-133060000D02*
X68880000Y-133060000D01*
%TO.N,/PA1*%
X75100000Y-130520000D02*
X68880000Y-130520000D01*
X68880000Y-130520000D02*
X68800000Y-130440000D01*
%TO.N,/PA4*%
X68880000Y-127980000D02*
X68800000Y-127900000D01*
X75100000Y-127980000D02*
X68880000Y-127980000D01*
%TO.N,/PB0*%
X68880000Y-125440000D02*
X68800000Y-125360000D01*
X75100000Y-125440000D02*
X68880000Y-125440000D01*
%TO.N,/PC1*%
X68880000Y-122900000D02*
X68800000Y-122820000D01*
X75100000Y-122900000D02*
X68880000Y-122900000D01*
%TO.N,/PC0*%
X68880000Y-120360000D02*
X68800000Y-120280000D01*
X75100000Y-120360000D02*
X68880000Y-120360000D01*
%TO.N,/PC11*%
X68840000Y-155100000D02*
X68700000Y-155240000D01*
X75100000Y-155100000D02*
X68840000Y-155100000D01*
%TO.N,/PD2*%
X68840000Y-152560000D02*
X68700000Y-152700000D01*
X75100000Y-152560000D02*
X68840000Y-152560000D01*
%TO.N,/E5V*%
X68840000Y-150020000D02*
X68700000Y-150160000D01*
X75100000Y-150020000D02*
X68840000Y-150020000D01*
%TO.N,/IOREF*%
X68840000Y-147480000D02*
X68700000Y-147620000D01*
X75100000Y-147480000D02*
X68840000Y-147480000D01*
%TO.N,/RESET*%
X68840000Y-144940000D02*
X68700000Y-145080000D01*
X75100000Y-144940000D02*
X68840000Y-144940000D01*
%TO.N,/PC11*%
X85404000Y-78264000D02*
X59640000Y-52500000D01*
X85404000Y-144796000D02*
X85404000Y-78264000D01*
X75100000Y-155100000D02*
X85404000Y-144796000D01*
%TO.N,/PD2*%
X75100000Y-152560000D02*
X84953000Y-142707000D01*
X84953000Y-142707000D02*
X84953000Y-80353000D01*
X84953000Y-80353000D02*
X59640000Y-55040000D01*
%TO.N,/E5V*%
X84502000Y-140618000D02*
X84502000Y-82442000D01*
X84502000Y-82442000D02*
X59640000Y-57580000D01*
X75100000Y-150020000D02*
X84502000Y-140618000D01*
%TO.N,/IOREF*%
X84051000Y-138529000D02*
X84051000Y-89611000D01*
X75100000Y-147480000D02*
X84051000Y-138529000D01*
X84051000Y-89611000D02*
X59640000Y-65200000D01*
%TO.N,/RESET*%
X83600000Y-91700000D02*
X59640000Y-67740000D01*
X75100000Y-144940000D02*
X83600000Y-136440000D01*
X83600000Y-136440000D02*
X83600000Y-91700000D01*
%TO.N,/VIN*%
X78555000Y-99355000D02*
X59640000Y-80440000D01*
X78555000Y-132145000D02*
X78555000Y-99355000D01*
X75100000Y-135600000D02*
X78555000Y-132145000D01*
%TO.N,/PA0*%
X78104000Y-103984000D02*
X59640000Y-85520000D01*
X78104000Y-130056000D02*
X78104000Y-103984000D01*
X75100000Y-133060000D02*
X78104000Y-130056000D01*
%TO.N,/PA1*%
X77653000Y-106073000D02*
X59640000Y-88060000D01*
X77653000Y-127967000D02*
X77653000Y-106073000D01*
X75100000Y-130520000D02*
X77653000Y-127967000D01*
%TO.N,/PA4*%
X77202000Y-108162000D02*
X59640000Y-90600000D01*
X75100000Y-127980000D02*
X77202000Y-125878000D01*
X77202000Y-125878000D02*
X77202000Y-108162000D01*
%TO.N,/PB0*%
X76751000Y-110251000D02*
X59640000Y-93140000D01*
X76751000Y-123789000D02*
X76751000Y-110251000D01*
X75100000Y-125440000D02*
X76751000Y-123789000D01*
%TO.N,/PC1*%
X76300000Y-112340000D02*
X59640000Y-95680000D01*
X76300000Y-121700000D02*
X76300000Y-112340000D01*
X75100000Y-122900000D02*
X76300000Y-121700000D01*
%TO.N,/PC0*%
X75100000Y-113680000D02*
X59640000Y-98220000D01*
X75100000Y-120360000D02*
X75100000Y-113680000D01*
%TO.N,/PC4*%
X141960000Y-155000000D02*
X142000000Y-155040000D01*
X135500000Y-155000000D02*
X141960000Y-155000000D01*
%TO.N,/AGND*%
X141960000Y-152460000D02*
X142000000Y-152500000D01*
X135500000Y-152460000D02*
X141960000Y-152460000D01*
%TO.N,/PB13*%
X141960000Y-149920000D02*
X142000000Y-149960000D01*
X135500000Y-149920000D02*
X141960000Y-149920000D01*
%TO.N,/PB14*%
X135500000Y-147380000D02*
X141960000Y-147380000D01*
X141960000Y-147380000D02*
X142000000Y-147420000D01*
%TO.N,/PB15*%
X141960000Y-144840000D02*
X142000000Y-144880000D01*
X135500000Y-144840000D02*
X141960000Y-144840000D01*
%TO.N,/PB1*%
X141960000Y-142300000D02*
X142000000Y-142340000D01*
X135500000Y-142300000D02*
X141960000Y-142300000D01*
%TO.N,/PB2*%
X141960000Y-139760000D02*
X142000000Y-139800000D01*
X135500000Y-139760000D02*
X141960000Y-139760000D01*
%TO.N,/PB11*%
X141960000Y-137220000D02*
X142000000Y-137260000D01*
X135500000Y-137220000D02*
X141960000Y-137220000D01*
%TO.N,/PB12*%
X135720000Y-134720000D02*
X142000000Y-134720000D01*
X135680000Y-134680000D02*
X135720000Y-134720000D01*
X135500000Y-134680000D02*
X135680000Y-134680000D01*
%TO.N,/PA11*%
X135540000Y-132180000D02*
X142000000Y-132180000D01*
X135500000Y-132140000D02*
X135540000Y-132180000D01*
%TO.N,/PA12*%
X141960000Y-129600000D02*
X142000000Y-129640000D01*
X135500000Y-129600000D02*
X141960000Y-129600000D01*
%TO.N,/PC5*%
X141960000Y-127060000D02*
X142000000Y-127100000D01*
X135500000Y-127060000D02*
X141960000Y-127060000D01*
%TO.N,/PC6*%
X141960000Y-124520000D02*
X142000000Y-124560000D01*
X135500000Y-124520000D02*
X141960000Y-124520000D01*
%TO.N,/PC8*%
X141960000Y-121980000D02*
X142000000Y-122020000D01*
X135500000Y-121980000D02*
X141960000Y-121980000D01*
%TO.N,/PC4*%
X123700000Y-96240000D02*
X120600000Y-93140000D01*
X123700000Y-143200000D02*
X123700000Y-96240000D01*
X135500000Y-155000000D02*
X123700000Y-143200000D01*
%TO.N,/AGND*%
X124500000Y-94500000D02*
X120600000Y-90600000D01*
X124900000Y-94500000D02*
X124500000Y-94500000D01*
X124900000Y-141860000D02*
X124900000Y-94500000D01*
X135500000Y-152460000D02*
X124900000Y-141860000D01*
%TO.N,/PB13*%
X125800000Y-93260000D02*
X120600000Y-88060000D01*
X135500000Y-149920000D02*
X125800000Y-140220000D01*
X125800000Y-140220000D02*
X125800000Y-93260000D01*
%TO.N,/PB14*%
X126900000Y-91820000D02*
X120600000Y-85520000D01*
X126900000Y-138780000D02*
X126900000Y-91820000D01*
X135500000Y-147380000D02*
X126900000Y-138780000D01*
%TO.N,/PB15*%
X128200000Y-90580000D02*
X120600000Y-82980000D01*
X128200000Y-137540000D02*
X128200000Y-90580000D01*
X135500000Y-144840000D02*
X128200000Y-137540000D01*
%TO.N,/PB1*%
X129300000Y-89140000D02*
X120600000Y-80440000D01*
X129300000Y-136100000D02*
X129300000Y-89140000D01*
X135500000Y-142300000D02*
X129300000Y-136100000D01*
%TO.N,/PB2*%
X130549000Y-87849000D02*
X120600000Y-77900000D01*
X130549000Y-134809000D02*
X130549000Y-87849000D01*
X135500000Y-139760000D02*
X130549000Y-134809000D01*
%TO.N,/PB11*%
X131000000Y-83220000D02*
X120600000Y-72820000D01*
X131000000Y-132720000D02*
X131000000Y-83220000D01*
X135500000Y-137220000D02*
X131000000Y-132720000D01*
%TO.N,/PB12*%
X131496000Y-81176000D02*
X120600000Y-70280000D01*
X131496000Y-130676000D02*
X131496000Y-81176000D01*
X135500000Y-134680000D02*
X131496000Y-130676000D01*
%TO.N,/PA11*%
X131947000Y-79087000D02*
X120600000Y-67740000D01*
X131947000Y-128587000D02*
X131947000Y-79087000D01*
X135500000Y-132140000D02*
X131947000Y-128587000D01*
%TO.N,/PA12*%
X132398000Y-126498000D02*
X132398000Y-76998000D01*
X135500000Y-129600000D02*
X132398000Y-126498000D01*
X132398000Y-76998000D02*
X120600000Y-65200000D01*
%TO.N,/PC5*%
X132849000Y-124409000D02*
X132849000Y-69829000D01*
X135500000Y-127060000D02*
X132849000Y-124409000D01*
X132849000Y-69829000D02*
X120600000Y-57580000D01*
%TO.N,/PC6*%
X133300000Y-67740000D02*
X120600000Y-55040000D01*
X133300000Y-122320000D02*
X133300000Y-67740000D01*
X135500000Y-124520000D02*
X133300000Y-122320000D01*
%TO.N,/PC8*%
X135500000Y-67400000D02*
X120600000Y-52500000D01*
X135500000Y-121980000D02*
X135500000Y-67400000D01*
%TO.N,/PC9*%
X91090000Y-79470000D02*
X118060000Y-52500000D01*
X91090000Y-144890000D02*
X91090000Y-79470000D01*
X101300000Y-155100000D02*
X91090000Y-144890000D01*
%TO.N,/PB8*%
X91541000Y-81559000D02*
X118060000Y-55040000D01*
X91541000Y-142801000D02*
X91541000Y-81559000D01*
X101300000Y-152560000D02*
X91541000Y-142801000D01*
%TO.N,/PB9*%
X91992000Y-140712000D02*
X91992000Y-83648000D01*
X91992000Y-83648000D02*
X118060000Y-57580000D01*
X101300000Y-150020000D02*
X91992000Y-140712000D01*
%TO.N,/AVDD*%
X92443000Y-85737000D02*
X118060000Y-60120000D01*
X101300000Y-147480000D02*
X92443000Y-138623000D01*
X92443000Y-138623000D02*
X92443000Y-85737000D01*
%TO.N,/PA5*%
X92894000Y-90366000D02*
X118060000Y-65200000D01*
X92894000Y-136534000D02*
X92894000Y-90366000D01*
X101300000Y-144940000D02*
X92894000Y-136534000D01*
%TO.N,/PA6*%
X93345000Y-92455000D02*
X118060000Y-67740000D01*
X93345000Y-134445000D02*
X93345000Y-92455000D01*
X101300000Y-142400000D02*
X93345000Y-134445000D01*
%TO.N,/PA7*%
X93796000Y-94544000D02*
X118060000Y-70280000D01*
X93796000Y-132356000D02*
X93796000Y-94544000D01*
X101300000Y-139860000D02*
X93796000Y-132356000D01*
%TO.N,/PB6*%
X94247000Y-96633000D02*
X118060000Y-72820000D01*
X94247000Y-130267000D02*
X94247000Y-96633000D01*
X101300000Y-137320000D02*
X94247000Y-130267000D01*
%TO.N,/PC7*%
X94698000Y-98722000D02*
X118060000Y-75360000D01*
X101300000Y-134780000D02*
X94698000Y-128178000D01*
X94698000Y-128178000D02*
X94698000Y-98722000D01*
%TO.N,/PA9*%
X95149000Y-126089000D02*
X95149000Y-99113190D01*
X116362190Y-77900000D02*
X118060000Y-77900000D01*
X101300000Y-132240000D02*
X95149000Y-126089000D01*
X95149000Y-99113190D02*
X116362190Y-77900000D01*
%TO.N,/PA8*%
X95600000Y-99300000D02*
X114460000Y-80440000D01*
X95600000Y-124000000D02*
X95600000Y-99300000D01*
X114460000Y-80440000D02*
X118060000Y-80440000D01*
X101300000Y-129700000D02*
X95600000Y-124000000D01*
%TO.N,/PC9*%
X101300000Y-155100000D02*
X107800000Y-155100000D01*
%TO.N,/PB8*%
X101300000Y-152560000D02*
X107800000Y-152560000D01*
%TO.N,/PB9*%
X101300000Y-150020000D02*
X107800000Y-150020000D01*
%TO.N,/AVDD*%
X101300000Y-147480000D02*
X107800000Y-147480000D01*
%TO.N,/PA5*%
X101300000Y-144940000D02*
X107800000Y-144940000D01*
%TO.N,/PA6*%
X101300000Y-142400000D02*
X107800000Y-142400000D01*
%TO.N,/PA7*%
X101300000Y-139860000D02*
X107800000Y-139860000D01*
%TO.N,/PB6*%
X101300000Y-137320000D02*
X107800000Y-137320000D01*
%TO.N,/PC7*%
X101300000Y-134780000D02*
X107800000Y-134780000D01*
%TO.N,/PA9*%
X101300000Y-132240000D02*
X107800000Y-132240000D01*
%TO.N,/PA8*%
X101300000Y-129700000D02*
X107800000Y-129700000D01*
%TO.N,/PB10*%
X101300000Y-127160000D02*
X107800000Y-127160000D01*
%TO.N,/PB4*%
X101300000Y-124620000D02*
X107800000Y-124620000D01*
%TO.N,/PB5*%
X101300000Y-122080000D02*
X107800000Y-122080000D01*
%TO.N,/PB3*%
X101300000Y-119540000D02*
X107800000Y-119540000D01*
%TO.N,/PA10*%
X101300000Y-117000000D02*
X107800000Y-117000000D01*
%TO.N,/PB10*%
X97245000Y-123105000D02*
X97245000Y-104049486D01*
X101300000Y-127160000D02*
X97245000Y-123105000D01*
X97245000Y-104049486D02*
X118060000Y-83234486D01*
X118060000Y-83234486D02*
X118060000Y-82980000D01*
%TO.N,/PB4*%
X97696000Y-121016000D02*
X97696000Y-105884000D01*
X101300000Y-124620000D02*
X97696000Y-121016000D01*
X97696000Y-105884000D02*
X118060000Y-85520000D01*
%TO.N,/PB5*%
X98147000Y-107973000D02*
X118060000Y-88060000D01*
X98147000Y-118927000D02*
X98147000Y-107973000D01*
X101300000Y-122080000D02*
X98147000Y-118927000D01*
%TO.N,/PB3*%
X117624380Y-90600000D02*
X118060000Y-90600000D01*
X98598000Y-109626380D02*
X117624380Y-90600000D01*
X98598000Y-116838000D02*
X98598000Y-109626380D01*
X101300000Y-119540000D02*
X98598000Y-116838000D01*
%TO.N,/PA10*%
X115722190Y-93140000D02*
X118060000Y-93140000D01*
X99049000Y-114749000D02*
X99049000Y-109813190D01*
X101300000Y-117000000D02*
X99049000Y-114749000D01*
X99049000Y-109813190D02*
X115722190Y-93140000D01*
%TO.N,/PA2*%
X113820000Y-95680000D02*
X118060000Y-95680000D01*
X99500000Y-110000000D02*
X113820000Y-95680000D01*
X99500000Y-112660000D02*
X99500000Y-110000000D01*
X101300000Y-114460000D02*
X99500000Y-112660000D01*
%TO.N,/PA3*%
X113480000Y-98220000D02*
X118060000Y-98220000D01*
X101300000Y-110400000D02*
X113480000Y-98220000D01*
X101300000Y-111920000D02*
X101300000Y-110400000D01*
%TO.N,/PA2*%
X101300000Y-114460000D02*
X107800000Y-114460000D01*
%TO.N,/PA3*%
X101300000Y-111920000D02*
X107800000Y-111920000D01*
%TO.N,/PC3*%
X44770000Y-155330000D02*
X44900000Y-155200000D01*
X38600000Y-155330000D02*
X44770000Y-155330000D01*
%TO.N,/PC2*%
X44770000Y-152790000D02*
X44900000Y-152660000D01*
X38600000Y-152790000D02*
X44770000Y-152790000D01*
%TO.N,/PH1*%
X38600000Y-150250000D02*
X44770000Y-150250000D01*
X44770000Y-150250000D02*
X44900000Y-150120000D01*
%TO.N,/PH0*%
X44770000Y-147710000D02*
X44900000Y-147580000D01*
X38600000Y-147710000D02*
X44770000Y-147710000D01*
%TO.N,/PC15*%
X44770000Y-145170000D02*
X44900000Y-145040000D01*
X38600000Y-145170000D02*
X44770000Y-145170000D01*
%TO.N,/PC14*%
X38600000Y-142630000D02*
X44770000Y-142630000D01*
X44770000Y-142630000D02*
X44900000Y-142500000D01*
%TO.N,/PC13*%
X44770000Y-140090000D02*
X44900000Y-139960000D01*
X38600000Y-140090000D02*
X44770000Y-140090000D01*
%TO.N,/PB7*%
X38600000Y-137550000D02*
X44770000Y-137550000D01*
X44770000Y-137550000D02*
X44900000Y-137420000D01*
%TO.N,/PA15*%
X44770000Y-135010000D02*
X44900000Y-134880000D01*
X38600000Y-135010000D02*
X44770000Y-135010000D01*
%TO.N,/VDD*%
X44770000Y-132470000D02*
X44900000Y-132340000D01*
X38600000Y-132470000D02*
X44770000Y-132470000D01*
%TO.N,/PC12*%
X44770000Y-129930000D02*
X44900000Y-129800000D01*
X38600000Y-129930000D02*
X44770000Y-129930000D01*
%TO.N,/PC10*%
X44770000Y-127390000D02*
X44900000Y-127260000D01*
X38600000Y-127390000D02*
X44770000Y-127390000D01*
%TO.N,/PC3*%
X57100000Y-100600000D02*
X57100000Y-98220000D01*
X55500000Y-144600000D02*
X55500000Y-102200000D01*
X44900000Y-155200000D02*
X55500000Y-144600000D01*
X55500000Y-102200000D02*
X57100000Y-100600000D01*
%TO.N,/PC2*%
X53702000Y-99078000D02*
X57100000Y-95680000D01*
X53702000Y-143858000D02*
X53702000Y-99078000D01*
X44900000Y-152660000D02*
X53702000Y-143858000D01*
%TO.N,/PH1*%
X53251000Y-94449000D02*
X57100000Y-90600000D01*
X53251000Y-141769000D02*
X53251000Y-94449000D01*
X44900000Y-150120000D02*
X53251000Y-141769000D01*
%TO.N,/PH0*%
X52800000Y-92360000D02*
X57100000Y-88060000D01*
X52800000Y-139680000D02*
X52800000Y-92360000D01*
X44900000Y-147580000D02*
X52800000Y-139680000D01*
%TO.N,/PC15*%
X51700000Y-90920000D02*
X57100000Y-85520000D01*
X51700000Y-138240000D02*
X51700000Y-90920000D01*
X44900000Y-145040000D02*
X51700000Y-138240000D01*
%TO.N,/PC14*%
X50051000Y-90029000D02*
X57100000Y-82980000D01*
X50051000Y-137349000D02*
X50051000Y-90029000D01*
X44900000Y-142500000D02*
X50051000Y-137349000D01*
%TO.N,/PC13*%
X49600000Y-87940000D02*
X57100000Y-80440000D01*
X49600000Y-135260000D02*
X49600000Y-87940000D01*
X44900000Y-139960000D02*
X49600000Y-135260000D01*
%TO.N,/PB7*%
X49100000Y-85900000D02*
X57100000Y-77900000D01*
X44900000Y-137420000D02*
X49100000Y-133220000D01*
X49100000Y-133220000D02*
X49100000Y-85900000D01*
%TO.N,/PA15*%
X46978000Y-82942000D02*
X57100000Y-72820000D01*
X44900000Y-134880000D02*
X46978000Y-132802000D01*
X46978000Y-132802000D02*
X46978000Y-82942000D01*
%TO.N,/VDD*%
X46527000Y-68153000D02*
X57100000Y-57580000D01*
X46527000Y-130713000D02*
X46527000Y-68153000D01*
X44900000Y-132340000D02*
X46527000Y-130713000D01*
%TO.N,/PC12*%
X46076000Y-66064000D02*
X57100000Y-55040000D01*
X44900000Y-129800000D02*
X46076000Y-128624000D01*
X46076000Y-128624000D02*
X46076000Y-66064000D01*
%TO.N,/PC10*%
X44900000Y-127260000D02*
X44900000Y-64700000D01*
X44900000Y-64700000D02*
X57100000Y-52500000D01*
%TD*%
%TA.AperFunction,Conductor*%
%TO.N,/GND*%
G36*
X58387228Y-73261689D02*
G01*
X58399807Y-73261150D01*
X58419670Y-73272744D01*
X58441446Y-73280165D01*
X58450720Y-73290868D01*
X58460149Y-73296372D01*
X58480483Y-73325217D01*
X58560213Y-73481694D01*
X58677019Y-73642464D01*
X58817536Y-73782981D01*
X58978306Y-73899787D01*
X59065149Y-73944035D01*
X59155367Y-73990005D01*
X59155370Y-73990006D01*
X59249866Y-74020709D01*
X59344364Y-74051413D01*
X59540639Y-74082500D01*
X59540640Y-74082500D01*
X59719060Y-74082500D01*
X59786099Y-74102185D01*
X59806741Y-74118819D01*
X79963181Y-94275259D01*
X79996666Y-94336582D01*
X79999500Y-94362940D01*
X79999500Y-135217060D01*
X79979815Y-135284099D01*
X79963181Y-135304741D01*
X76404741Y-138863181D01*
X76343418Y-138896666D01*
X76317060Y-138899500D01*
X59221155Y-138899500D01*
X59066510Y-138930261D01*
X59066498Y-138930264D01*
X58920827Y-138990602D01*
X58920814Y-138990609D01*
X58789711Y-139078210D01*
X58789707Y-139078213D01*
X57509012Y-140358910D01*
X57089711Y-140778211D01*
X57037832Y-140830090D01*
X56978209Y-140889712D01*
X56890609Y-141020814D01*
X56890602Y-141020827D01*
X56830264Y-141166498D01*
X56830261Y-141166510D01*
X56799500Y-141321153D01*
X56799500Y-154217060D01*
X56779815Y-154284099D01*
X56763181Y-154304741D01*
X54164741Y-156903181D01*
X54103418Y-156936666D01*
X54077060Y-156939500D01*
X46050894Y-156939500D01*
X45983855Y-156919815D01*
X45950577Y-156888387D01*
X45930104Y-156860208D01*
X45779792Y-156709896D01*
X45779786Y-156709890D01*
X45607820Y-156584951D01*
X45607115Y-156584591D01*
X45599054Y-156580485D01*
X45548259Y-156532512D01*
X45531463Y-156464692D01*
X45553999Y-156398556D01*
X45599054Y-156359515D01*
X45607816Y-156355051D01*
X45629789Y-156339086D01*
X45779786Y-156230109D01*
X45779788Y-156230106D01*
X45779792Y-156230104D01*
X45930104Y-156079792D01*
X45930106Y-156079788D01*
X45930109Y-156079786D01*
X46055048Y-155907820D01*
X46055047Y-155907820D01*
X46055051Y-155907816D01*
X46151557Y-155718412D01*
X46217246Y-155516243D01*
X46250500Y-155306287D01*
X46250500Y-155093713D01*
X46217246Y-154883757D01*
X46212179Y-154868162D01*
X46210182Y-154798321D01*
X46242426Y-154742162D01*
X55898729Y-145085860D01*
X55898733Y-145085858D01*
X55985858Y-144998733D01*
X56050756Y-144901607D01*
X56054312Y-144896285D01*
X56086575Y-144818394D01*
X56101463Y-144782452D01*
X56118642Y-144696086D01*
X56125500Y-144661607D01*
X56125500Y-144538393D01*
X56125500Y-102510452D01*
X56145185Y-102443413D01*
X56161819Y-102422771D01*
X56870449Y-101714142D01*
X57585858Y-100998733D01*
X57654312Y-100896285D01*
X57701463Y-100782451D01*
X57725501Y-100661606D01*
X57725501Y-100538393D01*
X57725501Y-100533283D01*
X57725500Y-100533257D01*
X57725500Y-99389264D01*
X57745185Y-99322225D01*
X57776615Y-99288946D01*
X57922464Y-99182981D01*
X58062981Y-99042464D01*
X58179787Y-98881694D01*
X58259515Y-98725218D01*
X58307490Y-98674423D01*
X58375311Y-98657628D01*
X58441446Y-98680165D01*
X58480484Y-98725218D01*
X58560213Y-98881694D01*
X58677019Y-99042464D01*
X58817536Y-99182981D01*
X58978306Y-99299787D01*
X59022343Y-99322225D01*
X59155367Y-99390005D01*
X59155370Y-99390006D01*
X59249866Y-99420709D01*
X59344364Y-99451413D01*
X59540639Y-99482500D01*
X59540640Y-99482500D01*
X59739360Y-99482500D01*
X59739361Y-99482500D01*
X59917421Y-99454298D01*
X59986715Y-99463253D01*
X60024500Y-99489090D01*
X74438181Y-113902771D01*
X74471666Y-113964094D01*
X74474500Y-113990452D01*
X74474500Y-118885500D01*
X74454815Y-118952539D01*
X74402011Y-118998294D01*
X74350501Y-119009500D01*
X74202130Y-119009500D01*
X74202123Y-119009501D01*
X74142516Y-119015908D01*
X74007671Y-119066202D01*
X74007664Y-119066206D01*
X73892455Y-119152452D01*
X73892452Y-119152455D01*
X73806206Y-119267664D01*
X73806202Y-119267671D01*
X73755908Y-119402517D01*
X73749501Y-119462116D01*
X73749500Y-119462135D01*
X73749500Y-119610500D01*
X73729815Y-119677539D01*
X73677011Y-119723294D01*
X73625500Y-119734500D01*
X70274499Y-119734500D01*
X70207460Y-119714815D01*
X70161705Y-119662011D01*
X70150499Y-119610500D01*
X70150499Y-119382129D01*
X70150498Y-119382123D01*
X70150497Y-119382116D01*
X70144091Y-119322517D01*
X70093796Y-119187669D01*
X70093795Y-119187668D01*
X70093793Y-119187664D01*
X70007547Y-119072455D01*
X70007544Y-119072452D01*
X69892335Y-118986206D01*
X69892328Y-118986202D01*
X69757482Y-118935908D01*
X69757483Y-118935908D01*
X69697883Y-118929501D01*
X69697881Y-118929500D01*
X69697873Y-118929500D01*
X69697864Y-118929500D01*
X67902129Y-118929500D01*
X67902123Y-118929501D01*
X67842516Y-118935908D01*
X67707671Y-118986202D01*
X67707664Y-118986206D01*
X67592455Y-119072452D01*
X67592452Y-119072455D01*
X67506206Y-119187664D01*
X67506202Y-119187671D01*
X67455908Y-119322517D01*
X67449501Y-119382116D01*
X67449501Y-119382123D01*
X67449500Y-119382135D01*
X67449500Y-121177870D01*
X67449501Y-121177876D01*
X67455908Y-121237483D01*
X67506202Y-121372328D01*
X67506206Y-121372335D01*
X67592452Y-121487544D01*
X67592455Y-121487547D01*
X67707664Y-121573793D01*
X67707671Y-121573797D01*
X67839082Y-121622810D01*
X67895016Y-121664681D01*
X67919433Y-121730145D01*
X67904582Y-121798418D01*
X67883431Y-121826673D01*
X67769889Y-121940215D01*
X67644951Y-122112179D01*
X67548444Y-122301585D01*
X67482753Y-122503760D01*
X67449500Y-122713713D01*
X67449500Y-122926286D01*
X67478966Y-123112331D01*
X67482754Y-123136243D01*
X67536983Y-123303143D01*
X67548444Y-123338414D01*
X67644951Y-123527820D01*
X67769890Y-123699786D01*
X67920213Y-123850109D01*
X68092182Y-123975050D01*
X68100946Y-123979516D01*
X68151742Y-124027491D01*
X68168536Y-124095312D01*
X68145998Y-124161447D01*
X68100946Y-124200484D01*
X68092182Y-124204949D01*
X67920213Y-124329890D01*
X67769890Y-124480213D01*
X67644951Y-124652179D01*
X67548444Y-124841585D01*
X67482753Y-125043760D01*
X67449500Y-125253713D01*
X67449500Y-125466286D01*
X67482564Y-125675048D01*
X67482754Y-125676243D01*
X67544484Y-125866228D01*
X67548444Y-125878414D01*
X67644951Y-126067820D01*
X67769890Y-126239786D01*
X67920213Y-126390109D01*
X68092182Y-126515050D01*
X68100946Y-126519516D01*
X68151742Y-126567491D01*
X68168536Y-126635312D01*
X68145998Y-126701447D01*
X68100946Y-126740484D01*
X68092182Y-126744949D01*
X67920213Y-126869890D01*
X67769890Y-127020213D01*
X67644951Y-127192179D01*
X67548444Y-127381585D01*
X67482753Y-127583760D01*
X67449500Y-127793713D01*
X67449500Y-128006286D01*
X67482564Y-128215048D01*
X67482754Y-128216243D01*
X67538705Y-128388443D01*
X67548444Y-128418414D01*
X67644951Y-128607820D01*
X67769890Y-128779786D01*
X67920213Y-128930109D01*
X68092182Y-129055050D01*
X68100946Y-129059516D01*
X68151742Y-129107491D01*
X68168536Y-129175312D01*
X68145998Y-129241447D01*
X68100946Y-129280484D01*
X68092182Y-129284949D01*
X67920213Y-129409890D01*
X67769890Y-129560213D01*
X67644951Y-129732179D01*
X67548444Y-129921585D01*
X67482753Y-130123760D01*
X67449500Y-130333713D01*
X67449500Y-130546286D01*
X67482564Y-130755048D01*
X67482754Y-130756243D01*
X67538705Y-130928443D01*
X67548444Y-130958414D01*
X67644951Y-131147820D01*
X67769890Y-131319786D01*
X67920213Y-131470109D01*
X68092182Y-131595050D01*
X68100946Y-131599516D01*
X68151742Y-131647491D01*
X68168536Y-131715312D01*
X68145998Y-131781447D01*
X68100946Y-131820484D01*
X68092182Y-131824949D01*
X67920213Y-131949890D01*
X67769890Y-132100213D01*
X67644951Y-132272179D01*
X67548444Y-132461585D01*
X67482753Y-132663760D01*
X67463354Y-132786243D01*
X67449500Y-132873713D01*
X67449500Y-133086287D01*
X67452905Y-133107783D01*
X67482564Y-133295048D01*
X67482754Y-133296243D01*
X67538705Y-133468443D01*
X67548444Y-133498414D01*
X67644951Y-133687820D01*
X67769890Y-133859786D01*
X67920213Y-134010109D01*
X68092182Y-134135050D01*
X68100946Y-134139516D01*
X68151742Y-134187491D01*
X68168536Y-134255312D01*
X68145998Y-134321447D01*
X68100946Y-134360484D01*
X68092182Y-134364949D01*
X67920213Y-134489890D01*
X67769890Y-134640213D01*
X67644951Y-134812179D01*
X67548444Y-135001585D01*
X67482753Y-135203760D01*
X67449500Y-135413713D01*
X67449500Y-135626286D01*
X67482564Y-135835048D01*
X67482754Y-135836243D01*
X67538705Y-136008443D01*
X67548444Y-136038414D01*
X67644951Y-136227820D01*
X67769890Y-136399786D01*
X67920213Y-136550109D01*
X68092179Y-136675048D01*
X68092181Y-136675049D01*
X68092184Y-136675051D01*
X68281588Y-136771557D01*
X68483757Y-136837246D01*
X68693713Y-136870500D01*
X68693714Y-136870500D01*
X68906286Y-136870500D01*
X68906287Y-136870500D01*
X69116243Y-136837246D01*
X69318412Y-136771557D01*
X69507816Y-136675051D01*
X69569681Y-136630104D01*
X69679786Y-136550109D01*
X69679788Y-136550106D01*
X69679792Y-136550104D01*
X69830104Y-136399792D01*
X69830106Y-136399788D01*
X69830109Y-136399786D01*
X69955049Y-136227819D01*
X69957226Y-136223548D01*
X69962497Y-136213203D01*
X70010473Y-136162408D01*
X70072981Y-136145500D01*
X73786257Y-136145500D01*
X73853296Y-136165185D01*
X73896742Y-136213205D01*
X73904189Y-136227820D01*
X73940173Y-136298443D01*
X73944951Y-136307819D01*
X74069890Y-136479786D01*
X74220213Y-136630109D01*
X74392179Y-136755048D01*
X74392181Y-136755049D01*
X74392184Y-136755051D01*
X74581588Y-136851557D01*
X74783757Y-136917246D01*
X74993713Y-136950500D01*
X74993714Y-136950500D01*
X75206286Y-136950500D01*
X75206287Y-136950500D01*
X75416243Y-136917246D01*
X75618412Y-136851557D01*
X75807816Y-136755051D01*
X75891158Y-136694500D01*
X75979786Y-136630109D01*
X75979788Y-136630106D01*
X75979792Y-136630104D01*
X76130104Y-136479792D01*
X76130106Y-136479788D01*
X76130109Y-136479786D01*
X76255048Y-136307820D01*
X76255049Y-136307819D01*
X76255051Y-136307816D01*
X76351557Y-136118412D01*
X76417246Y-135916243D01*
X76450500Y-135706287D01*
X76450500Y-135493713D01*
X76417246Y-135283757D01*
X76412179Y-135268162D01*
X76410182Y-135198321D01*
X76442426Y-135142162D01*
X78953729Y-132630860D01*
X78953733Y-132630858D01*
X79040858Y-132543733D01*
X79099317Y-132456243D01*
X79109312Y-132441285D01*
X79145259Y-132354500D01*
X79156463Y-132327452D01*
X79180500Y-132206606D01*
X79180500Y-99422741D01*
X79180501Y-99422720D01*
X79180501Y-99293391D01*
X79156464Y-99172555D01*
X79156463Y-99172549D01*
X79109312Y-99058715D01*
X79040858Y-98956267D01*
X79040855Y-98956263D01*
X60909090Y-80824500D01*
X60875605Y-80763177D01*
X60874298Y-80717421D01*
X60902500Y-80539360D01*
X60902500Y-80340639D01*
X60888578Y-80252739D01*
X60871413Y-80144364D01*
X60810005Y-79955368D01*
X60810005Y-79955367D01*
X60733924Y-79806051D01*
X60719787Y-79778306D01*
X60602981Y-79617536D01*
X60462464Y-79477019D01*
X60301694Y-79360213D01*
X60273976Y-79346090D01*
X60124632Y-79269994D01*
X60124629Y-79269993D01*
X59935637Y-79208587D01*
X59837498Y-79193043D01*
X59739361Y-79177500D01*
X59540639Y-79177500D01*
X59475214Y-79187862D01*
X59344362Y-79208587D01*
X59155370Y-79269993D01*
X59155367Y-79269994D01*
X58978305Y-79360213D01*
X58817533Y-79477021D01*
X58677021Y-79617533D01*
X58560213Y-79778305D01*
X58480485Y-79934780D01*
X58432510Y-79985576D01*
X58364689Y-80002371D01*
X58298554Y-79979833D01*
X58259515Y-79934780D01*
X58198229Y-79814500D01*
X58179787Y-79778306D01*
X58062981Y-79617536D01*
X57922464Y-79477019D01*
X57761694Y-79360213D01*
X57605218Y-79280484D01*
X57554423Y-79232510D01*
X57537628Y-79164689D01*
X57560165Y-79098554D01*
X57605218Y-79059515D01*
X57761694Y-78979787D01*
X57922464Y-78862981D01*
X58062981Y-78722464D01*
X58179787Y-78561694D01*
X58270005Y-78384632D01*
X58331413Y-78195636D01*
X58362500Y-77999361D01*
X58362500Y-77800639D01*
X58331413Y-77604364D01*
X58270005Y-77415368D01*
X58270005Y-77415367D01*
X58179786Y-77238305D01*
X58167047Y-77220771D01*
X58062981Y-77077536D01*
X57922464Y-76937019D01*
X57761694Y-76820213D01*
X57584632Y-76729994D01*
X57584629Y-76729993D01*
X57395637Y-76668587D01*
X57297498Y-76653043D01*
X57199361Y-76637500D01*
X57000639Y-76637500D01*
X56935214Y-76647862D01*
X56804362Y-76668587D01*
X56615370Y-76729993D01*
X56615367Y-76729994D01*
X56438305Y-76820213D01*
X56277533Y-76937021D01*
X56137021Y-77077533D01*
X56020213Y-77238305D01*
X55929994Y-77415367D01*
X55929993Y-77415370D01*
X55868587Y-77604362D01*
X55837500Y-77800639D01*
X55837500Y-77999361D01*
X55837499Y-77999361D01*
X55865701Y-78177420D01*
X55856746Y-78246713D01*
X55830909Y-78284498D01*
X48701269Y-85414140D01*
X48614144Y-85501264D01*
X48614138Y-85501272D01*
X48545690Y-85603708D01*
X48545688Y-85603713D01*
X48515998Y-85675393D01*
X48498538Y-85717544D01*
X48498535Y-85717556D01*
X48474500Y-85838389D01*
X48474500Y-132909547D01*
X48454815Y-132976586D01*
X48438181Y-132997228D01*
X46462181Y-134973228D01*
X46400858Y-135006713D01*
X46331166Y-135001729D01*
X46275233Y-134959857D01*
X46250816Y-134894393D01*
X46250500Y-134885547D01*
X46250500Y-134773713D01*
X46247154Y-134752587D01*
X46217246Y-134563757D01*
X46212179Y-134548162D01*
X46210182Y-134478321D01*
X46242426Y-134422162D01*
X47376729Y-133287860D01*
X47376733Y-133287858D01*
X47463858Y-133200733D01*
X47517945Y-133119786D01*
X47525965Y-133107784D01*
X47525966Y-133107783D01*
X47532309Y-133098289D01*
X47532312Y-133098285D01*
X47562953Y-133024311D01*
X47579463Y-132984452D01*
X47594362Y-132909547D01*
X47595773Y-132902455D01*
X47595773Y-132902452D01*
X47603500Y-132863607D01*
X47603500Y-132740393D01*
X47603500Y-83252452D01*
X47623185Y-83185413D01*
X47639819Y-83164771D01*
X52082126Y-78722464D01*
X56715501Y-74089088D01*
X56776822Y-74055605D01*
X56822578Y-74054298D01*
X56916571Y-74069184D01*
X57000639Y-74082500D01*
X57000640Y-74082500D01*
X57199360Y-74082500D01*
X57199361Y-74082500D01*
X57395636Y-74051413D01*
X57584632Y-73990005D01*
X57761694Y-73899787D01*
X57922464Y-73782981D01*
X58062981Y-73642464D01*
X58179787Y-73481694D01*
X58259515Y-73325218D01*
X58268159Y-73316065D01*
X58272895Y-73304399D01*
X58291696Y-73291144D01*
X58307490Y-73274423D01*
X58319710Y-73271396D01*
X58330002Y-73264142D01*
X58352984Y-73263156D01*
X58375311Y-73257628D01*
X58387228Y-73261689D01*
G37*
%TD.AperFunction*%
%TA.AperFunction,Conductor*%
G36*
X119347228Y-60561689D02*
G01*
X119359807Y-60561150D01*
X119379670Y-60572744D01*
X119401446Y-60580165D01*
X119410720Y-60590868D01*
X119420149Y-60596372D01*
X119440483Y-60625217D01*
X119520213Y-60781694D01*
X119637019Y-60942464D01*
X119777536Y-61082981D01*
X119938306Y-61199787D01*
X120056832Y-61260179D01*
X120094780Y-61279515D01*
X120145576Y-61327490D01*
X120162371Y-61395311D01*
X120139833Y-61461446D01*
X120094780Y-61500485D01*
X119938305Y-61580213D01*
X119777533Y-61697021D01*
X119637021Y-61837533D01*
X119520213Y-61998305D01*
X119429994Y-62175367D01*
X119429993Y-62175370D01*
X119368587Y-62364362D01*
X119337500Y-62560639D01*
X119337500Y-62759360D01*
X119368587Y-62955637D01*
X119429993Y-63144629D01*
X119429994Y-63144632D01*
X119520213Y-63321694D01*
X119637019Y-63482464D01*
X119777536Y-63622981D01*
X119938306Y-63739787D01*
X120056832Y-63800179D01*
X120094780Y-63819515D01*
X120145576Y-63867490D01*
X120162371Y-63935311D01*
X120139833Y-64001446D01*
X120094780Y-64040485D01*
X119938305Y-64120213D01*
X119777533Y-64237021D01*
X119637021Y-64377533D01*
X119520213Y-64538305D01*
X119440485Y-64694780D01*
X119392510Y-64745576D01*
X119324689Y-64762371D01*
X119258554Y-64739833D01*
X119219515Y-64694780D01*
X119139786Y-64538305D01*
X119100483Y-64484209D01*
X119022981Y-64377536D01*
X118882464Y-64237019D01*
X118721694Y-64120213D01*
X118544632Y-64029994D01*
X118544629Y-64029993D01*
X118355637Y-63968587D01*
X118257498Y-63953043D01*
X118159361Y-63937500D01*
X117960639Y-63937500D01*
X117895214Y-63947862D01*
X117764362Y-63968587D01*
X117575370Y-64029993D01*
X117575367Y-64029994D01*
X117398305Y-64120213D01*
X117237533Y-64237021D01*
X117097021Y-64377533D01*
X116980213Y-64538305D01*
X116889994Y-64715367D01*
X116889993Y-64715370D01*
X116828587Y-64904362D01*
X116797500Y-65100639D01*
X116797500Y-65299361D01*
X116797499Y-65299361D01*
X116825701Y-65477420D01*
X116816746Y-65546713D01*
X116790909Y-65584498D01*
X93280181Y-89095227D01*
X93218858Y-89128712D01*
X93149166Y-89123728D01*
X93093233Y-89081856D01*
X93068816Y-89016392D01*
X93068500Y-89007546D01*
X93068500Y-86047451D01*
X93088185Y-85980412D01*
X93104814Y-85959775D01*
X117675501Y-61389087D01*
X117736822Y-61355604D01*
X117782573Y-61354297D01*
X117960639Y-61382500D01*
X117960640Y-61382500D01*
X118159360Y-61382500D01*
X118159361Y-61382500D01*
X118355636Y-61351413D01*
X118544632Y-61290005D01*
X118721694Y-61199787D01*
X118882464Y-61082981D01*
X119022981Y-60942464D01*
X119139787Y-60781694D01*
X119219515Y-60625218D01*
X119228159Y-60616065D01*
X119232895Y-60604399D01*
X119251696Y-60591144D01*
X119267490Y-60574423D01*
X119279710Y-60571396D01*
X119290002Y-60564142D01*
X119312984Y-60563156D01*
X119335311Y-60557628D01*
X119347228Y-60561689D01*
G37*
%TD.AperFunction*%
%TA.AperFunction,Conductor*%
G36*
X59301265Y-58801138D02*
G01*
X59305147Y-58800580D01*
X59325820Y-58805388D01*
X59334100Y-58808078D01*
X59344361Y-58811412D01*
X59344364Y-58811413D01*
X59540639Y-58842500D01*
X59540640Y-58842500D01*
X59739360Y-58842500D01*
X59739361Y-58842500D01*
X59917421Y-58814298D01*
X59986715Y-58823253D01*
X60024500Y-58849090D01*
X83840181Y-82664771D01*
X83873666Y-82726094D01*
X83876500Y-82752452D01*
X83876500Y-88252548D01*
X83856815Y-88319587D01*
X83804011Y-88365342D01*
X83734853Y-88375286D01*
X83671297Y-88346261D01*
X83664819Y-88340229D01*
X60909090Y-65584500D01*
X60875605Y-65523177D01*
X60874298Y-65477421D01*
X60902500Y-65299360D01*
X60902500Y-65100639D01*
X60871413Y-64904364D01*
X60810005Y-64715368D01*
X60810005Y-64715367D01*
X60719786Y-64538305D01*
X60680483Y-64484209D01*
X60602981Y-64377536D01*
X60462464Y-64237019D01*
X60301694Y-64120213D01*
X60145218Y-64040484D01*
X60094423Y-63992510D01*
X60077628Y-63924689D01*
X60100165Y-63858554D01*
X60145218Y-63819515D01*
X60301694Y-63739787D01*
X60462464Y-63622981D01*
X60602981Y-63482464D01*
X60719787Y-63321694D01*
X60810005Y-63144632D01*
X60871413Y-62955636D01*
X60902500Y-62759361D01*
X60902500Y-62560639D01*
X60871413Y-62364364D01*
X60810005Y-62175368D01*
X60810005Y-62175367D01*
X60719786Y-61998305D01*
X60602981Y-61837536D01*
X60462464Y-61697019D01*
X60301694Y-61580213D01*
X60124632Y-61489994D01*
X60124629Y-61489993D01*
X59935637Y-61428587D01*
X59837498Y-61413043D01*
X59739361Y-61397500D01*
X59540639Y-61397500D01*
X59475214Y-61407862D01*
X59344362Y-61428587D01*
X59325815Y-61434613D01*
X59255974Y-61436606D01*
X59196142Y-61400524D01*
X59165316Y-61337823D01*
X59163500Y-61316681D01*
X59163500Y-58923318D01*
X59171424Y-58896329D01*
X59176223Y-58868605D01*
X59181138Y-58863249D01*
X59183185Y-58856279D01*
X59204441Y-58837860D01*
X59223468Y-58817130D01*
X59230497Y-58815282D01*
X59235989Y-58810524D01*
X59263835Y-58806520D01*
X59291043Y-58799369D01*
X59301265Y-58801138D01*
G37*
%TD.AperFunction*%
%TA.AperFunction,Conductor*%
G36*
X119347228Y-73261689D02*
G01*
X119359807Y-73261150D01*
X119379670Y-73272744D01*
X119401446Y-73280165D01*
X119410720Y-73290868D01*
X119420149Y-73296372D01*
X119440483Y-73325217D01*
X119520213Y-73481694D01*
X119637019Y-73642464D01*
X119777536Y-73782981D01*
X119938306Y-73899787D01*
X120025149Y-73944035D01*
X120115367Y-73990005D01*
X120115370Y-73990006D01*
X120209866Y-74020709D01*
X120304364Y-74051413D01*
X120500639Y-74082500D01*
X120500640Y-74082500D01*
X120699360Y-74082500D01*
X120699361Y-74082500D01*
X120877421Y-74054298D01*
X120946715Y-74063253D01*
X120984500Y-74089090D01*
X130338181Y-83442771D01*
X130371666Y-83504094D01*
X130374500Y-83530452D01*
X130374500Y-86490547D01*
X130354815Y-86557586D01*
X130302011Y-86603341D01*
X130232853Y-86613285D01*
X130169297Y-86584260D01*
X130162819Y-86578228D01*
X121869090Y-78284500D01*
X121835605Y-78223177D01*
X121834298Y-78177421D01*
X121862500Y-77999360D01*
X121862500Y-77800639D01*
X121851082Y-77728548D01*
X121831413Y-77604364D01*
X121770005Y-77415368D01*
X121770005Y-77415367D01*
X121679786Y-77238305D01*
X121667047Y-77220771D01*
X121562981Y-77077536D01*
X121422464Y-76937019D01*
X121261694Y-76820213D01*
X121084632Y-76729994D01*
X121084629Y-76729993D01*
X120895637Y-76668587D01*
X120797498Y-76653043D01*
X120699361Y-76637500D01*
X120500639Y-76637500D01*
X120435214Y-76647862D01*
X120304362Y-76668587D01*
X120115370Y-76729993D01*
X120115367Y-76729994D01*
X119938305Y-76820213D01*
X119777533Y-76937021D01*
X119637021Y-77077533D01*
X119520213Y-77238305D01*
X119440485Y-77394780D01*
X119392510Y-77445576D01*
X119324689Y-77462371D01*
X119258554Y-77439833D01*
X119219515Y-77394780D01*
X119139786Y-77238305D01*
X119127047Y-77220771D01*
X119022981Y-77077536D01*
X118882464Y-76937019D01*
X118721694Y-76820213D01*
X118565218Y-76740484D01*
X118514423Y-76692510D01*
X118497628Y-76624689D01*
X118520165Y-76558554D01*
X118565218Y-76519515D01*
X118721694Y-76439787D01*
X118882464Y-76322981D01*
X119022981Y-76182464D01*
X119139787Y-76021694D01*
X119230005Y-75844632D01*
X119291413Y-75655636D01*
X119322500Y-75459361D01*
X119322500Y-75260639D01*
X119291413Y-75064364D01*
X119230005Y-74875368D01*
X119230005Y-74875367D01*
X119139786Y-74698305D01*
X119022981Y-74537536D01*
X118882464Y-74397019D01*
X118721694Y-74280213D01*
X118565218Y-74200484D01*
X118514423Y-74152510D01*
X118497628Y-74084689D01*
X118520165Y-74018554D01*
X118565218Y-73979515D01*
X118721694Y-73899787D01*
X118882464Y-73782981D01*
X119022981Y-73642464D01*
X119139787Y-73481694D01*
X119219515Y-73325218D01*
X119228159Y-73316065D01*
X119232895Y-73304399D01*
X119251696Y-73291144D01*
X119267490Y-73274423D01*
X119279710Y-73271396D01*
X119290002Y-73264142D01*
X119312984Y-73263156D01*
X119335311Y-73257628D01*
X119347228Y-73261689D01*
G37*
%TD.AperFunction*%
%TA.AperFunction,Conductor*%
G36*
X150442539Y-20520185D02*
G01*
X150488294Y-20572989D01*
X150499500Y-20624500D01*
X150499500Y-173375500D01*
X150479815Y-173442539D01*
X150427011Y-173488294D01*
X150375500Y-173499500D01*
X28624500Y-173499500D01*
X28557461Y-173479815D01*
X28511706Y-173427011D01*
X28500500Y-173375500D01*
X28500500Y-168628711D01*
X53399500Y-168628711D01*
X53399500Y-168871288D01*
X53431161Y-169111785D01*
X53493947Y-169346104D01*
X53586773Y-169570205D01*
X53586776Y-169570212D01*
X53708064Y-169780289D01*
X53708066Y-169780292D01*
X53708067Y-169780293D01*
X53855733Y-169972736D01*
X53855739Y-169972743D01*
X54027256Y-170144260D01*
X54027262Y-170144265D01*
X54219711Y-170291936D01*
X54429788Y-170413224D01*
X54653900Y-170506054D01*
X54888211Y-170568838D01*
X55068586Y-170592584D01*
X55128711Y-170600500D01*
X55128712Y-170600500D01*
X55371289Y-170600500D01*
X55419388Y-170594167D01*
X55611789Y-170568838D01*
X55846100Y-170506054D01*
X56070212Y-170413224D01*
X56280289Y-170291936D01*
X56472738Y-170144265D01*
X56644265Y-169972738D01*
X56791936Y-169780289D01*
X56913224Y-169570212D01*
X57006054Y-169346100D01*
X57068838Y-169111789D01*
X57100500Y-168871288D01*
X57100500Y-168628712D01*
X57100500Y-168628711D01*
X120899500Y-168628711D01*
X120899500Y-168871288D01*
X120931161Y-169111785D01*
X120993947Y-169346104D01*
X121086773Y-169570205D01*
X121086776Y-169570212D01*
X121208064Y-169780289D01*
X121208066Y-169780292D01*
X121208067Y-169780293D01*
X121355733Y-169972736D01*
X121355739Y-169972743D01*
X121527256Y-170144260D01*
X121527262Y-170144265D01*
X121719711Y-170291936D01*
X121929788Y-170413224D01*
X122153900Y-170506054D01*
X122388211Y-170568838D01*
X122568586Y-170592584D01*
X122628711Y-170600500D01*
X122628712Y-170600500D01*
X122871289Y-170600500D01*
X122919388Y-170594167D01*
X123111789Y-170568838D01*
X123346100Y-170506054D01*
X123570212Y-170413224D01*
X123780289Y-170291936D01*
X123972738Y-170144265D01*
X124144265Y-169972738D01*
X124291936Y-169780289D01*
X124413224Y-169570212D01*
X124506054Y-169346100D01*
X124568838Y-169111789D01*
X124600500Y-168871288D01*
X124600500Y-168628712D01*
X124568838Y-168388211D01*
X124506054Y-168153900D01*
X124413224Y-167929788D01*
X124291936Y-167719711D01*
X124144265Y-167527262D01*
X124144260Y-167527256D01*
X123972743Y-167355739D01*
X123972736Y-167355733D01*
X123780293Y-167208067D01*
X123780292Y-167208066D01*
X123780289Y-167208064D01*
X123570212Y-167086776D01*
X123570205Y-167086773D01*
X123346104Y-166993947D01*
X123111785Y-166931161D01*
X122871289Y-166899500D01*
X122871288Y-166899500D01*
X122628712Y-166899500D01*
X122628711Y-166899500D01*
X122388214Y-166931161D01*
X122153895Y-166993947D01*
X121929794Y-167086773D01*
X121929785Y-167086777D01*
X121719706Y-167208067D01*
X121527263Y-167355733D01*
X121527256Y-167355739D01*
X121355739Y-167527256D01*
X121355733Y-167527263D01*
X121208067Y-167719706D01*
X121086777Y-167929785D01*
X121086773Y-167929794D01*
X120993947Y-168153895D01*
X120931161Y-168388214D01*
X120899500Y-168628711D01*
X57100500Y-168628711D01*
X57068838Y-168388211D01*
X57006054Y-168153900D01*
X56913224Y-167929788D01*
X56791936Y-167719711D01*
X56644265Y-167527262D01*
X56644260Y-167527256D01*
X56472743Y-167355739D01*
X56472736Y-167355733D01*
X56280293Y-167208067D01*
X56280292Y-167208066D01*
X56280289Y-167208064D01*
X56070212Y-167086776D01*
X56070205Y-167086773D01*
X55846104Y-166993947D01*
X55611785Y-166931161D01*
X55371289Y-166899500D01*
X55371288Y-166899500D01*
X55128712Y-166899500D01*
X55128711Y-166899500D01*
X54888214Y-166931161D01*
X54653895Y-166993947D01*
X54429794Y-167086773D01*
X54429785Y-167086777D01*
X54219706Y-167208067D01*
X54027263Y-167355733D01*
X54027256Y-167355739D01*
X53855739Y-167527256D01*
X53855733Y-167527263D01*
X53708067Y-167719706D01*
X53586777Y-167929785D01*
X53586773Y-167929794D01*
X53493947Y-168153895D01*
X53431161Y-168388214D01*
X53399500Y-168628711D01*
X28500500Y-168628711D01*
X28500500Y-67871153D01*
X30449500Y-67871153D01*
X30449500Y-158928846D01*
X30480261Y-159083489D01*
X30480264Y-159083501D01*
X30540602Y-159229172D01*
X30540609Y-159229185D01*
X30628210Y-159360288D01*
X30628213Y-159360292D01*
X32178211Y-160910289D01*
X32239536Y-160971614D01*
X32289712Y-161021790D01*
X32420814Y-161109390D01*
X32420827Y-161109397D01*
X32519104Y-161150104D01*
X32566503Y-161169737D01*
X32717569Y-161199786D01*
X32721153Y-161200499D01*
X32721156Y-161200500D01*
X32721158Y-161200500D01*
X34768672Y-161200500D01*
X34792863Y-161202882D01*
X34811459Y-161206581D01*
X34831156Y-161210500D01*
X34831157Y-161210500D01*
X34831158Y-161210500D01*
X37449106Y-161210500D01*
X37516145Y-161230185D01*
X37549422Y-161261612D01*
X37569896Y-161289792D01*
X37569898Y-161289794D01*
X37720213Y-161440109D01*
X37892179Y-161565048D01*
X37892181Y-161565049D01*
X37892184Y-161565051D01*
X38081588Y-161661557D01*
X38283757Y-161727246D01*
X38493713Y-161760500D01*
X38493714Y-161760500D01*
X38706286Y-161760500D01*
X38706287Y-161760500D01*
X38916243Y-161727246D01*
X39118412Y-161661557D01*
X39307816Y-161565051D01*
X39355372Y-161530500D01*
X39479786Y-161440109D01*
X39479788Y-161440106D01*
X39479792Y-161440104D01*
X39630104Y-161289792D01*
X39650577Y-161261613D01*
X39705906Y-161218949D01*
X39750894Y-161210500D01*
X43869242Y-161210500D01*
X43936281Y-161230185D01*
X43956923Y-161246819D01*
X44020213Y-161310109D01*
X44192179Y-161435048D01*
X44192181Y-161435049D01*
X44192184Y-161435051D01*
X44381588Y-161531557D01*
X44583757Y-161597246D01*
X44793713Y-161630500D01*
X44793714Y-161630500D01*
X45006286Y-161630500D01*
X45006287Y-161630500D01*
X45216243Y-161597246D01*
X45418412Y-161531557D01*
X45607816Y-161435051D01*
X45629789Y-161419086D01*
X45779786Y-161310109D01*
X45779788Y-161310106D01*
X45779792Y-161310104D01*
X45930104Y-161159792D01*
X45950577Y-161131613D01*
X46005906Y-161088949D01*
X46050894Y-161080500D01*
X67520044Y-161080500D01*
X67587083Y-161100185D01*
X67620362Y-161131615D01*
X67669890Y-161199786D01*
X67820213Y-161350109D01*
X67992179Y-161475048D01*
X67992181Y-161475049D01*
X67992184Y-161475051D01*
X68181588Y-161571557D01*
X68383757Y-161637246D01*
X68593713Y-161670500D01*
X68593714Y-161670500D01*
X68806286Y-161670500D01*
X68806287Y-161670500D01*
X69016243Y-161637246D01*
X69218412Y-161571557D01*
X69407816Y-161475051D01*
X69455917Y-161440104D01*
X69579786Y-161350109D01*
X69579788Y-161350106D01*
X69579792Y-161350104D01*
X69730104Y-161199792D01*
X69750577Y-161171613D01*
X69805906Y-161128949D01*
X69850894Y-161120500D01*
X74079242Y-161120500D01*
X74146281Y-161140185D01*
X74166923Y-161156819D01*
X74220213Y-161210109D01*
X74392179Y-161335048D01*
X74392181Y-161335049D01*
X74392184Y-161335051D01*
X74581588Y-161431557D01*
X74783757Y-161497246D01*
X74993713Y-161530500D01*
X74993714Y-161530500D01*
X75206286Y-161530500D01*
X75206287Y-161530500D01*
X75416243Y-161497246D01*
X75618412Y-161431557D01*
X75807816Y-161335051D01*
X75842153Y-161310104D01*
X75979786Y-161210109D01*
X75979788Y-161210106D01*
X75979792Y-161210104D01*
X76130104Y-161059792D01*
X76150577Y-161031613D01*
X76205906Y-160988949D01*
X76250894Y-160980500D01*
X100149106Y-160980500D01*
X100216145Y-161000185D01*
X100249422Y-161031612D01*
X100269896Y-161059792D01*
X100269898Y-161059794D01*
X100420213Y-161210109D01*
X100592179Y-161335048D01*
X100592181Y-161335049D01*
X100592184Y-161335051D01*
X100781588Y-161431557D01*
X100983757Y-161497246D01*
X101193713Y-161530500D01*
X101193714Y-161530500D01*
X101406286Y-161530500D01*
X101406287Y-161530500D01*
X101616243Y-161497246D01*
X101818412Y-161431557D01*
X102007816Y-161335051D01*
X102042153Y-161310104D01*
X102179786Y-161210109D01*
X102179788Y-161210106D01*
X102179792Y-161210104D01*
X102330104Y-161059792D01*
X102350577Y-161031613D01*
X102405906Y-160988949D01*
X102450894Y-160980500D01*
X106649106Y-160980500D01*
X106716145Y-161000185D01*
X106749422Y-161031612D01*
X106769896Y-161059792D01*
X106769898Y-161059794D01*
X106920213Y-161210109D01*
X107092179Y-161335048D01*
X107092181Y-161335049D01*
X107092184Y-161335051D01*
X107281588Y-161431557D01*
X107483757Y-161497246D01*
X107693713Y-161530500D01*
X107693714Y-161530500D01*
X107906286Y-161530500D01*
X107906287Y-161530500D01*
X108116243Y-161497246D01*
X108318412Y-161431557D01*
X108507816Y-161335051D01*
X108542153Y-161310104D01*
X108679786Y-161210109D01*
X108679788Y-161210106D01*
X108679792Y-161210104D01*
X108830104Y-161059792D01*
X108923229Y-160931614D01*
X108978558Y-160888949D01*
X109023547Y-160880500D01*
X134349106Y-160880500D01*
X134416145Y-160900185D01*
X134449422Y-160931612D01*
X134469896Y-160959792D01*
X134469898Y-160959794D01*
X134620213Y-161110109D01*
X134792179Y-161235048D01*
X134792181Y-161235049D01*
X134792184Y-161235051D01*
X134981588Y-161331557D01*
X135183757Y-161397246D01*
X135393713Y-161430500D01*
X135393714Y-161430500D01*
X135606286Y-161430500D01*
X135606287Y-161430500D01*
X135816243Y-161397246D01*
X136018412Y-161331557D01*
X136207816Y-161235051D01*
X136255373Y-161200499D01*
X136379786Y-161110109D01*
X136379788Y-161110106D01*
X136379792Y-161110104D01*
X136530104Y-160959792D01*
X136530104Y-160959791D01*
X136533077Y-160956819D01*
X136594400Y-160923334D01*
X136620758Y-160920500D01*
X140849106Y-160920500D01*
X140916145Y-160940185D01*
X140949422Y-160971612D01*
X140969896Y-160999792D01*
X140969898Y-160999794D01*
X141120213Y-161150109D01*
X141292179Y-161275048D01*
X141292181Y-161275049D01*
X141292184Y-161275051D01*
X141481588Y-161371557D01*
X141683757Y-161437246D01*
X141893713Y-161470500D01*
X141893714Y-161470500D01*
X142106286Y-161470500D01*
X142106287Y-161470500D01*
X142316243Y-161437246D01*
X142518412Y-161371557D01*
X142707816Y-161275051D01*
X142769569Y-161230185D01*
X142879786Y-161150109D01*
X142879788Y-161150106D01*
X142879792Y-161150104D01*
X143030104Y-160999792D01*
X143030106Y-160999788D01*
X143030109Y-160999786D01*
X143155048Y-160827820D01*
X143155047Y-160827820D01*
X143155051Y-160827816D01*
X143251557Y-160638412D01*
X143317246Y-160436243D01*
X143350500Y-160226287D01*
X143350500Y-160013713D01*
X143317246Y-159803757D01*
X143251557Y-159601588D01*
X143155051Y-159412184D01*
X143155049Y-159412181D01*
X143155048Y-159412179D01*
X143030109Y-159240213D01*
X142879786Y-159089890D01*
X142707820Y-158964951D01*
X142707115Y-158964591D01*
X142699054Y-158960485D01*
X142648259Y-158912512D01*
X142631463Y-158844692D01*
X142653999Y-158778556D01*
X142699054Y-158739515D01*
X142707816Y-158735051D01*
X142797209Y-158670104D01*
X142879786Y-158610109D01*
X142879788Y-158610106D01*
X142879792Y-158610104D01*
X143030104Y-158459792D01*
X143030106Y-158459788D01*
X143030109Y-158459786D01*
X143155048Y-158287820D01*
X143155047Y-158287820D01*
X143155051Y-158287816D01*
X143251557Y-158098412D01*
X143317246Y-157896243D01*
X143350500Y-157686287D01*
X143350500Y-157473713D01*
X143317246Y-157263757D01*
X143251557Y-157061588D01*
X143155051Y-156872184D01*
X143155049Y-156872181D01*
X143155048Y-156872179D01*
X143030109Y-156700213D01*
X142879786Y-156549890D01*
X142707820Y-156424951D01*
X142707115Y-156424591D01*
X142699054Y-156420485D01*
X142648259Y-156372512D01*
X142631463Y-156304692D01*
X142653999Y-156238556D01*
X142699054Y-156199515D01*
X142707816Y-156195051D01*
X142811402Y-156119792D01*
X142879786Y-156070109D01*
X142879788Y-156070106D01*
X142879792Y-156070104D01*
X143030104Y-155919792D01*
X143030106Y-155919788D01*
X143030109Y-155919786D01*
X143155048Y-155747820D01*
X143155047Y-155747820D01*
X143155051Y-155747816D01*
X143251557Y-155558412D01*
X143317246Y-155356243D01*
X143350500Y-155146287D01*
X143350500Y-154933713D01*
X143317246Y-154723757D01*
X143251557Y-154521588D01*
X143155051Y-154332184D01*
X143155049Y-154332181D01*
X143155048Y-154332179D01*
X143030109Y-154160213D01*
X142879786Y-154009890D01*
X142707820Y-153884951D01*
X142707115Y-153884591D01*
X142699054Y-153880485D01*
X142648259Y-153832512D01*
X142631463Y-153764692D01*
X142653999Y-153698556D01*
X142699054Y-153659515D01*
X142707816Y-153655051D01*
X142811402Y-153579792D01*
X142879786Y-153530109D01*
X142879788Y-153530106D01*
X142879792Y-153530104D01*
X143030104Y-153379792D01*
X143030106Y-153379788D01*
X143030109Y-153379786D01*
X143155048Y-153207820D01*
X143155047Y-153207820D01*
X143155051Y-153207816D01*
X143251557Y-153018412D01*
X143317246Y-152816243D01*
X143350500Y-152606287D01*
X143350500Y-152393713D01*
X143317246Y-152183757D01*
X143251557Y-151981588D01*
X143155051Y-151792184D01*
X143155049Y-151792181D01*
X143155048Y-151792179D01*
X143030109Y-151620213D01*
X142879786Y-151469890D01*
X142707820Y-151344951D01*
X142707115Y-151344591D01*
X142699054Y-151340485D01*
X142648259Y-151292512D01*
X142631463Y-151224692D01*
X142653999Y-151158556D01*
X142699054Y-151119515D01*
X142707816Y-151115051D01*
X142811402Y-151039792D01*
X142879786Y-150990109D01*
X142879788Y-150990106D01*
X142879792Y-150990104D01*
X143030104Y-150839792D01*
X143030106Y-150839788D01*
X143030109Y-150839786D01*
X143155048Y-150667820D01*
X143155047Y-150667820D01*
X143155051Y-150667816D01*
X143251557Y-150478412D01*
X143317246Y-150276243D01*
X143350500Y-150066287D01*
X143350500Y-149853713D01*
X143317246Y-149643757D01*
X143251557Y-149441588D01*
X143155051Y-149252184D01*
X143155049Y-149252181D01*
X143155048Y-149252179D01*
X143030109Y-149080213D01*
X142879786Y-148929890D01*
X142707820Y-148804951D01*
X142707115Y-148804591D01*
X142699054Y-148800485D01*
X142648259Y-148752512D01*
X142631463Y-148684692D01*
X142653999Y-148618556D01*
X142699054Y-148579515D01*
X142707816Y-148575051D01*
X142811402Y-148499792D01*
X142879786Y-148450109D01*
X142879788Y-148450106D01*
X142879792Y-148450104D01*
X143030104Y-148299792D01*
X143030106Y-148299788D01*
X143030109Y-148299786D01*
X143155048Y-148127820D01*
X143155047Y-148127820D01*
X143155051Y-148127816D01*
X143251557Y-147938412D01*
X143317246Y-147736243D01*
X143350500Y-147526287D01*
X143350500Y-147313713D01*
X143317246Y-147103757D01*
X143251557Y-146901588D01*
X143155051Y-146712184D01*
X143155049Y-146712181D01*
X143155048Y-146712179D01*
X143030109Y-146540213D01*
X142879786Y-146389890D01*
X142707820Y-146264951D01*
X142707115Y-146264591D01*
X142699054Y-146260485D01*
X142648259Y-146212512D01*
X142631463Y-146144692D01*
X142653999Y-146078556D01*
X142699054Y-146039515D01*
X142707816Y-146035051D01*
X142786502Y-145977883D01*
X142879786Y-145910109D01*
X142879788Y-145910106D01*
X142879792Y-145910104D01*
X143030104Y-145759792D01*
X143030106Y-145759788D01*
X143030109Y-145759786D01*
X143155048Y-145587820D01*
X143155047Y-145587820D01*
X143155051Y-145587816D01*
X143251557Y-145398412D01*
X143317246Y-145196243D01*
X143350500Y-144986287D01*
X143350500Y-144773713D01*
X143317246Y-144563757D01*
X143251557Y-144361588D01*
X143155051Y-144172184D01*
X143155049Y-144172181D01*
X143155048Y-144172179D01*
X143030109Y-144000213D01*
X142879786Y-143849890D01*
X142707820Y-143724951D01*
X142707115Y-143724591D01*
X142699054Y-143720485D01*
X142648259Y-143672512D01*
X142631463Y-143604692D01*
X142653999Y-143538556D01*
X142699054Y-143499515D01*
X142707816Y-143495051D01*
X142797209Y-143430104D01*
X142879786Y-143370109D01*
X142879788Y-143370106D01*
X142879792Y-143370104D01*
X143030104Y-143219792D01*
X143030106Y-143219788D01*
X143030109Y-143219786D01*
X143155048Y-143047820D01*
X143155047Y-143047820D01*
X143155051Y-143047816D01*
X143251557Y-142858412D01*
X143317246Y-142656243D01*
X143350500Y-142446287D01*
X143350500Y-142233713D01*
X143317246Y-142023757D01*
X143251557Y-141821588D01*
X143155051Y-141632184D01*
X143155049Y-141632181D01*
X143155048Y-141632179D01*
X143030109Y-141460213D01*
X142879786Y-141309890D01*
X142707820Y-141184951D01*
X142707115Y-141184591D01*
X142699054Y-141180485D01*
X142648259Y-141132512D01*
X142631463Y-141064692D01*
X142653999Y-140998556D01*
X142699054Y-140959515D01*
X142707816Y-140955051D01*
X142797748Y-140889712D01*
X142879786Y-140830109D01*
X142879788Y-140830106D01*
X142879792Y-140830104D01*
X143030104Y-140679792D01*
X143030106Y-140679788D01*
X143030109Y-140679786D01*
X143155048Y-140507820D01*
X143155047Y-140507820D01*
X143155051Y-140507816D01*
X143251557Y-140318412D01*
X143317246Y-140116243D01*
X143350500Y-139906287D01*
X143350500Y-139693713D01*
X143317246Y-139483757D01*
X143251557Y-139281588D01*
X143155051Y-139092184D01*
X143155049Y-139092181D01*
X143155048Y-139092179D01*
X143030109Y-138920213D01*
X142879786Y-138769890D01*
X142707820Y-138644951D01*
X142707115Y-138644591D01*
X142699054Y-138640485D01*
X142648259Y-138592512D01*
X142631463Y-138524692D01*
X142653999Y-138458556D01*
X142699054Y-138419515D01*
X142707816Y-138415051D01*
X142762876Y-138375048D01*
X142879786Y-138290109D01*
X142879788Y-138290106D01*
X142879792Y-138290104D01*
X143030104Y-138139792D01*
X143030106Y-138139788D01*
X143030109Y-138139786D01*
X143155048Y-137967820D01*
X143155047Y-137967820D01*
X143155051Y-137967816D01*
X143251557Y-137778412D01*
X143317246Y-137576243D01*
X143350500Y-137366287D01*
X143350500Y-137153713D01*
X143317246Y-136943757D01*
X143251557Y-136741588D01*
X143155051Y-136552184D01*
X143155049Y-136552181D01*
X143155048Y-136552179D01*
X143030109Y-136380213D01*
X142879786Y-136229890D01*
X142707820Y-136104951D01*
X142707115Y-136104591D01*
X142699054Y-136100485D01*
X142648259Y-136052512D01*
X142631463Y-135984692D01*
X142653999Y-135918556D01*
X142699054Y-135879515D01*
X142707816Y-135875051D01*
X142729789Y-135859086D01*
X142879786Y-135750109D01*
X142879788Y-135750106D01*
X142879792Y-135750104D01*
X143030104Y-135599792D01*
X143030106Y-135599788D01*
X143030109Y-135599786D01*
X143155048Y-135427820D01*
X143155049Y-135427819D01*
X143155051Y-135427816D01*
X143251557Y-135238412D01*
X143317246Y-135036243D01*
X143350500Y-134826287D01*
X143350500Y-134613713D01*
X143317246Y-134403757D01*
X143251557Y-134201588D01*
X143155051Y-134012184D01*
X143155049Y-134012181D01*
X143155048Y-134012179D01*
X143030109Y-133840213D01*
X142879786Y-133689890D01*
X142707820Y-133564951D01*
X142707115Y-133564591D01*
X142699054Y-133560485D01*
X142648259Y-133512512D01*
X142631463Y-133444692D01*
X142653999Y-133378556D01*
X142699054Y-133339515D01*
X142707816Y-133335051D01*
X142763048Y-133294923D01*
X142879786Y-133210109D01*
X142879788Y-133210106D01*
X142879792Y-133210104D01*
X143030104Y-133059792D01*
X143030106Y-133059788D01*
X143030109Y-133059786D01*
X143155048Y-132887820D01*
X143155049Y-132887819D01*
X143155051Y-132887816D01*
X143251557Y-132698412D01*
X143317246Y-132496243D01*
X143350500Y-132286287D01*
X143350500Y-132073713D01*
X143317246Y-131863757D01*
X143251557Y-131661588D01*
X143155051Y-131472184D01*
X143155049Y-131472181D01*
X143155048Y-131472179D01*
X143030109Y-131300213D01*
X142879786Y-131149890D01*
X142707820Y-131024951D01*
X142707115Y-131024591D01*
X142699054Y-131020485D01*
X142648259Y-130972512D01*
X142631463Y-130904692D01*
X142653999Y-130838556D01*
X142699054Y-130799515D01*
X142707816Y-130795051D01*
X142866458Y-130679792D01*
X142879786Y-130670109D01*
X142879788Y-130670106D01*
X142879792Y-130670104D01*
X143030104Y-130519792D01*
X143030106Y-130519788D01*
X143030109Y-130519786D01*
X143155048Y-130347820D01*
X143155047Y-130347820D01*
X143155051Y-130347816D01*
X143251557Y-130158412D01*
X143317246Y-129956243D01*
X143350500Y-129746287D01*
X143350500Y-129533713D01*
X143317246Y-129323757D01*
X143251557Y-129121588D01*
X143155051Y-128932184D01*
X143155049Y-128932181D01*
X143155048Y-128932179D01*
X143030109Y-128760213D01*
X142879786Y-128609890D01*
X142707820Y-128484951D01*
X142707115Y-128484591D01*
X142699054Y-128480485D01*
X142648259Y-128432512D01*
X142631463Y-128364692D01*
X142653999Y-128298556D01*
X142699054Y-128259515D01*
X142707816Y-128255051D01*
X142797209Y-128190104D01*
X142879786Y-128130109D01*
X142879788Y-128130106D01*
X142879792Y-128130104D01*
X143030104Y-127979792D01*
X143030106Y-127979788D01*
X143030109Y-127979786D01*
X143155048Y-127807820D01*
X143155047Y-127807820D01*
X143155051Y-127807816D01*
X143251557Y-127618412D01*
X143317246Y-127416243D01*
X143350500Y-127206287D01*
X143350500Y-126993713D01*
X143317246Y-126783757D01*
X143251557Y-126581588D01*
X143155051Y-126392184D01*
X143155049Y-126392181D01*
X143155048Y-126392179D01*
X143030109Y-126220213D01*
X142879786Y-126069890D01*
X142707820Y-125944951D01*
X142707115Y-125944591D01*
X142699054Y-125940485D01*
X142648259Y-125892512D01*
X142631463Y-125824692D01*
X142653999Y-125758556D01*
X142699054Y-125719515D01*
X142707816Y-125715051D01*
X142762876Y-125675048D01*
X142879786Y-125590109D01*
X142879788Y-125590106D01*
X142879792Y-125590104D01*
X143030104Y-125439792D01*
X143030106Y-125439788D01*
X143030109Y-125439786D01*
X143155048Y-125267820D01*
X143155047Y-125267820D01*
X143155051Y-125267816D01*
X143251557Y-125078412D01*
X143317246Y-124876243D01*
X143350500Y-124666287D01*
X143350500Y-124453713D01*
X143317246Y-124243757D01*
X143251557Y-124041588D01*
X143155051Y-123852184D01*
X143155049Y-123852181D01*
X143155048Y-123852179D01*
X143030109Y-123680213D01*
X142916569Y-123566673D01*
X142883084Y-123505350D01*
X142888068Y-123435658D01*
X142929940Y-123379725D01*
X142960915Y-123362810D01*
X143092331Y-123313796D01*
X143207546Y-123227546D01*
X143293796Y-123112331D01*
X143344091Y-122977483D01*
X143350500Y-122917873D01*
X143350499Y-121122128D01*
X143344091Y-121062517D01*
X143342402Y-121057989D01*
X143293797Y-120927671D01*
X143293793Y-120927664D01*
X143207547Y-120812455D01*
X143207544Y-120812452D01*
X143092335Y-120726206D01*
X143092328Y-120726202D01*
X142957482Y-120675908D01*
X142957483Y-120675908D01*
X142897883Y-120669501D01*
X142897881Y-120669500D01*
X142897873Y-120669500D01*
X142897864Y-120669500D01*
X141102129Y-120669500D01*
X141102123Y-120669501D01*
X141042516Y-120675908D01*
X140907671Y-120726202D01*
X140907664Y-120726206D01*
X140792455Y-120812452D01*
X140792452Y-120812455D01*
X140706206Y-120927664D01*
X140706202Y-120927671D01*
X140655908Y-121062517D01*
X140649501Y-121122116D01*
X140649501Y-121122123D01*
X140649500Y-121122135D01*
X140649500Y-121230500D01*
X140629815Y-121297539D01*
X140577011Y-121343294D01*
X140525500Y-121354500D01*
X136974499Y-121354500D01*
X136907460Y-121334815D01*
X136861705Y-121282011D01*
X136850499Y-121230500D01*
X136850499Y-121082129D01*
X136850498Y-121082123D01*
X136849911Y-121076664D01*
X136844091Y-121022517D01*
X136840320Y-121012407D01*
X136793797Y-120887671D01*
X136793793Y-120887664D01*
X136707547Y-120772455D01*
X136707544Y-120772452D01*
X136592335Y-120686206D01*
X136592328Y-120686202D01*
X136457482Y-120635908D01*
X136457483Y-120635908D01*
X136397883Y-120629501D01*
X136397881Y-120629500D01*
X136397873Y-120629500D01*
X136397865Y-120629500D01*
X136249500Y-120629500D01*
X136182461Y-120609815D01*
X136136706Y-120557011D01*
X136125500Y-120505500D01*
X136125500Y-67338393D01*
X136125499Y-67338389D01*
X136108986Y-67255370D01*
X136101463Y-67217548D01*
X136086019Y-67180263D01*
X136054312Y-67103714D01*
X136020084Y-67052490D01*
X135985858Y-67001267D01*
X135985856Y-67001264D01*
X135895637Y-66911045D01*
X135895606Y-66911016D01*
X121869090Y-52884500D01*
X121835605Y-52823177D01*
X121834298Y-52777421D01*
X121862500Y-52599360D01*
X121862500Y-52400639D01*
X121831413Y-52204364D01*
X121770005Y-52015368D01*
X121770005Y-52015367D01*
X121679786Y-51838305D01*
X121562981Y-51677536D01*
X121422464Y-51537019D01*
X121261694Y-51420213D01*
X121084632Y-51329994D01*
X121084629Y-51329993D01*
X120895637Y-51268587D01*
X120797498Y-51253043D01*
X120699361Y-51237500D01*
X120500639Y-51237500D01*
X120435214Y-51247862D01*
X120304362Y-51268587D01*
X120115370Y-51329993D01*
X120115367Y-51329994D01*
X119938305Y-51420213D01*
X119777533Y-51537021D01*
X119637021Y-51677533D01*
X119520213Y-51838305D01*
X119440485Y-51994780D01*
X119392510Y-52045576D01*
X119324689Y-52062371D01*
X119258554Y-52039833D01*
X119219515Y-51994780D01*
X119139786Y-51838305D01*
X119022981Y-51677536D01*
X118882464Y-51537019D01*
X118721694Y-51420213D01*
X118544632Y-51329994D01*
X118544629Y-51329993D01*
X118355637Y-51268587D01*
X118257498Y-51253043D01*
X118159361Y-51237500D01*
X117960639Y-51237500D01*
X117895214Y-51247862D01*
X117764362Y-51268587D01*
X117575370Y-51329993D01*
X117575367Y-51329994D01*
X117398305Y-51420213D01*
X117237533Y-51537021D01*
X117097021Y-51677533D01*
X116980213Y-51838305D01*
X116889994Y-52015367D01*
X116889993Y-52015370D01*
X116828587Y-52204362D01*
X116797500Y-52400639D01*
X116797500Y-52599361D01*
X116797499Y-52599361D01*
X116825701Y-52777421D01*
X116816746Y-52846714D01*
X116790909Y-52884499D01*
X90691270Y-78984139D01*
X90604144Y-79071264D01*
X90604138Y-79071272D01*
X90535692Y-79173705D01*
X90535684Y-79173719D01*
X90502347Y-79254207D01*
X90496823Y-79267543D01*
X90488537Y-79287545D01*
X90488535Y-79287553D01*
X90464500Y-79408389D01*
X90464500Y-79408394D01*
X90464500Y-144828393D01*
X90464500Y-144951607D01*
X90467483Y-144966607D01*
X90476517Y-145012027D01*
X90488332Y-145071425D01*
X90488339Y-145071459D01*
X90488537Y-145072451D01*
X90488538Y-145072454D01*
X90488539Y-145072457D01*
X90535685Y-145186281D01*
X90535688Y-145186286D01*
X90566124Y-145231835D01*
X90604142Y-145288733D01*
X90691267Y-145375858D01*
X90691269Y-145375859D01*
X90701412Y-145386002D01*
X99957571Y-154642162D01*
X99991056Y-154703485D01*
X99987821Y-154768160D01*
X99982754Y-154783753D01*
X99949500Y-154993713D01*
X99949500Y-155206286D01*
X99965338Y-155306287D01*
X99982754Y-155416243D01*
X100028948Y-155558414D01*
X100048444Y-155618414D01*
X100144951Y-155807820D01*
X100269890Y-155979786D01*
X100420213Y-156130109D01*
X100592182Y-156255050D01*
X100600946Y-156259516D01*
X100651742Y-156307491D01*
X100668536Y-156375312D01*
X100645998Y-156441447D01*
X100600946Y-156480484D01*
X100592182Y-156484949D01*
X100420213Y-156609890D01*
X100269898Y-156760205D01*
X100269898Y-156760206D01*
X100269896Y-156760208D01*
X100249422Y-156788386D01*
X100194094Y-156831051D01*
X100149106Y-156839500D01*
X76250894Y-156839500D01*
X76183855Y-156819815D01*
X76150577Y-156788387D01*
X76130104Y-156760208D01*
X75979792Y-156609896D01*
X75979786Y-156609890D01*
X75807820Y-156484951D01*
X75807115Y-156484591D01*
X75799054Y-156480485D01*
X75748259Y-156432512D01*
X75731463Y-156364692D01*
X75753999Y-156298556D01*
X75799054Y-156259515D01*
X75807816Y-156255051D01*
X75870110Y-156209792D01*
X75979786Y-156130109D01*
X75979788Y-156130106D01*
X75979792Y-156130104D01*
X76130104Y-155979792D01*
X76130106Y-155979788D01*
X76130109Y-155979786D01*
X76255048Y-155807820D01*
X76255049Y-155807819D01*
X76255051Y-155807816D01*
X76351557Y-155618412D01*
X76417246Y-155416243D01*
X76450500Y-155206287D01*
X76450500Y-154993713D01*
X76417246Y-154783757D01*
X76412179Y-154768162D01*
X76410182Y-154698321D01*
X76442426Y-154642162D01*
X85889858Y-145194733D01*
X85958312Y-145092285D01*
X86001695Y-144987548D01*
X86005463Y-144978452D01*
X86020748Y-144901607D01*
X86029501Y-144857606D01*
X86029501Y-144734393D01*
X86029501Y-144729283D01*
X86029500Y-144729257D01*
X86029500Y-78202393D01*
X86029499Y-78202389D01*
X86024533Y-78177421D01*
X86005463Y-78081548D01*
X85958311Y-77967714D01*
X85958310Y-77967713D01*
X85958307Y-77967707D01*
X85889858Y-77865267D01*
X85889855Y-77865263D01*
X85799637Y-77775045D01*
X85799606Y-77775016D01*
X60909090Y-52884500D01*
X60875605Y-52823177D01*
X60874298Y-52777421D01*
X60902500Y-52599360D01*
X60902500Y-52400639D01*
X60871413Y-52204364D01*
X60810005Y-52015368D01*
X60810005Y-52015367D01*
X60719786Y-51838305D01*
X60602981Y-51677536D01*
X60462464Y-51537019D01*
X60301694Y-51420213D01*
X60124632Y-51329994D01*
X60124629Y-51329993D01*
X59935637Y-51268587D01*
X59837498Y-51253043D01*
X59739361Y-51237500D01*
X59540639Y-51237500D01*
X59475214Y-51247862D01*
X59344362Y-51268587D01*
X59325815Y-51274613D01*
X59255974Y-51276606D01*
X59196142Y-51240524D01*
X59165316Y-51177823D01*
X59163500Y-51156681D01*
X59163500Y-50884155D01*
X59163499Y-50884153D01*
X59142824Y-50780214D01*
X59132737Y-50729503D01*
X59132735Y-50729498D01*
X59072397Y-50583827D01*
X59072390Y-50583814D01*
X58984790Y-50452712D01*
X58978130Y-50446052D01*
X58873289Y-50341211D01*
X58042283Y-49510205D01*
X57184413Y-48652334D01*
X57100790Y-48568711D01*
X62869500Y-48568711D01*
X62869500Y-48811288D01*
X62901161Y-49051785D01*
X62963947Y-49286104D01*
X63056773Y-49510205D01*
X63056776Y-49510212D01*
X63178064Y-49720289D01*
X63178066Y-49720292D01*
X63178067Y-49720293D01*
X63325733Y-49912736D01*
X63325739Y-49912743D01*
X63497256Y-50084260D01*
X63497262Y-50084265D01*
X63689711Y-50231936D01*
X63899788Y-50353224D01*
X64123900Y-50446054D01*
X64358211Y-50508838D01*
X64538586Y-50532584D01*
X64598711Y-50540500D01*
X64598712Y-50540500D01*
X64841289Y-50540500D01*
X64889388Y-50534167D01*
X65081789Y-50508838D01*
X65316100Y-50446054D01*
X65540212Y-50353224D01*
X65750289Y-50231936D01*
X65942738Y-50084265D01*
X66114265Y-49912738D01*
X66171068Y-49838711D01*
X111129500Y-49838711D01*
X111129500Y-50081288D01*
X111161161Y-50321785D01*
X111223947Y-50556104D01*
X111316773Y-50780205D01*
X111316776Y-50780212D01*
X111438064Y-50990289D01*
X111438066Y-50990292D01*
X111438067Y-50990293D01*
X111585733Y-51182736D01*
X111585739Y-51182743D01*
X111757256Y-51354260D01*
X111757263Y-51354266D01*
X111843207Y-51420213D01*
X111949711Y-51501936D01*
X112159788Y-51623224D01*
X112383900Y-51716054D01*
X112618211Y-51778838D01*
X112798586Y-51802584D01*
X112858711Y-51810500D01*
X112858712Y-51810500D01*
X113101289Y-51810500D01*
X113149388Y-51804167D01*
X113341789Y-51778838D01*
X113576100Y-51716054D01*
X113800212Y-51623224D01*
X114010289Y-51501936D01*
X114202738Y-51354265D01*
X114374265Y-51182738D01*
X114521936Y-50990289D01*
X114643224Y-50780212D01*
X114736054Y-50556100D01*
X114798838Y-50321789D01*
X114830500Y-50081288D01*
X114830500Y-49838712D01*
X114798838Y-49598211D01*
X114736054Y-49363900D01*
X114643224Y-49139788D01*
X114521936Y-48929711D01*
X114374265Y-48737262D01*
X114374260Y-48737256D01*
X114202743Y-48565739D01*
X114202736Y-48565733D01*
X114010293Y-48418067D01*
X114010292Y-48418066D01*
X114010289Y-48418064D01*
X113800212Y-48296776D01*
X113800205Y-48296773D01*
X113576104Y-48203947D01*
X113341785Y-48141161D01*
X113101289Y-48109500D01*
X113101288Y-48109500D01*
X112858712Y-48109500D01*
X112858711Y-48109500D01*
X112618214Y-48141161D01*
X112383895Y-48203947D01*
X112159794Y-48296773D01*
X112159785Y-48296777D01*
X111949706Y-48418067D01*
X111757263Y-48565733D01*
X111757256Y-48565739D01*
X111585739Y-48737256D01*
X111585733Y-48737263D01*
X111438067Y-48929706D01*
X111316777Y-49139785D01*
X111316773Y-49139794D01*
X111223947Y-49363895D01*
X111161161Y-49598214D01*
X111129500Y-49838711D01*
X66171068Y-49838711D01*
X66261936Y-49720289D01*
X66383224Y-49510212D01*
X66476054Y-49286100D01*
X66538838Y-49051789D01*
X66570500Y-48811288D01*
X66570500Y-48568712D01*
X66538838Y-48328211D01*
X66476054Y-48093900D01*
X66383224Y-47869788D01*
X66261936Y-47659711D01*
X66114265Y-47467262D01*
X66114260Y-47467256D01*
X65942743Y-47295739D01*
X65942736Y-47295733D01*
X65750293Y-47148067D01*
X65750292Y-47148066D01*
X65750289Y-47148064D01*
X65540212Y-47026776D01*
X65540205Y-47026773D01*
X65316104Y-46933947D01*
X65081785Y-46871161D01*
X64841289Y-46839500D01*
X64841288Y-46839500D01*
X64598712Y-46839500D01*
X64598711Y-46839500D01*
X64358214Y-46871161D01*
X64123895Y-46933947D01*
X63899794Y-47026773D01*
X63899785Y-47026777D01*
X63689706Y-47148067D01*
X63497263Y-47295733D01*
X63497256Y-47295739D01*
X63325739Y-47467256D01*
X63325733Y-47467263D01*
X63178067Y-47659706D01*
X63056777Y-47869785D01*
X63056773Y-47869794D01*
X62963947Y-48093895D01*
X62901161Y-48328214D01*
X62869500Y-48568711D01*
X57100790Y-48568711D01*
X56410292Y-47878213D01*
X56410288Y-47878210D01*
X56279185Y-47790609D01*
X56279172Y-47790602D01*
X56133501Y-47730264D01*
X56133489Y-47730261D01*
X55978845Y-47699500D01*
X55978842Y-47699500D01*
X50778843Y-47699500D01*
X50621158Y-47699500D01*
X50621155Y-47699500D01*
X50466510Y-47730261D01*
X50466498Y-47730264D01*
X50320827Y-47790602D01*
X50320814Y-47790609D01*
X50189711Y-47878210D01*
X50189707Y-47878213D01*
X35507283Y-62560639D01*
X30739711Y-67328211D01*
X30683960Y-67383962D01*
X30628209Y-67439712D01*
X30540609Y-67570814D01*
X30540602Y-67570827D01*
X30480264Y-67716498D01*
X30480261Y-67716510D01*
X30449500Y-67871153D01*
X28500500Y-67871153D01*
X28500500Y-39878711D01*
X44149500Y-39878711D01*
X44149500Y-40121288D01*
X44181161Y-40361785D01*
X44243947Y-40596104D01*
X44336773Y-40820205D01*
X44336776Y-40820212D01*
X44458064Y-41030289D01*
X44458066Y-41030292D01*
X44458067Y-41030293D01*
X44605733Y-41222736D01*
X44605739Y-41222743D01*
X44777256Y-41394260D01*
X44777262Y-41394265D01*
X44969711Y-41541936D01*
X45179788Y-41663224D01*
X45403900Y-41756054D01*
X45638211Y-41818838D01*
X45818586Y-41842584D01*
X45878711Y-41850500D01*
X45878712Y-41850500D01*
X46121289Y-41850500D01*
X46169388Y-41844167D01*
X46361789Y-41818838D01*
X46596100Y-41756054D01*
X46820212Y-41663224D01*
X47030289Y-41541936D01*
X47222738Y-41394265D01*
X47394265Y-41222738D01*
X47541936Y-41030289D01*
X47663224Y-40820212D01*
X47756054Y-40596100D01*
X47818838Y-40361789D01*
X47850500Y-40121288D01*
X47850500Y-39878712D01*
X47850500Y-39878711D01*
X128899500Y-39878711D01*
X128899500Y-40121288D01*
X128931161Y-40361785D01*
X128993947Y-40596104D01*
X129086773Y-40820205D01*
X129086776Y-40820212D01*
X129208064Y-41030289D01*
X129208066Y-41030292D01*
X129208067Y-41030293D01*
X129355733Y-41222736D01*
X129355739Y-41222743D01*
X129527256Y-41394260D01*
X129527262Y-41394265D01*
X129719711Y-41541936D01*
X129929788Y-41663224D01*
X130153900Y-41756054D01*
X130388211Y-41818838D01*
X130568586Y-41842584D01*
X130628711Y-41850500D01*
X130628712Y-41850500D01*
X130871289Y-41850500D01*
X130919388Y-41844167D01*
X131111789Y-41818838D01*
X131346100Y-41756054D01*
X131570212Y-41663224D01*
X131780289Y-41541936D01*
X131972738Y-41394265D01*
X132144265Y-41222738D01*
X132291936Y-41030289D01*
X132413224Y-40820212D01*
X132506054Y-40596100D01*
X132568838Y-40361789D01*
X132600500Y-40121288D01*
X132600500Y-39878712D01*
X132568838Y-39638211D01*
X132506054Y-39403900D01*
X132413224Y-39179788D01*
X132291936Y-38969711D01*
X132144265Y-38777262D01*
X132144260Y-38777256D01*
X131972743Y-38605739D01*
X131972736Y-38605733D01*
X131780293Y-38458067D01*
X131780292Y-38458066D01*
X131780289Y-38458064D01*
X131570212Y-38336776D01*
X131570205Y-38336773D01*
X131346104Y-38243947D01*
X131111785Y-38181161D01*
X130871289Y-38149500D01*
X130871288Y-38149500D01*
X130628712Y-38149500D01*
X130628711Y-38149500D01*
X130388214Y-38181161D01*
X130153895Y-38243947D01*
X129929794Y-38336773D01*
X129929785Y-38336777D01*
X129719706Y-38458067D01*
X129527263Y-38605733D01*
X129527256Y-38605739D01*
X129355739Y-38777256D01*
X129355733Y-38777263D01*
X129208067Y-38969706D01*
X129086777Y-39179785D01*
X129086773Y-39179794D01*
X128993947Y-39403895D01*
X128931161Y-39638214D01*
X128899500Y-39878711D01*
X47850500Y-39878711D01*
X47818838Y-39638211D01*
X47756054Y-39403900D01*
X47663224Y-39179788D01*
X47541936Y-38969711D01*
X47394265Y-38777262D01*
X47394260Y-38777256D01*
X47222743Y-38605739D01*
X47222736Y-38605733D01*
X47030293Y-38458067D01*
X47030292Y-38458066D01*
X47030289Y-38458064D01*
X46820212Y-38336776D01*
X46820205Y-38336773D01*
X46596104Y-38243947D01*
X46361785Y-38181161D01*
X46121289Y-38149500D01*
X46121288Y-38149500D01*
X45878712Y-38149500D01*
X45878711Y-38149500D01*
X45638214Y-38181161D01*
X45403895Y-38243947D01*
X45179794Y-38336773D01*
X45179785Y-38336777D01*
X44969706Y-38458067D01*
X44777263Y-38605733D01*
X44777256Y-38605739D01*
X44605739Y-38777256D01*
X44605733Y-38777263D01*
X44458067Y-38969706D01*
X44336777Y-39179785D01*
X44336773Y-39179794D01*
X44243947Y-39403895D01*
X44181161Y-39638214D01*
X44149500Y-39878711D01*
X28500500Y-39878711D01*
X28500500Y-20624500D01*
X28520185Y-20557461D01*
X28572989Y-20511706D01*
X28624500Y-20500500D01*
X150375500Y-20500500D01*
X150442539Y-20520185D01*
G37*
%TD.AperFunction*%
%TD*%
M02*
